<svg width="24" height="24" viewBox="0 0 24 24" fill="none" xmlns="http://www.w3.org/2000/svg">
<circle cx="12" cy="12" r="12" fill="#672CBC" fill-opacity="0.25"/>
<path fill-rule="evenodd" clip-rule="evenodd" d="M12.2871 6C12.4472 6 12.5934 6.09089 12.6643 6.23444L14.3793 9.70943L18.2142 10.2667C18.3726 10.2897 18.5042 10.4007 18.5537 10.5529C18.6032 10.7052 18.5619 10.8723 18.4473 10.984L15.6723 13.6889L16.3274 17.5083C16.3545 17.6661 16.2896 17.8256 16.1601 17.9197C16.0306 18.0138 15.8589 18.0262 15.7172 17.9517L12.2871 16.1484L8.85712 17.9517C8.71542 18.0262 8.54372 18.0138 8.4142 17.9197C8.28469 17.8256 8.21983 17.6661 8.24689 17.5083L8.90196 13.6889L6.12702 10.984C6.01238 10.8723 5.97113 10.7052 6.0206 10.5529C6.07007 10.4007 6.20169 10.2897 6.36011 10.2667L10.195 9.70943L11.91 6.23444C11.9808 6.09089 12.1271 6 12.2871 6ZM12.2871 7.37089L10.8514 10.28C10.7902 10.4041 10.6717 10.4901 10.5348 10.51L7.32439 10.9765L9.64743 13.2409C9.74656 13.3376 9.79179 13.4768 9.76839 13.6132L9.21999 16.8106L12.0914 15.301C12.214 15.2366 12.3603 15.2366 12.4829 15.301L15.3543 16.8106L14.8059 13.6132C14.7825 13.4768 14.8277 13.3376 14.9268 13.2409L17.2499 10.9765L14.0395 10.51C13.9025 10.4901 13.7841 10.4041 13.7229 10.28L12.2871 7.37089Z" fill="#24292E"/>
</svg>
