<svg width="24" height="24" viewBox="0 0 24 24" fill="none" xmlns="http://www.w3.org/2000/svg">
<circle cx="12" cy="12" r="12" fill="#672CBC" fill-opacity="0.25"/>
<path fill-rule="evenodd" clip-rule="evenodd" d="M16.3 8.1C16.3 9.2598 15.3598 10.2 14.2 10.2C13.5931 10.2 13.0462 9.94251 12.6629 9.53082L9.59538 11.3436C9.66327 11.5501 9.7 11.7708 9.7 12C9.7 12.2292 9.66327 12.4499 9.59538 12.6564L12.663 14.4691C13.0464 14.0574 13.5931 13.8 14.2 13.8C15.3598 13.8 16.3 14.7402 16.3 15.9C16.3 17.0598 15.3598 18 14.2 18C13.0402 18 12.1 17.0598 12.1 15.9C12.1 15.6708 12.1367 15.4501 12.2046 15.2436L9.13703 13.4309C8.75365 13.8426 8.20689 14.1 7.6 14.1C6.4402 14.1 5.5 13.1598 5.5 12C5.5 10.8402 6.4402 9.9 7.6 9.9C8.20689 9.9 8.75364 10.1574 9.13703 10.5691L12.2046 8.7564C12.1366 8.54968 12.1 8.32949 12.1 8.1C12.1 6.9402 13.0402 6 14.2 6C15.3598 6 16.3 6.9402 16.3 8.1ZM15.4 8.1C15.4 8.76274 14.8627 9.3 14.2 9.3C13.5373 9.3 13 8.76274 13 8.1C13 7.43726 13.5373 6.9 14.2 6.9C14.8627 6.9 15.4 7.43726 15.4 8.1ZM7.6 13.2C8.26274 13.2 8.8 12.6627 8.8 12C8.8 11.3373 8.26274 10.8 7.6 10.8C6.93726 10.8 6.4 11.3373 6.4 12C6.4 12.6627 6.93726 13.2 7.6 13.2ZM15.4 15.9C15.4 16.5627 14.8627 17.1 14.2 17.1C13.5373 17.1 13 16.5627 13 15.9C13 15.2373 13.5373 14.7 14.2 14.7C14.8627 14.7 15.4 15.2373 15.4 15.9Z" fill="#240F4F"/>
</svg>
