<svg width="24" height="24" viewBox="0 0 24 24" fill="none" xmlns="http://www.w3.org/2000/svg">
<circle cx="12" cy="12" r="12" fill="#672CBC" fill-opacity="0.25"/>
<path fill-rule="evenodd" clip-rule="evenodd" d="M7 8.71278C7 7.20193 8.29163 6.00708 9.76913 6.00708H13.7881C13.9115 6.00708 14.0295 6.05739 14.115 6.14638L17.1747 9.33354C17.2557 9.41792 17.3009 9.53035 17.3009 9.64731V15.1844C17.3009 16.6514 16.1171 18 14.5952 18H9.76913C8.19337 18 7 16.7373 7 15.1844V8.71278ZM9.76913 6.91321C8.75901 6.91321 7.90613 7.7348 7.90613 8.71278V15.1844C7.90613 16.2604 8.71712 17.0939 9.76913 17.0939H14.5952C15.5621 17.0939 16.3948 16.2074 16.3948 15.1844V9.82958L13.595 6.91321H9.76913Z" fill="#200E32"/>
<path fill-rule="evenodd" clip-rule="evenodd" d="M13.6294 6C13.8796 6 14.0825 6.20284 14.0825 6.45307V8.21035C14.0825 8.81855 14.5745 9.31153 15.1816 9.31281H15.1817C15.5794 9.31372 15.9812 9.31432 16.2904 9.31425C16.4451 9.31421 16.5761 9.314 16.6716 9.31358C16.7379 9.31329 16.7787 9.31287 16.7992 9.31266C16.8119 9.31253 16.8168 9.31248 16.8151 9.31258C17.0648 9.29612 17.2806 9.48518 17.297 9.73486C17.3135 9.98454 17.1244 10.2003 16.8748 10.2168M13.6294 6C13.3792 6 13.1763 6.20284 13.1763 6.45307L13.6294 6ZM13.1763 6.45307V8.21035V6.45307ZM13.1763 8.21035C13.1763 9.31773 14.0724 10.2166 15.1797 10.2189L13.1763 8.21035Z" fill="#200E32"/>
<path fill-rule="evenodd" clip-rule="evenodd" d="M9.80135 14.19C9.80135 13.9398 10.0042 13.7369 10.2544 13.7369H13.5147C13.7649 13.7369 13.9677 13.9398 13.9677 14.19C13.9677 14.4402 13.7649 14.643 13.5147 14.643H10.2544C10.0042 14.643 9.80135 14.4402 9.80135 14.19Z" fill="#200E32"/>
<path fill-rule="evenodd" clip-rule="evenodd" d="M9.80106 11.1984C9.80106 10.9482 10.0039 10.7454 10.2541 10.7454H12.2814C12.5317 10.7454 12.7345 10.9482 12.7345 11.1984C12.7345 11.4486 12.5317 11.6515 12.2814 11.6515H10.2541C10.0039 11.6515 9.80106 11.4486 9.80106 11.1984Z" fill="#200E32"/>
</svg>
