<svg width="24" height="24" viewBox="0 0 24 24" fill="none" xmlns="http://www.w3.org/2000/svg">
<path d="M20.2017 16.8562H17.7821L16.5644 8.03904C16.5146 7.67865 16.2066 7.41016 15.8427 7.41016H8.15566C7.79178 7.41016 7.48365 7.67865 7.43392 8.03913L6.21715 16.8563H3.79654C3.39409 16.8563 3.06799 17.1825 3.06799 17.5848V22.3073C3.06799 22.7097 3.39409 23.0359 3.79654 23.0359H20.2017C20.6042 23.0359 20.9302 22.7097 20.9302 22.3073V17.5848C20.9302 17.1824 20.6041 16.8562 20.2017 16.8562ZM8.79056 8.86724H15.2079L16.3111 16.8562H7.68803L8.79056 8.86724ZM19.4732 21.5787H4.52508V18.3133H17.1441C17.1447 18.3133 17.1455 18.3134 17.1461 18.3134C17.1466 18.3134 17.1471 18.3133 17.1475 18.3133H19.4731L19.4732 21.5787Z" fill="#989899"/>
<path d="M11.9992 5.99568C12.4016 5.99568 12.7277 5.66949 12.7277 5.26714V1.6929C12.7277 1.29055 12.4016 0.964355 11.9992 0.964355C11.5967 0.964355 11.2706 1.29055 11.2706 1.6929V5.26714C11.2706 5.66949 11.5968 5.99568 11.9992 5.99568Z" fill="#989899"/>
<path d="M23.2714 11.0122H19.6972C19.2947 11.0122 18.9686 11.3384 18.9686 11.7408C18.9686 12.1431 19.2947 12.4693 19.6972 12.4693H23.2714C23.6739 12.4693 24 12.1431 24 11.7408C24 11.3384 23.6739 11.0122 23.2714 11.0122Z" fill="#989899"/>
<path d="M17.9845 7.15424C18.171 7.15424 18.3574 7.08314 18.4997 6.94083L21.0271 4.41307C21.3116 4.12855 21.3116 3.66724 21.027 3.38281C20.7423 3.09819 20.2812 3.09839 19.9967 3.38291L17.4694 5.91067C17.1848 6.19519 17.1848 6.6565 17.4695 6.94093C17.6117 7.08314 17.7981 7.15424 17.9845 7.15424Z" fill="#989899"/>
<path d="M5.03055 11.7408C5.03055 11.3384 4.70445 11.0122 4.30201 11.0122H0.728544C0.326096 11.0122 0 11.3384 0 11.7408C0 12.1431 0.326096 12.4693 0.728544 12.4693H4.30201C4.70445 12.4693 5.03055 12.1431 5.03055 11.7408Z" fill="#989899"/>
<path d="M5.49914 6.94072C5.64145 7.08303 5.82795 7.15423 6.01446 7.15423C6.20087 7.15423 6.38728 7.08313 6.52959 6.94091C6.81411 6.65649 6.81421 6.19518 6.52969 5.91065L4.0028 3.3828C3.71828 3.09818 3.25707 3.09818 2.97235 3.3826C2.68783 3.66703 2.68773 4.12834 2.97225 4.41286L5.49914 6.94072Z" fill="#989899"/>
</svg>
