<svg width="108" height="96" viewBox="0 0 108 96" fill="none" xmlns="http://www.w3.org/2000/svg">
<path d="M20.25 0.75C9.14942 0.75 0 9.89942 0 21V34.5H6.75C6.75 34.5 13.5 34.5 13.5 27.75V21C13.5 17.1504 16.4004 14.25 20.25 14.25H27C27 14.25 33.75 14.25 33.75 7.5V0.75H20.25ZM74.25 0.75V7.5C74.25 14.25 81 14.25 81 14.25H87.75C91.5996 14.25 94.5 17.1504 94.5 21V27.75C94.5 34.5 101.25 34.5 101.25 34.5H108V21C108 9.89942 98.8506 0.75 87.75 0.75H74.25ZM40.5 27.8818C36.7822 27.8818 33.75 30.8877 33.75 34.6318C33.75 38.3496 36.7822 41.3818 40.5 41.3818C44.2178 41.3818 47.25 38.3496 47.25 34.6318C47.25 30.8877 44.2178 27.8818 40.5 27.8818ZM67.5 27.8818C63.7822 27.8818 60.75 30.8877 60.75 34.6318C60.75 38.3496 63.7822 41.3818 67.5 41.3818C71.2178 41.3818 74.25 38.3496 74.25 34.6318C74.25 30.8877 71.2178 27.8818 67.5 27.8818ZM29.874 54.8027C29.5312 54.8291 29.1885 54.9609 28.8721 55.1191C27.2109 55.9365 26.5254 57.9668 27.3428 59.6279C27.3428 59.6279 35.332 75 54 75C72.668 75 80.6572 59.6279 80.6572 59.6279C81.4746 57.9668 80.7891 55.9365 79.1279 55.1191C77.4668 54.2754 75.4365 54.9609 74.5928 56.6221C74.5928 56.6221 69.082 68.25 54 68.25C38.918 68.25 33.4072 56.6221 33.4072 56.6221C32.748 55.3037 31.3242 54.5654 29.874 54.8027ZM0 61.5V75C0 86.1006 9.14942 95.25 20.25 95.25H33.75V81.75H20.25C16.4004 81.75 13.5 78.8496 13.5 75V68.25C13.5 61.5 6.75 61.5 6.75 61.5H0ZM101.25 61.5C94.5 61.5 94.5 68.25 94.5 68.25V75C94.5 78.8496 91.5996 81.75 87.75 81.75H74.25V95.25H87.75C98.8506 95.25 108 86.1006 108 75V61.5H101.25Z" fill="#672CBC" fill-opacity="0.8"/>
</svg>
