<svg width="15" height="19" viewBox="0 0 15 19" fill="none" xmlns="http://www.w3.org/2000/svg">
<path d="M1.15185 18.53C0.886631 18.53 0.632277 18.4246 0.44474 18.2371C0.257204 18.0496 0.151847 17.7952 0.151847 17.53L0.00184711 2.87C-0.0101943 2.57235 0.0367301 2.27525 0.139922 1.99579C0.243113 1.71634 0.400535 1.46004 0.603133 1.24164C0.805732 1.02324 1.04951 0.847055 1.32044 0.723209C1.59138 0.599363 1.88413 0.530303 2.18185 0.520001L11.7718 0.470001C12.07 0.475208 12.3641 0.539094 12.6375 0.658009C12.911 0.776924 13.1583 0.948539 13.3654 1.16305C13.5725 1.37756 13.7352 1.63077 13.8445 1.90821C13.9537 2.18565 14.0071 2.48189 14.0018 2.78L14.1418 17.44C14.1436 17.6152 14.0992 17.7878 14.0132 17.9405C13.9272 18.0932 13.8026 18.2206 13.6518 18.31C13.4998 18.3978 13.3274 18.444 13.1518 18.444C12.9763 18.444 12.8039 18.3978 12.6518 18.31L6.95185 15.15L1.66185 18.38C1.5052 18.4675 1.33092 18.5188 1.15185 18.53ZM6.91185 12.98C7.08561 12.9803 7.25687 13.0214 7.41185 13.1L12.1218 15.71L12.0018 2.76C12.0018 2.56 11.8718 2.42 11.7918 2.43L2.19185 2.52C2.11185 2.52 2.00185 2.65 2.00185 2.85L2.12185 15.75L6.40185 13.12C6.55729 13.031 6.73275 12.9828 6.91185 12.98Z" fill="#863ED5"/>
</svg>
