<svg width="81" height="70" viewBox="0 0 81 70" fill="none" xmlns="http://www.w3.org/2000/svg">
<path d="M22.0823 12.4643C22.5174 11.5694 22.9718 10.6949 23.4489 9.8354C23.9949 8.85378 24.5732 7.90566 25.1752 6.97983C26.2726 5.39341 27.5886 4.59305 29.0532 3.51925C24.5075 6.2192 30.5189 2.75905 31.8984 2.37555C32.9355 2.00003 34.0027 1.84732 35.071 1.71777C36.0414 1.61417 37.0106 1.65358 37.9798 1.73005C38.8726 1.80198 39.7578 1.96481 40.6474 2.08295C41.3075 2.11031 41.9074 2.41001 42.505 2.73255C43.2869 3.29826 43.9912 4.01 44.6955 4.71291C45.4634 5.46341 46.074 6.40798 46.6641 7.37108C47.1283 8.16541 47.5752 8.97149 48.063 9.73966C48.5552 10.3327 48.9774 11.0126 49.421 11.6641C49.812 12.3167 50.05 13.0835 50.3235 13.8201C50.4904 14.2186 50.5389 14.6644 50.6304 15.092L48.5164 16.52C48.4389 16.1107 48.4034 15.6864 48.2483 15.3052C47.9877 14.5934 47.7594 13.8524 47.3803 13.2246C46.9409 12.572 46.523 11.8924 46.0352 11.2958C45.5452 10.5191 45.0918 9.70994 44.633 8.90052C44.0569 7.95358 43.4614 7.02894 42.7032 6.29921C42.0054 5.61849 41.3107 4.91795 40.5267 4.39715C39.9366 4.11543 39.3464 3.85891 38.7067 3.83015C37.8301 3.69091 36.9546 3.51838 36.0704 3.46583C35.1066 3.41155 34.1417 3.38194 33.1789 3.492C32.1192 3.632 31.066 3.81088 30.0354 4.16895C25.2743 5.58328 33.1757 2.03546 27.2084 5.40688C30.7343 2.78295 27.9903 4.76094 27.3474 5.82085C26.7335 6.72891 26.152 7.66723 25.6124 8.65014C25.1386 9.49003 24.668 10.3283 24.2846 11.242L22.0823 12.4643Z" fill="#364282" fill-opacity="0.15"/>
<path d="M48.4324 16.3369C49.2574 15.4937 50.0715 14.6343 50.9018 13.7986C51.7601 12.88 52.6421 12.0001 53.5317 11.13C54.1627 10.4888 54.8412 9.93501 55.5337 9.4071C56.953 8.02455 58.0935 7.60229 59.6691 7.15989C60.6717 6.86438 61.7055 6.85997 62.7286 6.82787C63.9832 6.80655 65.2378 6.79933 66.4935 6.78673C67.0891 6.70661 67.6512 6.81452 68.2274 6.95635C68.7604 7.17012 69.2967 7.36375 69.8363 7.55081C70.336 7.75155 70.7667 8.13881 71.2083 8.48407C71.6541 8.87855 72.0838 9.29769 72.5275 9.6968C73.0035 10.1131 73.3675 10.6947 73.7477 11.2387C74.1354 11.8967 74.5177 12.559 74.8989 13.2235C75.2478 13.8277 75.614 14.4157 75.9737 15.009C76.3301 15.555 76.524 16.2023 76.7415 16.842C76.9106 17.3912 77.0441 17.948 77.1691 18.5144C77.2455 19.0798 77.2358 19.6549 77.2455 20.2257C77.2477 20.5003 77.2466 20.7738 77.2466 21.0473L75.11 22.4269C75.1111 22.1533 75.1121 21.8809 75.1121 21.6074C75.1057 21.0538 75.1154 20.4981 75.0518 19.9489C74.928 19.4007 74.8278 18.844 74.6566 18.312C74.4466 17.697 74.2571 17.0757 73.9189 16.548C73.5614 15.9535 73.1963 15.3666 72.8463 14.7646C72.4726 14.1044 72.1 13.4432 71.7155 12.7927C71.3375 12.2769 70.9767 11.7255 70.5104 11.3324C70.0743 10.9221 69.65 10.494 69.1955 10.1173C68.7669 9.79813 68.3523 9.43327 67.8677 9.26064C67.3281 9.0711 66.7907 8.87177 66.2523 8.6763C65.6987 8.57852 65.1484 8.50173 64.5852 8.54438C63.3392 8.53297 62.0943 8.52295 60.8494 8.57001C59.8209 8.61524 58.786 8.66198 57.7834 8.98215C56.7958 9.27066 54.1197 10.5399 57.751 8.32361C57.05 8.84377 56.3586 9.38352 55.7178 10.0216C54.8229 10.8984 53.9194 11.7643 53.0621 12.7012C52.2523 13.5186 51.4478 14.3414 50.666 15.1997L48.4324 16.3369Z" fill="#364282" fill-opacity="0.15"/>
<path d="M23.4576 11.9043C22.8512 12.8541 22.1405 13.6866 21.4922 14.5923C20.7232 15.722 19.9996 16.8905 19.3114 18.0998C18.6922 19.1445 18.0676 20.1826 17.4537 21.2315C16.9594 22.1728 16.4565 23.1065 15.9503 24.0391C15.4517 24.9685 14.9122 25.8612 14.3823 26.7637C13.8536 27.6468 13.3216 28.5266 12.8036 29.4194C12.3222 30.2884 11.8537 31.1705 11.3831 32.0492C10.9642 32.8494 10.5549 33.6571 10.131 34.4529C9.76308 35.0915 9.44495 35.7635 9.15063 36.4603C8.87494 37.2346 8.54529 37.9734 8.22878 38.7208C7.93694 39.4358 7.62032 40.1326 7.30543 40.8294C7.00131 41.3851 6.66283 41.9074 6.33308 42.4383C6.06471 42.8917 5.79591 43.3451 5.52441 43.7952C5.32841 44.2551 5.02957 44.6094 4.75829 44.9917C4.75388 44.9906 4.53074 45.276 4.52869 45.2792L2.30054 46.4315C2.37829 46.3368 2.48297 46.2775 2.53391 46.1472C2.81412 45.7854 3.14484 45.4655 3.32652 45.0014C3.59812 44.5501 3.86003 44.0881 4.13615 43.6412C4.46537 43.1114 4.79254 42.5761 5.12132 42.0441C5.44881 41.3592 5.77103 40.6754 6.05889 39.9603C6.36958 39.2075 6.71894 38.4817 6.98203 37.6988C7.26569 36.9858 7.56809 36.2945 7.95514 35.6612C8.38225 34.8654 8.79643 34.0588 9.21255 33.2543C9.68597 32.3723 10.1544 31.4849 10.6385 30.6115C11.1483 29.7112 11.676 28.8292 12.2134 27.9537C12.7422 27.0512 13.2849 26.1595 13.7868 25.2312C14.2929 24.2975 14.8109 23.3746 15.2859 22.4151C15.9094 21.3672 16.5297 20.3183 17.164 19.2812C17.8489 18.0632 18.5662 16.8851 19.3372 15.7521C19.9565 14.8432 20.6414 14.0205 21.2574 13.1148L23.4576 11.9043Z" fill="#364282" fill-opacity="0.15"/>
<path d="M2.05231 47.9241C3.3122 46.6738 4.74343 45.7638 6.13266 44.7687C6.95898 44.2335 7.81051 43.8027 8.69509 43.4548C9.59141 43.1188 10.5028 42.9573 11.4294 42.8442C12.852 42.7516 14.2779 42.7753 15.7026 42.7785C17.3116 42.7721 18.9194 42.7538 20.5272 42.8507C21.6096 42.8507 22.6552 43.0704 23.6891 43.4408C24.4171 43.7241 25.1052 44.1408 25.8009 44.5253C26.4008 44.7935 26.8994 45.2835 27.4077 45.7498C28.0076 46.243 28.5514 46.8267 29.0866 47.4233C29.6499 48.0425 30.0914 48.8028 30.5362 49.5535C30.9174 50.2222 31.1446 50.9847 31.3665 51.7504C31.5991 52.4644 31.752 53.2075 31.9157 53.9484C32.0256 54.5364 32.0352 55.1395 32.0579 55.7393C32.0536 55.7447 32.0643 56.1582 32.0654 56.2002L29.9212 57.5873C29.9223 57.4333 29.9299 57.2793 29.9234 57.1264C29.9083 56.5427 29.9072 55.9558 29.8136 55.3807C29.6585 54.6484 29.5131 53.9139 29.2805 53.2107C29.0683 52.4719 28.854 51.7342 28.4943 51.0848C28.0571 50.3515 27.6231 49.6105 27.0685 49.0107C26.5365 48.4281 26.0002 47.8508 25.4036 47.3748C24.9028 46.9204 24.4031 46.4659 23.8205 46.1902C23.1356 45.8068 22.4528 45.4095 21.7356 45.1284C20.7222 44.7891 19.698 44.5759 18.6437 44.5684C17.0466 44.4682 15.4474 44.4811 13.8482 44.4865C12.4126 44.4962 10.9739 44.4898 9.54015 44.6158C8.6224 44.759 7.71305 44.9367 6.82685 45.2878C5.95712 45.6604 5.11055 46.0955 4.29532 46.6371C7.68203 44.0988 4.97691 46.0222 4.29091 46.8138L2.05231 47.9241Z" fill="#364282" fill-opacity="0.15"/>
<path d="M30.0214 57.9277C30.7784 57.1082 31.5807 56.3618 32.3658 55.5875C33.1692 54.7928 33.9898 54.0271 34.8007 53.2463C36.2147 51.8377 37.7149 51.0192 39.3981 50.4711C40.782 50.0037 42.196 49.7582 43.6186 49.588C44.5824 49.4598 45.5431 49.4189 46.5069 49.5094C47.278 49.6731 47.9909 50.0995 48.7146 50.4517C49.5794 50.8071 50.3601 51.3908 51.1301 51.9842C51.6632 52.3449 52.1004 52.864 52.5452 53.3712C52.9932 53.8268 53.3368 54.4083 53.6997 54.9651C54.0184 55.5089 54.3383 56.0474 54.6431 56.6042C55.0071 57.1975 55.3344 57.8265 55.6715 58.4446C55.9698 59.0165 56.1184 59.6562 56.2789 60.298C56.3478 60.6577 56.3467 61.0271 56.3704 61.3922L54.2381 62.7835C54.2209 62.4346 54.2252 62.0814 54.1703 61.7368C54.0281 61.124 53.8989 60.5166 53.6103 59.976C53.2797 59.3611 52.962 58.7322 52.5915 58.1528C52.2857 57.5992 51.9637 57.0629 51.6524 56.5137C51.2938 55.9752 50.9546 55.4109 50.5174 54.9672C50.0812 54.4751 49.6504 53.9754 49.1378 53.6082C48.3786 53.0245 47.6075 52.4612 46.7546 52.1177C46.0417 51.7817 45.3363 51.3768 44.5749 51.2583C43.6337 51.1915 42.6946 51.2217 41.7555 51.3391C40.3318 51.5125 38.92 51.7914 37.5383 52.2749C34.7878 53.2905 36.7726 52.6066 36.9987 52.1403C36.1781 52.9254 35.3457 53.6911 34.5326 54.4891C33.7691 55.2515 32.9764 55.9709 32.2484 56.7883L30.0214 57.9277Z" fill="#364282" fill-opacity="0.15"/>
<path d="M54.9586 62.4906C55.6425 61.5106 55.9752 60.3227 56.2994 59.1112C56.6203 57.9643 57.0899 56.9078 57.5885 55.875C57.9762 55.1373 58.4371 54.4707 58.8915 53.7998C59.4235 52.9889 59.9728 52.1973 60.5295 51.4144C61.0454 50.7403 61.5699 50.0812 62.0803 49.4006C62.7092 48.4787 63.2929 47.5106 63.8669 46.5349C64.3558 45.6443 64.7888 44.7084 65.2465 43.7909C65.66 42.9606 66.0919 42.1453 66.5355 41.3398C66.9835 40.6258 67.3723 39.8569 67.7772 39.103C68.1315 38.3686 68.5322 37.6729 68.9328 36.9804C69.3108 36.345 69.7049 35.7258 70.0969 35.1055C70.4739 34.5498 70.7765 33.9295 71.0888 33.3156C71.3838 32.7492 71.7112 32.2097 72.0268 31.6615C72.2723 31.1564 72.5071 30.6427 72.7462 30.1312C73.0359 29.54 73.2695 28.91 73.5118 28.2864C73.7929 27.7813 73.9103 27.2106 74.0374 26.6312C74.0191 26.1024 74.2399 25.7018 74.3885 25.2495C74.662 24.7261 74.9743 24.2404 75.2769 23.745C75.5386 23.296 75.6388 22.7553 75.7626 22.2298C75.7885 22.1437 75.8154 22.0586 75.8423 21.9724L78.0166 20.6952C77.9908 20.7803 77.9639 20.8653 77.9369 20.9515C77.8055 21.4889 77.6957 22.0489 77.4717 22.541C77.1734 23.0343 76.8643 23.5232 76.5886 24.0347C76.4109 24.4526 76.1675 24.7713 76.1923 25.2969C76.0814 25.914 75.9909 26.5203 75.6905 27.0512C75.4471 27.6737 75.2037 28.3015 74.9323 28.9078C74.6878 29.4172 74.4477 29.9266 74.2215 30.45C73.9082 31.0046 73.5872 31.5484 73.2695 32.0977C72.9594 32.718 72.6719 33.3577 72.2885 33.9112C71.8965 34.5358 71.5002 35.155 71.1211 35.7926C70.7054 36.4689 70.308 37.1646 69.9515 37.8947C69.552 38.654 69.1665 39.4304 68.7131 40.139C68.264 40.9413 67.8257 41.7533 67.4111 42.5858C66.948 43.5066 66.5086 44.4457 66.0283 45.3513C65.4586 46.3324 64.8738 47.2952 64.2643 48.2364C63.7625 48.9278 63.2488 49.6009 62.7157 50.2524C62.1535 51.0267 61.5957 51.8053 61.0798 52.6292C60.6232 53.2947 60.1634 53.9549 59.7585 54.671C59.2394 55.678 58.7612 56.7129 58.4252 57.8437C58.1162 59.0638 57.7974 60.27 57.1566 61.2898L54.9586 62.4906Z" fill="#364282" fill-opacity="0.15"/>
<path d="M3.35806 47.3662C4.00411 47.3425 4.64315 47.4664 5.2794 47.5816C5.72977 47.6182 6.08504 47.9058 6.47317 48.1427C6.80906 48.3656 6.8782 48.7544 7.04695 49.127C7.14409 49.6095 7.12406 50.1091 7.13903 50.6024C7.14 51.1171 7.13763 51.633 7.13623 52.1488C7.13127 52.6259 6.99149 53.0675 6.89274 53.5187C6.79517 53.9408 6.62631 54.3231 6.48243 54.7184C6.32595 55.1233 6.15763 55.5196 5.99437 55.9202C5.82227 56.2928 5.64814 56.6644 5.47755 57.0381C5.30847 57.3708 5.21543 57.751 5.09524 58.1139C0.451336 60.7502 4.90851 57.5496 6.48189 56.8561C7.25577 56.5082 8.05818 56.2681 8.84337 55.9773C9.41747 55.6058 10.0391 55.5088 10.6619 55.3828C11.3292 55.3204 12.0002 55.3355 12.6689 55.3355C13.5294 55.343 14.3898 55.3451 15.2492 55.3441C15.8846 55.3408 16.5189 55.3387 17.1532 55.3365C17.7272 55.3021 18.2948 55.4184 18.8623 55.5056C19.3265 55.5282 19.7809 55.6068 20.2397 55.6811C20.6823 55.7878 21.1314 55.8061 21.5805 55.8373C21.9703 55.7781 22.3235 55.9558 22.6875 56.0753C23.0332 56.2035 23.2271 56.5653 23.4758 56.8496C23.6018 57.1867 23.8345 57.4236 24.0369 57.6896C24.3449 57.9901 24.3762 58.4305 24.5022 58.8505C24.57 59.3513 24.5549 59.8607 24.5646 60.3658C24.6422 60.8687 24.4386 61.2133 24.3051 61.6301C24.0358 61.8885 24.1037 62.2838 24.0294 62.6198C24.0272 63.0398 24.1823 63.3898 24.2965 63.7678C24.5302 64.2233 24.906 64.5227 25.2431 64.8501C25.6071 65.2755 26.0486 65.4919 26.4902 65.7299C27.0308 65.8742 27.5843 65.8602 28.1335 65.8775C28.6042 65.8764 29.0748 65.8731 29.5465 65.871C30.0515 65.8721 30.5577 65.8699 31.0628 65.8678C31.486 65.8667 31.9081 65.8667 32.3303 65.8667C32.7266 65.9001 33.124 65.8419 33.5128 65.8171C34.0125 65.6987 32.6135 66.4202 32.158 66.7056C32.3131 66.3308 32.3368 65.8968 32.3949 65.4844C32.4025 64.9761 32.6394 64.6261 32.8052 64.205C33.6441 63.0171 34.6145 62.5519 35.7872 61.6968C36.1491 61.3738 36.554 61.2327 36.9686 61.0722C37.3886 60.9182 37.8162 60.8547 38.2491 60.7858C38.9297 60.7071 39.6049 60.7481 40.2823 60.8202C40.8746 60.8536 41.454 60.971 42.0345 61.1088C42.4911 61.3156 42.9391 61.5622 43.3892 61.7938C43.9008 61.8928 44.3283 62.1911 44.7742 62.4862C45.1726 62.7867 45.5151 63.1873 45.8683 63.5653C46.2582 64.0219 46.4703 64.6325 46.7169 65.213C46.9355 65.7848 46.9765 66.4041 47.0378 67.0222C46.9549 67.4282 47.138 67.8762 47.1854 68.1831C47.5795 68.223 47.9177 67.9947 48.2688 67.817C49.7151 67.7039 45.4935 69.9299 47.3706 68.4707C46.1612 69.1793 52.0337 65.2065 50.8749 66.0401C50.2902 66.4601 49.7075 66.8844 49.1228 67.3076C49.5568 66.9059 49.9542 66.4461 50.3612 66.0035C50.6983 65.6879 51.0225 65.3519 51.3477 65.0159C51.6912 64.6627 52.0315 64.303 52.3708 63.9444C53.2646 62.8664 54.2748 62.3042 55.3894 61.4879L53.5252 63.393C57.0295 60.7955 55.2763 61.9575 54.5871 62.7996C54.2522 63.1701 53.9129 63.5319 53.5715 63.8895C53.2506 64.2244 52.9329 64.5711 52.5862 64.8651C52.1618 65.3013 51.7537 65.7579 51.3402 66.2145C50.386 66.9242 49.42 67.719 48.4109 68.3404C48.2117 68.4621 47.6248 68.8498 47.8143 68.7055C48.4045 68.2564 49.0043 67.8267 49.5988 67.3873C48.5434 68.1885 47.5052 69.0458 46.3906 69.7091C45.9566 69.8578 45.5722 70.0807 45.1382 69.8018C45.0251 69.3581 44.8054 68.9682 44.9098 68.4211C44.8635 67.8353 44.8388 67.2484 44.6385 66.7035C44.408 66.1628 44.2109 65.5942 43.8383 65.1775C43.4915 64.807 43.1545 64.4193 42.7614 64.1285C42.322 63.869 41.8902 63.617 41.4077 63.491C40.9683 63.2605 40.5322 62.9988 40.0723 62.847C39.5015 62.7221 38.9329 62.6058 38.3525 62.567C37.6783 62.5196 37.0042 62.4895 36.3311 62.5907C35.9068 62.6876 35.4825 62.7781 35.0646 62.9213C34.6705 63.1205 34.2785 63.3122 33.9155 63.6019C37.4403 60.9893 35.7043 62.1201 35.0108 63.0107C34.8072 63.3951 34.5682 63.659 34.5628 64.1651C34.5025 64.6002 34.4378 65.0375 34.3592 65.4682C33.5548 66.1564 32.7654 67.607 31.5883 67.6415C31.1888 67.6479 30.7892 67.663 30.3897 67.6544C29.9686 67.6544 29.5475 67.6533 29.1254 67.6533C28.6203 67.6522 28.1152 67.6501 27.6102 67.6555C27.1395 67.6587 26.6689 67.6651 26.1972 67.6533C25.6329 67.6231 25.06 67.6318 24.5108 67.4358C24.0606 67.1579 23.6018 66.9059 23.2217 66.4698C22.8534 66.1079 22.4452 65.7816 22.2029 65.2647C22.0748 64.8608 21.9035 64.4828 21.8949 64.0327C21.9208 63.6041 21.8422 63.1981 22.0877 62.8233C22.2395 62.4561 22.5217 62.2633 22.4269 61.7485C22.4215 61.2607 22.4345 60.7707 22.3828 60.2861C22.2762 59.9048 22.2568 59.529 21.9725 59.2608C21.7732 58.9862 21.5212 58.7655 21.4081 58.4079C21.1809 58.1871 21.0011 57.8598 20.692 57.7811C20.3409 57.6982 19.9985 57.5722 19.6345 57.6131C19.1811 57.5701 18.7288 57.5356 18.2818 57.4258C17.8252 57.3687 17.3686 57.3116 16.912 57.2578C16.3498 57.1727 15.7898 57.0736 15.2212 57.1167C14.5934 57.1145 13.9645 57.1124 13.3366 57.1059C12.474 57.1027 11.6125 57.1005 10.75 57.1038C10.0829 57.1091 9.41392 57.0995 8.74968 57.1888C8.14423 57.345 7.54083 57.4871 6.97307 57.8221C6.18078 58.0924 5.3788 58.3347 4.6116 58.7095C1.23609 60.3399 9.8995 55.2816 2.85094 59.2619C2.96466 59.0024 3.22851 58.6535 3.27772 58.2679C3.44755 57.8975 3.61857 57.5291 3.80455 57.1727C3.97524 56.7731 4.14561 56.3768 4.28615 55.959C4.43584 55.5821 4.60707 55.2235 4.72327 54.8239C4.823 54.3942 4.94458 53.9742 4.998 53.5284C4.9994 53.0147 5.00144 52.4999 5.00166 51.9851C4.99154 51.5199 5.00974 51.0493 4.93586 50.5895C4.78455 50.3138 4.76194 49.9401 4.4534 49.8011C4.0866 49.5987 3.74177 49.3488 3.3264 49.3144C2.69155 49.2099 2.0552 49.1076 1.4126 49.1582L3.35806 47.3662Z" fill="#364282" fill-opacity="0.15"/>
<path d="M49.1842 14.8185C48.9634 15.5993 48.65 16.3305 48.3506 17.0671C48.0082 17.9286 47.6862 18.802 47.3459 19.6657C46.9679 20.552 46.5791 21.4286 46.213 22.3225C45.8759 23.3111 45.5011 24.276 45.1037 25.2269C44.7742 25.9356 44.5771 26.7196 44.3553 27.4874C44.1959 28.0765 43.9385 28.6128 43.7059 29.1588C43.4582 29.8103 43.1793 30.4392 42.9025 31.0703C42.6526 31.6712 42.4351 32.2926 42.2133 32.9119C41.972 33.4385 41.7276 33.9629 41.4831 34.4885C41.1428 35.2219 40.9016 36.0156 40.6485 36.8006C40.4073 37.4802 40.151 38.1522 39.9033 38.8285C39.6663 39.4983 39.3971 40.1456 39.1257 40.7928C38.8565 41.4691 38.639 42.1745 38.4171 42.8766C38.1673 43.6617 37.9422 44.4586 37.7031 45.2491C37.5006 45.8629 37.2045 46.4197 36.9374 46.9916C36.666 47.5656 36.4086 48.1503 36.1534 48.7351C35.8282 49.2412 35.4362 49.6763 35.0679 50.1308C34.7513 50.5077 34.384 50.8082 34.033 51.128C33.684 51.4532 33.4353 51.8991 33.1703 52.3256C32.9076 52.7369 32.6039 53.1009 32.3131 53.4789C32.0611 53.7805 31.8274 54.1057 31.5894 54.4234C30.9863 55.3819 31.0757 55.0566 29.6563 56.0862L31.0822 54.6668C29.3742 55.9505 29.2837 56.1766 29.9277 55.314C30.1646 54.9845 30.3983 54.6571 30.646 54.3416C30.9433 53.9776 31.2459 53.6222 31.5162 53.2248C31.7822 52.794 32.0245 52.3277 32.3637 51.9842C32.7105 51.6568 33.0648 51.3316 33.4116 50.9988C33.7756 50.5454 34.1493 50.1017 34.5079 49.6429C34.7696 49.0668 35.0474 48.4971 35.294 47.9059C35.5622 47.3416 35.8626 46.7945 36.078 46.1946C36.3311 45.4128 36.5486 44.6137 36.8006 43.8308C37.015 43.12 37.2303 42.4093 37.4942 41.7254C37.7677 41.0814 38.038 40.4363 38.275 39.7697C38.5205 39.0945 38.7714 38.4236 39.0234 37.7516C39.2786 36.9611 39.522 36.1609 39.8548 35.4157C40.0906 34.8912 40.3071 34.3506 40.5785 33.8531C40.8046 33.2339 41.0254 32.6103 41.272 32.004C41.5445 31.3697 41.8288 30.7451 42.07 30.0914C42.3005 29.5508 42.5471 29.0188 42.7377 28.4534C42.9488 27.6683 43.1599 26.8779 43.4743 26.1466C43.889 25.2065 44.2777 24.248 44.6008 23.2497C44.9562 22.3505 45.3342 21.4696 45.7273 20.5951C46.0665 19.7325 46.3928 18.8623 46.7266 17.9976C47.0206 17.2749 47.3362 16.5588 47.5494 15.792L49.1842 14.8185Z" fill="#364282" fill-opacity="0.15"/>
<path d="M33.7863 51.6384C34.0394 51.4715 32.7869 52.332 33.0346 52.1532C33.2974 51.9647 33.5903 51.8517 33.8671 51.6998C33.4956 52.1844 33.2048 52.7455 32.9086 53.3033C32.718 53.6997 32.5414 54.1089 32.354 54.5052C32.2733 54.7173 32.2722 54.9564 32.2313 55.1804L30.6169 56.1906C30.6503 55.9483 30.6493 55.6963 30.7182 55.4637C30.8991 55.0512 31.0531 54.6161 31.2631 54.2209C31.5593 53.648 31.8576 53.0815 32.214 52.5635C33.1768 51.7666 34.1309 50.8458 35.196 50.2094L33.7863 51.6384Z" fill="#364282" fill-opacity="0.15"/>
<path d="M6.96045 49.1421C7.89554 48.3237 8.91065 47.7098 9.96463 47.1929C10.7288 46.8246 11.5327 46.7201 12.3394 46.6361C13.0577 46.5521 13.7695 46.6329 14.4835 46.7234C15.0855 46.8063 15.6832 46.9377 16.283 47.0464C16.8183 47.1164 17.3578 47.1121 17.8952 47.1218C18.4164 47.1003 18.915 47.3103 19.4137 47.4708C19.9823 47.7411 20.5649 47.9575 21.1421 48.1955C21.5718 48.3635 22.009 48.4831 22.4495 48.5951C22.9104 48.7092 23.3477 48.9278 23.7892 49.1206C24.2641 49.3231 24.612 49.7474 24.9781 50.1534C25.3475 50.6089 25.6501 51.1388 25.9635 51.6557C26.321 52.1823 26.3609 52.8328 26.4557 53.4908C26.573 54.1003 26.8434 54.6054 27.0975 55.1255C27.119 55.118 27.3161 55.5154 27.3226 55.5272L26.4589 56.1669C26.3857 56.0366 26.3286 55.8901 26.2392 55.7738C25.9797 55.2375 25.705 54.7152 25.5801 54.0906C25.4864 53.4509 25.452 52.8166 25.1095 52.3018C24.7972 51.7892 24.4967 51.2647 24.1263 50.8157C23.7687 50.4226 23.4284 50.0155 22.9632 49.8281C22.5238 49.6386 22.0909 49.4254 21.6321 49.3241C21.1906 49.2024 20.7523 49.0775 20.3194 48.9074C19.7443 48.6672 19.166 48.4411 18.5952 48.1826C18.0987 48.0329 17.6055 47.8348 17.0886 47.8638C16.548 47.8509 16.0074 47.852 15.47 47.7766C14.8734 47.6614 14.2778 47.5278 13.6769 47.4503C12.9661 47.3641 12.2575 47.2952 11.5446 47.3792C10.744 47.4718 9.946 47.586 9.19022 47.9618C7.60133 48.762 8.77528 48.0544 7.89317 48.6791L6.96045 49.1421Z" fill="#364282" fill-opacity="0.15"/>
<path d="M7.21032 52.6551C7.87607 52.1059 8.62023 51.786 9.36169 51.4554C10.2534 51.1097 11.1591 50.8297 12.0562 50.5077C12.5365 50.3063 13.0362 50.2643 13.5348 50.2083C13.9386 50.19 14.3425 50.1976 14.7463 50.1976C15.2977 50.162 15.8405 50.2503 16.3865 50.3268C17.0595 50.4646 17.7229 50.6628 18.3917 50.8276C18.9678 50.9126 19.5214 51.128 20.0771 51.3229C20.6931 51.6148 21.3069 51.912 21.9251 52.1985C22.3763 52.3697 22.8405 52.4914 23.2982 52.6239C23.7031 52.8651 24.0197 53.2743 24.3525 53.6437C24.7585 54.026 24.8974 54.5451 25.074 55.1051C25.1117 55.2753 25.1138 55.4519 25.1343 55.6253L24.2491 56.2132C24.2308 56.0452 24.2297 55.8751 24.1952 55.7093C24.0294 55.1676 23.8991 54.6754 23.5038 54.3093C23.1797 53.9528 22.8717 53.5533 22.4722 53.3346C22.0134 53.2086 21.546 53.0966 21.1002 52.9028C20.4852 52.6131 19.8757 52.3094 19.2575 52.0326C18.7029 51.8442 18.1505 51.6385 17.5775 51.5491C16.912 51.3779 16.2497 51.1786 15.5766 51.0548C15.0306 50.9859 14.4878 50.9029 13.9365 50.9428C13.5348 50.9439 13.132 50.9342 12.7303 50.9589C12.2382 51.0225 11.746 51.0742 11.2711 51.2723C10.376 51.5857 9.47358 51.8657 8.58652 52.2157C7.84237 52.5603 7.10112 52.9049 6.42761 53.4488L7.21032 52.6551Z" fill="#364282" fill-opacity="0.15"/>
<path d="M30.8506 59.6561C31.2749 59.0993 31.7649 58.6363 32.2387 58.1495C33.1067 57.3967 34.0318 56.7646 35.0075 56.2713C35.5557 55.9795 36.1286 55.7706 36.6897 55.525C37.3918 55.3969 38.0897 55.2536 38.7843 55.077C39.5381 54.9338 40.2521 54.643 40.9586 54.2963C42.3963 53.4239 40.4352 54.6732 41.44 53.9495C42.1206 53.2183 42.7904 52.9673 43.6046 52.8015C44.1118 52.6938 44.5889 52.8758 45.0778 53.0061C45.5786 53.1547 45.9674 53.5284 46.3809 53.8849C46.802 54.349 47.2564 54.7604 47.7066 55.1761C48.2257 55.6747 48.7469 56.1658 49.267 56.6623C49.728 57.0769 50.1189 57.5895 50.5109 58.0989C50.8738 58.4909 51.1474 58.9819 51.4414 59.4504C51.6223 59.7455 51.8 60.0449 51.9787 60.3421L51.1247 60.9893C50.9449 60.691 50.7715 60.3884 50.5874 60.0944C50.2912 59.6313 50.0134 59.1499 49.658 58.7547C49.2703 58.2496 48.8847 57.7424 48.4281 57.3343C47.9101 56.8356 47.3857 56.3478 46.8666 55.8503C46.4164 55.4324 45.9609 55.0221 45.5387 54.559C45.1317 54.2187 44.7483 53.8601 44.2594 53.7233C43.7747 53.6049 43.3041 53.4401 42.8044 53.5564C41.5326 53.8709 42.462 53.5607 42.3683 53.4886C41.6532 54.0486 40.9672 54.6893 40.1789 55.0759C39.4692 55.4087 38.7509 55.679 38.0003 55.8341C37.3024 56.0043 36.5992 56.1367 35.9003 56.2972C35.3414 56.5406 34.776 56.7592 34.23 57.0424C32.9215 57.7295 34.6241 56.5858 33.1606 57.681C32.691 58.1656 32.1967 58.6147 31.7757 59.1704L30.8506 59.6561Z" fill="#364282" fill-opacity="0.15"/>
<path d="M50.0963 64.3699C49.4114 63.7183 48.6899 63.1336 47.9468 62.5994C47.3372 62.1191 46.7482 61.6022 46.1677 61.0723C45.8759 60.7277 45.5065 60.5963 45.15 60.4079C44.7074 60.2194 44.2572 60.0589 43.8103 59.8888C43.2471 59.6669 42.6774 59.4882 42.1055 59.3105C41.5154 59.2362 40.9349 59.0962 40.3577 58.926C39.8106 58.7236 39.2539 58.5997 38.6939 58.4769C38.2351 58.4037 37.7731 58.4048 37.3122 58.394C36.8157 58.3509 36.3289 58.4231 35.8379 58.4748C35.4039 58.4823 33.7346 59.7682 35.1788 58.7354C34.7771 59.0671 34.4055 59.4516 34.0329 59.8328C33.7982 60.1031 33.5569 60.3669 33.3222 60.6351L32.3874 61.0993C32.6232 60.8365 32.8817 60.5953 33.1068 60.312C33.4772 59.9211 33.8509 59.5345 34.2515 59.192C35.0259 58.6148 35.7474 57.9503 36.6359 57.7188C37.1302 57.6746 37.6234 57.6143 38.1209 57.6509C38.584 57.6649 39.0471 57.6671 39.5069 57.75C40.068 57.8803 40.6259 58.0106 41.1751 58.2088C41.7545 58.3563 42.3306 58.5146 42.9197 58.59C43.4926 58.7742 44.0634 58.9583 44.6299 59.1726C45.08 59.3449 45.5334 59.5076 45.9792 59.6993C46.3379 59.8985 46.7126 60.0385 47.0055 60.3906C47.5817 60.9259 48.1622 61.4493 48.7739 61.9188C49.5223 62.4691 50.2492 63.0625 50.9503 63.7054L50.0963 64.3699Z" fill="#364282" fill-opacity="0.15"/>
<path d="M26.3696 58.4661C26.404 59.347 26.3362 60.2053 26.2188 61.0711C26.1133 61.7916 25.8591 62.441 25.6233 63.099L24.7133 63.6148C24.9545 62.9676 25.2162 62.3322 25.3282 61.6193C25.452 60.7631 25.5296 59.9156 25.4768 59.0422L26.3696 58.4661Z" fill="#364282" fill-opacity="0.15"/>
<path d="M27.9688 59.0175C27.8621 59.9339 27.636 60.8095 27.4088 61.6861C27.2569 62.3613 26.9651 62.9525 26.6915 63.5545L25.7772 64.065C26.0561 63.4705 26.3577 62.8901 26.5117 62.2159C26.7421 61.3522 26.9748 60.4885 27.0717 59.5796L27.9688 59.0175Z" fill="#364282" fill-opacity="0.15"/>
<path d="M29.3472 59.7466C29.0188 60.5683 28.7312 61.4158 28.434 62.2569C28.3306 62.637 28.1906 62.9989 28.0689 63.3694L27.1643 63.896C27.2892 63.5234 27.4378 63.1647 27.5369 62.7792C27.832 61.9403 28.1206 61.0981 28.4329 60.27L29.3472 59.7466Z" fill="#364282" fill-opacity="0.15"/>
<path d="M30.338 61.2952C29.9546 61.9747 29.5723 62.651 29.2169 63.3542C29.0877 63.6332 28.9434 63.9002 28.8055 64.1738L27.8901 64.6778C28.0301 64.4075 28.1798 64.1436 28.3112 63.8647C28.6591 63.1572 29.0403 62.4841 29.4204 61.8035L30.338 61.2952Z" fill="#364282" fill-opacity="0.15"/>
<path d="M31.5129 62.7986C31.444 62.8643 31.3762 62.93 31.3083 62.9957L30.3832 63.4652C30.4489 63.3963 30.5146 63.3284 30.5803 63.2606L31.5129 62.7986Z" fill="#364282" fill-opacity="0.15"/>
<path d="M44.2217 17.5764C44.24 17.6593 44.2572 17.7423 44.2755 17.8252L43.3979 18.4315C43.3774 18.3453 43.3569 18.2592 43.3354 18.172L44.2217 17.5764Z" fill="#364282" fill-opacity="0.15"/>
<path d="M31.4656 40.2737C31.1446 40.4944 30.7914 40.4611 30.4446 40.516L31.2373 39.774C31.5819 39.7007 31.9351 39.718 32.2485 39.48L31.4656 40.2737Z" fill="#364282" fill-opacity="0.15"/>
<path d="M30.8011 41.4679C31.7692 41.5358 32.6911 41.2945 33.6043 40.9122L32.8408 41.6628C31.9114 42.0333 30.9723 42.2616 29.9923 42.2121L30.8011 41.4679Z" fill="#364282" fill-opacity="0.15"/>
<path d="M50.6035 19.2683C51.3757 19.9231 52.1683 19.7906 53.0439 19.6926L52.2609 20.4346C51.3725 20.5143 50.5389 20.6295 49.7603 19.9532L50.6035 19.2683Z" fill="#364282" fill-opacity="0.15"/>
<path d="M73.2954 22.2438C72.9702 22.8792 72.5125 23.3379 72.0677 23.8215L71.1426 24.2867C71.5928 23.8204 72.0505 23.381 72.3779 22.7532L73.2954 22.2438Z" fill="#364282" fill-opacity="0.15"/>
<path d="M63.5503 13.3635C63.756 13.5444 63.9509 13.7437 64.1512 13.9332L63.3102 14.6095C63.1066 14.4189 62.9117 14.2164 62.7006 14.0398L63.5503 13.3635Z" fill="#364282" fill-opacity="0.15"/>
<path d="M49.49 13.9795C49.4932 14.6773 49.7808 15.1178 50.0715 15.6433C50.2966 15.9136 50.5885 15.904 50.8652 15.9987L50.0489 16.7246C49.7582 16.6104 49.4491 16.6061 49.2197 16.3046C48.9235 15.7586 48.6199 15.2912 48.6037 14.575L49.49 13.9795Z" fill="#364282" fill-opacity="0.15"/>
<path d="M50.0694 16.2648C49.7905 16.2895 49.5126 16.2389 49.2358 16.2271L50.0446 15.4948C50.3225 15.5023 50.6014 15.5443 50.8792 15.5184L50.0694 16.2648Z" fill="#364282" fill-opacity="0.15"/>
<path d="M51.1657 15.2933C50.61 15.8727 50.1189 16.5372 49.6224 17.1941L48.7178 17.6766C49.2068 17.0175 49.6946 16.3573 50.2374 15.7683L51.1657 15.2933Z" fill="#364282" fill-opacity="0.15"/>
<path d="M52.1285 15.0586C51.7182 15.2568 51.282 15.2912 50.8545 15.3709L51.659 14.6224C52.0822 14.5309 52.5151 14.4824 52.9211 14.2778L52.1285 15.0586Z" fill="#364282" fill-opacity="0.15"/>
<path d="M49.8669 14.9799C49.2035 14.9412 48.5455 15.0521 47.8875 15.1361L48.6844 14.3866C49.3478 14.3047 50.0101 14.2078 50.6767 14.2336L49.8669 14.9799Z" fill="#364282" fill-opacity="0.15"/>
<path d="M26.5903 8.35247C26.5042 8.72627 26.4018 9.09437 26.292 9.4616C26.2618 9.48712 26.1531 9.43855 26.1843 9.41378C26.7755 8.92324 27.3883 8.46243 28.0151 8.01744C28.6677 7.57989 29.3612 7.20351 30.0505 6.83606C30.1905 7.20609 29.8631 7.63664 29.6757 8.00172C29.4355 8.35764 29.1685 9.06529 29.0683 9.31083C27.8051 10.0107 29.9374 8.40266 30.2594 8.13731C30.7257 7.52034 31.8823 7.15612 32.2506 7.03744C32.1849 7.52798 31.9965 8.00323 31.8414 8.47428C31.7531 8.68008 31.5205 8.79606 31.3223 8.89955C31.8425 8.43346 32.4962 8.10812 33.0777 7.83006C33.1746 8.154 32.9969 8.44401 32.8914 8.74631C31.7897 9.28024 32.6534 8.49344 33.0368 8.01723C33.1822 7.65678 33.7465 7.56891 34.132 7.61791C33.9586 8.25986 33.7777 8.89955 33.6172 9.54517C32.2829 10.3321 33.8305 9.17729 34.1363 8.95243C34.9494 8.36206 35.5212 8.00851 36.2708 8.27203C36.3925 9.18591 36.1695 9.31018 35.3468 9.76971C35.3026 9.19484 35.2875 9.34357 36.1846 8.94791C36.3548 9.35014 36.2202 9.78134 36.1502 10.1985C36.2557 10.283 36.8965 9.91089 37.1258 9.81451C37.87 9.56681 38.6066 9.36155 39.3335 9.62884C39.5252 9.99855 39.3142 10.2321 39.1698 10.5656C37.8442 11.256 38.948 10.157 39.2388 9.79038C40.4923 9.19323 39.7158 10.2896 39.4865 10.8909C38.9168 11.2775 39.1591 10.9727 39.7148 10.3164C40.3458 9.53924 41.0889 9.07175 41.9752 8.63807C42.3672 9.14854 42.0711 9.75807 41.9009 10.3508C41.7631 10.9964 41.3205 11.0147 41.048 11.103C41.2171 10.7603 41.7879 10.836 42.1691 10.8607C42.1152 11.4089 41.9462 11.9344 41.7922 12.4589C40.5419 13.1557 41.5822 12.3383 41.8891 12.097C42.8174 11.5338 42.9994 11.2721 43.1297 12.1272C43.0242 12.5257 42.7829 12.8584 42.5772 13.2041C40.9425 13.7232 43.0866 12.6086 43.1491 12.5795C43.1749 12.8326 43.2945 13.2278 43.3278 13.3764C43.7188 13.2095 44.1334 13.1643 44.5372 13.0943C44.9572 13.3624 44.8442 13.6295 44.7925 14.07C44.7063 14.1938 44.7182 14.3306 44.6815 14.4577C44.5889 14.8044 44.3908 15.1124 44.2239 15.428C44.2755 15.3709 44.5598 15.624 44.6503 15.6627C44.8075 15.9589 44.8409 16.297 44.9045 16.6201C44.8474 16.703 44.7085 16.6707 44.6105 16.6955C46.2269 16.367 44.8495 16.5986 45.3977 16.3767C45.78 16.6341 45.7305 17.0272 45.7477 17.4634C45.7811 17.7584 45.6454 18.0126 45.57 18.2786C45.5474 18.3615 45.4828 18.4175 45.4397 18.4864L44.7311 18.8074C44.7763 18.7406 44.8065 18.6674 44.8668 18.6081C44.9508 18.3497 45.0972 18.1052 45.0682 17.8101C45.0563 17.445 45.1231 17.0423 44.7914 16.8592C44.968 16.6977 45.0897 16.4381 45.3202 16.3746C45.0229 16.59 44.6622 17.3223 44.2249 16.9938C44.1668 16.6794 44.1366 16.3477 43.9869 16.058C43.8329 15.9794 43.5659 15.891 43.5185 15.7424C43.6843 15.4355 43.8803 15.135 43.9848 14.8012C44.0225 14.6677 43.9826 14.5266 44.0989 14.4017C44.1614 13.9978 44.2831 13.7867 43.9148 13.5444C43.5088 13.6295 43.0952 13.7329 42.6849 13.8094C42.63 13.6037 42.4448 13.3258 42.5115 13.0221C43.7586 12.167 42.2218 13.4335 41.8578 13.5035C42.0732 13.174 42.3338 12.8584 42.4405 12.4621C42.1766 12.1326 42.294 11.8946 42.5998 11.816C42.112 12.1832 41.6608 12.7174 41.0943 12.7949C41.2548 12.2747 41.4314 11.7567 41.4874 11.2107C41.636 11.0384 42.35 10.1065 41.7566 10.7929C40.8703 11.3464 40.8315 11.4789 41.216 10.6731C41.3679 10.16 41.6651 9.54915 41.3635 9.10406C42.5202 8.30488 40.5849 9.63487 40.4105 10.0219C40.0206 10.4877 39.2517 11.5661 38.7918 11.2118C39.0837 10.4623 39.1451 9.86092 39.9517 9.4994C39.48 10.0626 39.2108 10.6227 38.4558 10.8694C38.6002 10.5914 38.8295 10.3778 38.6863 10.0438C37.9659 9.94869 37.2562 9.94331 36.5325 10.281C36.19 10.4321 35.6871 10.8446 35.4598 10.5373C35.5266 10.1591 35.6494 9.76088 35.5438 9.38524C37.4026 8.17015 35.5955 9.25591 35.9563 9.29198C35.0108 9.88278 35.7237 9.38815 35.6063 8.66069C34.8331 8.68578 35.2391 8.37035 34.8385 8.6762C34.2182 9.11903 33.6054 9.78295 32.9248 9.87891C33.0949 9.23588 33.2758 8.59521 33.4438 7.95154C33.7734 7.62372 34.4798 6.80311 33.7368 7.72075C33.2672 8.2982 32.8935 8.91323 32.1882 9.07735C32.2862 8.81544 32.4251 8.55849 32.4391 8.27408C33.558 7.56568 32.3443 8.33783 32.0342 8.61374C31.6971 8.79961 30.674 9.59944 31.1489 8.7994C31.3029 8.34214 31.4612 7.88207 31.5743 7.41437C32.1871 6.84263 31.5108 7.40306 30.954 7.8572C30.1431 8.52963 29.3677 9.26678 28.4254 9.7472C28.4825 9.34152 28.6806 8.7504 28.9843 8.31177C29.134 8.02229 29.3903 7.56137 29.4409 7.31152C29.1986 7.45518 28.9542 7.59346 28.7162 7.74251C28.0894 8.18124 27.4809 8.63904 26.8929 9.12775C26.5483 9.36328 25.8591 10.2564 25.5931 9.79394C25.7083 9.43037 25.8117 9.06551 25.8957 8.69246L26.5903 8.35247Z" fill="#364282" fill-opacity="0.15"/>
<path d="M22.5432 15.1749C23.0418 14.4835 23.6471 13.8783 24.2458 13.2752C24.8188 12.7314 25.4003 12.1961 26.0324 11.7234C27.1051 10.9523 26.8908 11.382 26.6743 12.0421C26.5117 12.4406 26.3017 12.8186 26.1078 13.2031C26.012 13.4475 25.676 13.5488 25.4143 13.58C25.9635 12.768 26.5968 12.3501 27.4195 11.9721C27.6328 12.4385 27.4766 12.95 27.3872 13.44C27.3441 13.6166 27.0544 13.5886 26.8875 13.664C27.1837 12.9586 27.6521 12.8929 28.2703 12.6926C28.4921 13.1266 28.5115 12.9478 28.8971 12.964C29.3203 12.74 29.7532 12.6808 30.2044 12.6377C30.478 12.7863 30.4629 13.0415 30.5351 13.3118C30.7483 13.4443 31.0315 13.3345 31.2738 13.2946C31.7412 13.3183 31.7132 13.426 31.8608 13.8266C31.7068 14.2531 32.074 13.9548 32.2183 14.0409C32.3831 14.2014 32.6081 14.1411 32.7697 14.182C33.152 14.0905 33.152 14.3381 33.3577 14.5837C33.4104 14.6461 33.404 14.7301 33.4255 14.8023L32.7201 15.1361C32.7137 15.1017 32.7557 15.022 32.6857 14.9628C32.4757 14.7269 32.5198 14.5632 32.1547 14.6537C31.9771 14.6041 31.7703 14.5955 31.5948 14.4975C31.4881 14.4178 30.968 14.6117 31.178 14.1831C31.0003 13.8503 31.1295 13.7415 30.6589 13.7577C30.3606 13.7965 30.0871 13.9106 29.8544 13.6812C29.7963 13.4454 29.8211 13.1988 29.5734 13.0825C29.1329 13.1471 28.7032 13.2321 28.2897 13.4368C27.9386 13.3668 27.8018 13.5434 27.6166 13.1072C28.4189 12.4428 27.8869 12.7572 27.5864 13.3485C27.3377 13.5628 26.432 14.6892 26.6991 13.7738C26.7841 13.328 26.9317 12.8509 26.7841 12.4137C27.6661 11.7374 26.3954 12.8143 26.1143 13.2774C25.6684 13.5865 24.7864 14.4135 25.4068 13.5197C25.6006 13.1363 25.8117 12.7605 25.9786 12.3631C26.1778 11.7848 26.1251 11.7385 26.7475 11.4455C26.0981 11.9032 25.5155 12.446 24.934 12.9898C24.3417 13.5843 23.744 14.182 23.2518 14.8648L22.5432 15.1749Z" fill="#364282" fill-opacity="0.15"/>
<path d="M22.1792 16.3519C21.9261 16.9959 21.7592 17.6636 21.602 18.3356C21.6084 18.4218 21.6246 18.5079 21.6354 18.5941C22.1501 17.8209 22.5314 17.4332 23.3832 17.0918C23.4801 17.2878 23.1118 17.4676 22.9061 17.5387C23.5211 16.9442 23.8011 16.5199 24.192 17.3524C24.3298 18.1235 24.71 17.9124 25.3152 17.7067C25.9657 17.3664 26.2004 17.3901 26.6861 17.8241C27.1589 17.9135 27.6737 17.4978 28.1034 17.2565C28.742 16.8925 28.7624 17.109 28.868 17.6733C28.6031 18.1547 29.0112 17.8241 29.0769 17.893C29.2147 18.0696 29.4 18.2452 29.5324 18.4121C29.8534 18.4767 30.1355 18.6382 30.4284 18.7729L29.7866 19.1939C29.4904 19.0636 29.2018 18.9129 28.8852 18.8342C28.7581 18.6759 28.5837 18.5047 28.4544 18.355C28.4394 18.3367 27.8309 18.4056 28.1809 18.0169C28.1141 17.4719 28.084 17.4202 27.5154 17.7315C27.0447 17.991 26.5397 18.4272 26.0238 18.2172C25.5618 17.8273 25.3227 17.8639 24.7186 18.1719C24.0757 18.3658 23.6632 18.5144 23.52 17.7185C23.296 17.2102 23.8258 16.5673 23.6137 17.2339C23.3111 17.4472 22.6132 18.2096 22.7231 17.501C24.1597 16.6179 22.5217 17.7595 22.3321 18.3022C21.7829 18.7222 20.8567 19.8358 20.9203 18.6652C21.0743 17.9932 21.2455 17.3255 21.4781 16.675L22.1792 16.3519Z" fill="#364282" fill-opacity="0.15"/>
<path d="M19.4148 20.4022C19.4202 21.1518 19.278 21.8895 19.1402 22.6228C19.0454 23.4585 18.4854 23.5199 18.3045 23.5565C18.8246 22.8738 19.4331 22.2642 20.0329 21.6515C21.0959 20.9913 21.1002 21.1711 20.6683 22.0564C20.5466 22.4958 19.2619 23.2011 19.9845 22.3805C20.5175 21.7107 21.2509 21.3435 21.9079 21.0796C21.9305 21.617 21.6817 22.1307 21.5083 22.6347C21.7883 22.5302 21.0603 22.9491 21.9369 22.2556C22.6972 21.7678 23.2637 21.1485 23.2163 22.261C23.3025 23.0655 22.736 23.1042 22.694 23.115C23.2411 22.3062 23.8129 21.8464 24.6842 21.4307C24.9125 21.9013 24.7628 22.4236 24.6874 22.9255C24.2728 23.4736 24.0854 23.4295 24.7143 22.7715C25.3486 22.3095 25.8968 21.7451 25.9194 22.8113C25.8074 22.9771 26.0669 23.185 26.1412 23.3713C25.0331 23.8936 26.4115 23.0773 27.0254 23.4736C27.3571 23.7493 27.4799 23.6761 27.8611 23.5738C27.3894 23.7299 28.0754 23.5361 28.6365 23.3799C28.6612 23.6351 28.2208 23.731 27.9666 23.7558C28.126 23.1344 28.8185 23.1904 28.9854 23.1688C28.8939 23.9464 28.9574 23.9044 28.1379 24.2641L28.8131 23.8785C27.7889 24.4924 28.2455 24.2371 28.2962 23.5156C28.8195 23.1031 29.1523 22.6907 28.6655 23.4305C28.4114 23.6222 27.6597 24.4364 27.9505 23.7418C29.0425 22.9233 27.9548 23.7299 27.2569 24.0476C26.8649 24.1079 26.698 24.1822 26.3706 23.8818C25.2431 23.4747 27.3872 23.0396 25.5371 23.8516C25.4143 23.6782 24.9889 23.787 25.2366 23.157C25.2086 22.639 25.9032 21.7107 25.4165 22.4775C25.0729 22.8425 24.3482 23.8215 23.9992 23.2615C24.0714 22.8113 24.2049 22.3321 24.0639 21.8905C25.3099 21.0484 23.5555 22.3428 23.4015 22.8178C22.5615 23.3196 22.3429 23.6448 22.5325 22.6013C22.5282 22.1511 22.7457 21.4511 22.6369 21.9735C22.1674 22.3525 21.2262 23.3465 20.8137 22.961C20.9839 22.4818 21.1874 22.0015 21.2542 21.4953C22.3365 20.6951 20.9515 21.7355 20.6877 22.0887C20.314 22.331 19.208 23.2615 19.9726 22.3676C20.1094 22.093 20.7986 20.8147 20.7329 21.3618C20.132 21.9659 19.5203 22.5679 19.0109 23.2539C18.0051 23.8559 18.1085 23.9173 18.4606 22.9513C18.6017 22.2265 18.7503 21.4964 18.7266 20.7533L19.4148 20.4022Z" fill="#364282" fill-opacity="0.15"/>
<path d="M15.9255 26.2177C15.54 27.1298 15.1599 28.042 14.8163 28.9713C14.7323 29.3741 14.4706 29.722 14.2434 30.0666C15.0102 29.1867 15.8426 28.3683 16.6352 27.5143C16.9142 27.0383 18.1149 26.1541 17.5808 27.273C17.3729 27.692 17.1834 28.1217 16.9949 28.5492C15.6272 29.3795 17.3105 27.5487 17.6034 27.1826C18.2388 26.5644 19.0314 25.7093 18.9517 27.0727C18.7815 27.8104 18.4929 28.5137 18.2022 29.2061C16.7677 30.0278 18.0815 28.1152 18.3583 27.581C18.6179 26.922 19.6603 26.0217 19.4525 27.301C19.3071 27.931 19.1122 28.546 18.8806 29.148C17.6809 29.6735 18.5931 28.4706 18.8311 27.9386C19.9995 27.3947 19.4805 28.3177 19.3082 28.9703C18.4391 29.4592 19.0831 28.8798 19.6226 28.35C20.1449 27.5401 21.1066 27.5283 21.6182 27.4658C21.7959 28.2649 21.9445 28.0517 21.1842 28.4146C21.4879 27.552 21.616 27.3721 22.4991 27.0598C22.5852 27.4723 22.512 27.9084 22.4829 28.323C21.4502 28.9477 22.456 28.0215 22.7974 27.6866C24.1091 26.7077 23.9734 27.8761 24.066 28.8852C24.1306 29.092 24.0423 29.317 24.0294 29.5335C24.1489 29.1437 24.7402 29.051 25.1472 29.0392C25.2248 29.3644 25.3626 29.218 25.6975 29.1587C26.2479 29.0672 26.0206 29.3073 26.2339 29.5712C26.2252 29.596 26.2177 29.6207 26.2091 29.6466L25.5005 29.9643C25.5145 29.9492 25.5274 29.9341 25.5414 29.919C25.4197 29.8404 25.5532 29.3537 25.0859 29.624C24.6615 29.6627 24.5948 29.7693 24.4569 29.3849C24.7908 29.0866 25.4219 28.3866 24.7294 29.2309C23.9562 29.8393 23.4575 30.5081 23.3994 29.2309C23.3272 28.4598 22.8459 27.7081 23.5049 27.399C22.9589 27.9127 22.5529 28.5524 21.798 28.6838C21.826 28.2843 21.8895 27.8621 21.8346 27.4593C23.0591 26.6495 21.9929 27.4001 21.8917 28.1023C20.8859 28.8033 21.1529 28.6784 20.9537 27.8546C21.2499 27.2612 21.0431 27.3 20.3162 28.0635C19.8574 28.5137 19.1143 29.4355 18.6125 29.3009C18.8246 28.5481 18.7385 28.0237 19.5311 27.6187C19.1639 28.4092 19.0497 29.0909 18.1634 29.456C18.4337 28.8809 18.6394 28.2627 18.7729 27.6295C18.9119 26.8132 19.9489 26.0701 19.0411 27.273C18.5963 28.1335 18.4262 29.1264 17.4903 29.5109C17.8059 28.8443 18.1139 28.1443 18.2722 27.4055C18.3325 26.7055 19.0325 25.9818 18.2926 26.8886C17.6702 27.6586 17.2814 28.561 16.3089 28.9207C16.4791 28.4932 16.66 28.0097 16.8872 27.5853C17.2211 26.9187 18.3745 26.1767 17.3255 27.2246C16.534 28.0764 15.6972 28.8873 14.9423 29.7737C13.7566 30.5663 13.6349 30.6438 14.1411 29.2847C14.4825 28.3629 14.8594 27.455 15.2266 26.5429L15.9255 26.2177Z" fill="#364282" fill-opacity="0.15"/>
<path d="M12.2231 32.789C12.1811 33.4244 12.0637 34.0501 11.9205 34.6671C11.1515 35.3801 11.1515 35.1668 11.8461 34.371C12.4169 33.7981 13.0211 33.2596 13.6058 32.705C14.9078 32.1956 13.874 33.5622 13.6005 34.1405C12.7992 34.9999 12.8272 34.5347 13.4411 33.643C14.0237 32.7621 14.7172 32.4659 15.5669 32.2161C15.7737 32.6964 15.7134 33.2316 15.7015 33.7431C15.9008 33.9736 15.0231 34.4001 15.7166 33.6301C16.156 33.0927 17.0348 32.0556 17.0584 33.3038C16.9464 33.7022 16.8431 34.8448 16.8431 34.847C15.7004 35.4393 17.6012 33.8368 17.9221 33.5611C18.8375 33.0055 19.0368 32.6802 19.3857 33.5805C19.4718 33.9122 18.8612 34.0727 18.5263 34.1448C18.6135 33.8519 19.1294 33.9855 19.4331 34.0178C19.6032 34.3635 19.9651 34.0824 20.3226 33.9628C21.0205 33.6344 21.3091 33.7324 21.8561 34.0813C22.106 34.7404 22.3451 34.4313 21.5901 34.7974C21.7345 34.6381 21.7991 34.4281 21.9025 34.245L22.5852 33.8691C22.5131 34.0544 22.4711 34.3258 22.2988 34.4927C21.4458 35.0807 21.4965 35.2271 21.196 34.4722C20.6748 34.1739 20.3657 34.1255 19.7228 34.4291C19.2468 34.5842 18.9948 34.791 18.7481 34.371C18.8149 34.2859 19.2338 33.0431 19.2155 33.7916C19.0561 33.9241 18.4789 34.6456 18.7083 33.9413C18.5166 33.4125 18.6038 32.9958 18.6243 33.2801C17.8134 33.9585 17.1511 34.7878 16.2325 35.323C16.2152 35.0354 16.0871 34.1674 16.38 33.643C16.4123 32.8213 17.3729 32.341 16.4155 33.3339C16.1054 33.6947 15.274 34.7975 15.0166 34.0888C15.0338 33.6021 15.0909 33.0948 14.9175 32.6318C15.7478 31.7207 14.4674 32.8622 14.1303 33.3447C13.9408 33.6171 12.4837 35.645 12.9112 34.455C13.2978 33.6365 13.4583 32.8428 14.3241 32.4196C13.7264 32.9645 13.1115 33.503 12.5397 34.0791C12.3275 34.3247 11.1483 35.8119 11.2312 34.9945C11.3831 34.3861 11.5037 33.7679 11.5371 33.139L12.2231 32.789Z" fill="#364282" fill-opacity="0.15"/>
<path d="M11.0826 37.282C10.7051 38.0014 10.41 38.7617 10.1056 39.5144C9.91145 40.4643 9.40099 40.6861 9.23558 40.7163C9.72364 40.0217 10.2767 39.3906 10.8812 38.7972C11.9474 38.1801 12.0378 38.318 12.2026 39.3228C11.8311 39.8106 12.2392 39.1041 12.7325 38.4418C13.1481 37.3908 13.9655 37.7537 14.0097 37.7601C13.8051 38.5344 14.0226 38.3589 13.3409 38.7272C13.9634 38.2286 14.5395 37.9572 15.2051 38.0283C15.4205 38.4408 15.3149 38.8608 15.2406 39.2937C14.126 39.8871 15.1297 39.0848 15.5055 38.7584C16.7763 38.0111 16.7074 39.0341 16.8571 40.0152C17.1963 40.46 16.2583 40.8498 16.9098 39.9635C17.262 39.1623 18.0848 39.1978 18.6329 39.0977C18.2797 39.6652 20.9408 38.2728 18.2183 39.5629L18.9269 39.2474C16.5286 40.7443 18.8138 39.4854 17.9792 39.508C18.0697 39.326 18.2377 38.6809 17.6034 39.6598C17.2738 40.1401 16.4909 41.286 16.1851 40.3684C16.072 39.5898 15.5292 38.892 16.2174 38.4774C15.6886 38.9135 15.1975 39.5274 14.5449 39.6361C14.6257 39.2301 14.7409 38.8349 14.5546 38.4386C13.5875 38.4537 14.8906 38.0294 14.0614 38.4483C12.9705 39.0621 13.1018 38.9523 13.3205 38.0918C13.9052 37.4855 14.1992 37.0752 13.4195 38.1457C12.9134 38.8231 12.3771 39.8192 11.5252 39.6803C11.4477 39.1741 11.3906 38.1478 11.5834 38.5118C10.9717 39.0923 10.411 39.7115 9.9401 40.4169C8.70799 41.1514 9.00942 40.9241 9.42576 39.8278C9.72859 39.0804 10.0189 38.3234 10.3777 37.6008L11.0826 37.282Z" fill="#364282" fill-opacity="0.15"/>
<path d="M36.89 15.5658C36.6326 16.2905 36.3569 17.0078 36.0909 17.7282C36.1146 18.3615 34.7846 19.1605 35.6117 18.1719C36.106 17.4816 36.6272 16.8118 37.1312 16.129C37.7515 15.5388 38.3751 14.9648 38.1683 16.1699C38.1392 16.6276 37.5674 17.613 37.5178 17.7045C36.2298 18.4444 38.1231 16.4908 38.4192 16.1387C38.8554 15.0908 39.8634 15.3041 39.8978 15.3052C39.5446 16.3788 39.0761 17.4095 38.6518 18.4562C38.5388 18.8472 38.1985 19.1455 37.8883 19.4104C38.4677 18.8181 39.0826 18.2624 39.7223 17.7379C40.8035 16.9733 40.9026 17.2921 40.9134 18.2839C40.9338 19.0281 40.5397 19.0701 40.2565 19.1724C40.5278 18.4336 41.5434 18.6522 41.5606 18.6501C41.6069 19.1099 41.4572 19.5396 41.3517 19.9768C39.6275 20.6198 41.594 19.5062 41.6629 19.4782C41.6963 19.8444 41.7825 20.189 41.8912 20.5207C42.1389 20.7027 42.1249 20.9741 42.2035 21.2379C42.2649 21.5061 42.2186 21.7688 42.2057 22.0338C42.0861 22.5248 41.9085 23.0008 41.7566 23.4833C41.3431 23.8699 40.8875 24.1575 41.2117 23.4553C41.4378 23.1818 41.6952 22.933 41.9386 22.6745C42.1841 22.1619 42.7355 22.3062 43.078 22.1695C43.0941 22.1555 43.1103 22.1404 43.1275 22.1253L42.5234 22.6142C42.5008 22.6218 42.4781 22.6293 42.4566 22.6368C42.5201 22.5496 42.5449 22.3482 42.6483 22.3773C42.4071 22.6358 42.1605 22.8888 41.9181 23.1452C41.7448 23.2948 41.0372 24.5301 41.062 23.8096C41.216 23.3304 41.3937 22.8576 41.5121 22.3687C41.5218 22.1145 41.5854 21.8561 41.5208 21.5965C41.4486 21.3424 41.4637 21.0925 41.2268 20.917C41.1148 20.581 41.0081 20.2439 40.9931 19.8713C42.3651 18.9419 41.02 20.2558 40.6474 20.3096C40.7648 19.8821 40.9317 19.4653 40.8811 19.0098C41.0749 18.7707 41.5477 18.0847 40.9694 18.8741C40.0594 19.3802 40.0561 19.5288 40.2328 18.6253C40.2349 17.8855 39.8278 17.7552 40.4298 17.4568C39.7826 17.9716 39.1666 18.523 38.5915 19.1185C37.4231 19.8982 37.4145 19.9768 37.9788 18.7664C38.4009 17.7293 38.8618 16.7052 39.2097 15.639C39.9118 14.9067 39.8214 14.9153 39.1063 15.8468C38.4128 16.6707 37.8215 17.6055 36.9105 18.1924C37.0472 17.7864 37.2895 17.0164 37.4845 16.4984C37.5803 16.0159 38.3697 15.0036 37.828 15.8275C37.3218 16.5102 36.7941 17.1768 36.3063 17.8725C35.9326 18.3755 34.7426 19.2252 35.4049 18.047C35.672 17.3319 35.9477 16.6201 36.1921 15.8975L36.89 15.5658Z" fill="#364282" fill-opacity="0.15"/>
<path d="M34.0577 21.0764C33.7637 22.0963 33.39 23.0881 33.0282 24.0853C33.0982 24.7509 31.5818 25.6943 32.4606 24.6938C33.1811 23.758 34.0717 22.9847 34.9612 22.2169C35.7969 21.7463 36.4194 21.2153 36.176 22.3709C35.98 22.9266 35.6483 23.4155 35.3338 23.9066C33.6851 24.6227 35.8422 23.5103 36.246 23.3196C36.6585 23.4467 36.5443 23.5867 36.4969 24.0218C36.4215 24.2878 35.9757 24.2533 35.7 24.2512C36.6843 23.7536 36.5163 24.291 36.7015 25.032C36.7338 25.145 36.8243 25.1041 36.8394 25.1127C36.6358 25.2193 36.4388 25.3346 36.2309 25.4304C35.9498 25.5596 36.7543 25.1009 37.0235 24.948C37.1711 25.187 37.3746 24.9296 37.5265 24.9221C37.9465 24.8316 37.8485 24.9523 38.0315 25.2969C38.1597 25.4746 38.3729 25.5876 38.5538 25.7093C38.7897 25.8106 39.0697 25.8429 39.3292 25.8795C39.6512 25.873 39.844 26.0669 40.0992 26.195C40.2705 26.4718 40.544 26.615 40.782 26.7949C40.8175 26.8476 40.9209 26.7389 40.9338 26.7324L40.3275 27.217C40.2651 27.2203 40.2058 27.2741 40.1402 27.2278C39.9 27.035 39.6265 26.8746 39.4455 26.6021C39.1989 26.4912 38.9922 26.3178 38.6928 26.3167C38.4235 26.2769 38.1285 26.264 37.8969 26.1175C37.7031 25.9872 37.4748 25.8773 37.3531 25.6706C37.2389 25.5995 37.2486 25.0255 36.9245 25.4067C36.7651 25.4121 36.5745 25.5747 36.4118 25.4283C37.8926 24.5323 36.3472 25.8515 36.0274 25.4046C35.8411 24.6486 35.5395 24.3869 36.3989 23.912C36.26 24.0466 35.5482 25.0406 35.8034 24.3546C35.8572 24.0046 36.008 23.8333 35.6451 23.7956C34.174 24.5118 36.4592 23.3918 34.6242 24.2092C34.9494 23.7289 35.2897 23.2507 35.4868 22.6961C35.5794 22.3407 35.8702 21.3586 35.658 21.9358C34.7652 22.695 33.8682 23.4564 33.1563 24.3976C32.6749 25.0093 31.5722 25.635 32.3529 24.4009C32.7158 23.4112 33.0971 22.4258 33.3609 21.4038L34.0577 21.0764Z" fill="#364282" fill-opacity="0.15"/>
<path d="M31.0714 27.0028C30.6697 27.7599 30.3337 28.5503 29.9686 29.3246C29.4603 29.8889 28.9348 30.1539 29.5443 29.2202C29.8868 28.3683 30.7731 28.3479 31.2577 28.2531C31.3072 28.4911 31.5043 28.9488 31.5388 29.0532C30.2185 29.932 31.7078 28.4308 31.9631 28.1551C32.6017 27.454 33.6883 27.1654 34.3883 26.9349C34.5132 27.4249 34.2268 27.818 33.9974 28.2412C33.8552 28.5729 33.4105 28.7312 33.0508 28.77C33.6851 28.2186 33.9166 27.9332 34.1718 28.728C34.2138 29.0349 34.1083 29.4969 34.0674 29.7199C32.4638 30.4349 34.8643 29.1232 35.0937 29.0026C35.7215 29.0414 35.6666 29.428 35.672 29.9988C35.5611 30.8539 35.6052 30.9497 34.7491 31.2609C34.8126 30.6589 35.5266 30.856 35.6418 30.8496C35.6311 31.2071 35.6117 31.57 35.5934 31.9243C35.7948 31.8597 35.9057 32.1472 36.0306 32.2743C36.2912 32.7288 36.1943 32.4262 36.5874 32.4617C36.6445 32.4359 36.7015 32.4089 36.7575 32.3831L36.1555 32.8612C36.0985 32.8871 36.0403 32.914 35.9832 32.9399C35.6085 32.9183 35.5686 33.0939 35.3661 32.6663C35.2121 32.5436 35.1206 32.3239 34.9063 32.2894C34.9257 31.934 34.9418 31.5689 34.9612 31.2092C35.1152 31.0574 35.8228 30.1743 35.4415 30.9077C34.2806 31.5969 34.944 31.15 34.9914 30.3412C34.9946 29.7522 35.0592 29.5389 34.4928 29.4765C34.1298 29.6951 33.7658 29.9105 33.4051 30.1323C33.4417 29.82 33.4966 29.4237 33.4934 29.0823C33.5526 28.9746 33.8197 27.6554 33.7561 28.4523C33.3286 28.7646 32.718 29.3289 33.2995 28.5536C33.5085 28.1756 33.7885 27.7965 33.7389 27.3539C33.6775 27.3732 33.46 27.0297 32.6588 27.8665C32.0848 28.4749 31.7025 29.1663 30.9066 29.5056C30.8161 29.2719 30.6417 28.9499 30.5954 28.6472C30.8097 28.2897 30.8345 28.0108 30.24 28.9154C30.0763 29.1674 28.9035 30.5739 29.2783 29.6369C29.6498 28.8691 29.9891 28.0851 30.3692 27.3205L31.0714 27.0028Z" fill="#364282" fill-opacity="0.15"/>
<path d="M28.3931 32.5295C27.9397 33.5925 27.4497 34.6382 26.9877 35.6968C26.5365 36.9783 26.3297 37.1894 25.6943 36.9934C25.9399 36.1275 26.3416 35.3306 26.7853 34.5542C27.0717 33.7798 27.9753 33.9392 28.224 33.9177C28.2876 34.3894 28.182 34.8611 28.1142 35.3252C26.6506 36.1491 28.4954 34.454 28.8066 34.1665C29.4 33.8003 30.4263 32.5629 30.3197 33.8509C30.044 34.4906 29.6876 35.0915 29.372 35.7108C29.2439 35.9951 28.8196 36.1092 28.5105 36.0737C28.9423 35.3425 29.5314 35.0668 30.2853 34.7125C30.5943 35.1852 30.407 35.7258 30.2896 36.2546C29.5766 36.9202 29.7091 36.6057 30.2896 35.9326C30.8851 35.3995 31.6486 34.4206 32.059 35.4674C32.1257 36.1437 31.9448 36.7748 31.6993 37.3929C30.7462 37.968 30.8399 37.8011 30.995 37.0882C31.8877 36.4775 31.8446 36.5928 31.7886 37.3186C31.6486 37.5555 31.3062 37.6342 31.0316 37.6471C31.472 37.1463 32.3422 36.9783 32.7773 36.8286C33.0368 37.2755 32.9636 37.7752 32.9506 38.2695C32.9474 38.5172 31.9588 38.9211 33.5526 38.0369C33.9996 38.2114 33.8273 38.528 33.7163 39.0029C33.6485 39.2075 33.3523 39.2969 33.137 39.2905C33.1725 39.2463 33.207 39.2022 33.2425 39.1591L33.95 38.8554C33.9156 38.8995 33.8811 38.9437 33.8456 38.9878C33.5451 39.2022 32.5813 40.1477 33.0271 39.3335C33.1122 38.9771 33.3523 38.5722 32.9517 38.5162C34.0631 37.8442 32.5274 38.6594 32.2625 38.612C32.2829 38.1468 32.3648 37.6751 32.129 37.2486C31.7488 37.3412 32.703 36.6498 31.7391 37.3434C31.5259 37.4952 30.6342 38.3525 31.0962 37.6535C31.1608 37.1043 31.2297 36.8512 31.6939 36.7629C31.5571 37.2863 31.4053 37.6643 30.9982 37.7085C31.2642 37.1108 31.4483 36.4969 31.387 35.8292C30.912 35.1863 31.8791 34.9074 30.9853 35.6397C30.6676 36.0102 29.8523 37.1775 29.5982 36.5831C29.7123 36.12 29.8986 35.6009 29.666 35.1734C30.842 34.3668 29.3473 35.3295 29.2105 35.7582C28.882 36.0317 28.0786 36.8835 28.6774 36.0274C28.9919 35.4092 29.344 34.8105 29.6316 34.1794C29.9202 33.7206 30.253 33.0002 29.5002 33.8822C28.8013 34.5186 28.3457 35.35 27.4185 35.6677C27.4928 35.2143 27.6037 34.7555 27.551 34.2946C27.7674 34.0071 28.1379 33.3469 27.4777 34.2472C27.0276 35.014 26.6194 35.8023 26.3771 36.6649C25.144 38.0455 25.9517 37.0709 26.3136 36.0048C26.7766 34.9537 27.2666 33.9145 27.6953 32.8483L28.3931 32.5295Z" fill="#364282" fill-opacity="0.15"/>
<path d="M25.8085 39.1655C25.732 39.7341 25.5382 40.2694 25.3282 40.7992C24.9286 41.2472 24.2943 41.4981 25.0471 40.8218C25.6308 40.2565 26.5408 39.9538 27.1729 39.6878C27.3862 40.2101 27.1729 40.7045 27.0038 41.2149C26.4525 41.6898 26.1175 41.8094 26.6883 41.1029C27.2386 40.5709 27.7394 39.9215 27.958 40.9263C27.7469 41.398 28.2402 41.7351 28.2735 41.7986C27.7243 42.0086 28.5611 41.678 29.3289 41.3894C29.5637 41.6974 29.5465 42.0894 29.5798 42.4609C29.0134 42.798 29.0737 42.6968 30.0978 42.1314C30.3983 42.2692 30.4134 42.5654 30.4952 42.8637C30.5738 43.0834 30.8248 42.9143 30.9788 42.938C31.3686 42.9294 31.598 43.1469 31.8845 43.3655C31.9254 43.4614 32.0212 43.4226 32.0891 43.4517L31.4515 43.89C31.3589 43.8404 31.2965 43.8695 31.2297 43.7715C30.9508 43.5658 30.7354 43.3677 30.3585 43.4C30.1366 43.3709 29.9428 43.5077 29.8189 43.2363C29.7532 42.9908 29.7522 42.6785 29.4883 42.6085C30.8829 41.7577 29.1878 43.0101 28.8938 42.8163C28.868 42.476 28.896 42.1077 28.6882 41.8223C28.3446 41.9688 27.9698 42.0592 27.6597 42.2681C27.4594 42.0161 27.1632 41.8665 27.2828 41.2828C27.1212 40.7508 27.7092 40.0249 27.3915 40.8046C27.2182 41.02 26.2715 42.1971 26.3071 41.5369C26.4718 41.0771 26.684 40.6118 26.5365 40.1251C26.2952 40.2209 26.6549 39.8041 25.7546 40.5375C25.5586 40.7066 24.3923 41.8331 24.6325 41.118C24.8489 40.5978 25.0503 40.0723 25.1149 39.5069L25.8085 39.1655Z" fill="#364282" fill-opacity="0.15"/>
<path d="M37.0795 48.5402C37.0709 49.0097 37.0763 49.4803 37.0785 49.9499C36.5874 50.2762 36.414 50.4054 36.9891 49.7011C37.4005 49.1616 37.7559 48.5865 38.108 48.0082C39.0115 47.5472 38.8694 47.6452 38.7865 48.2483C37.6256 48.8837 38.514 47.9532 38.8263 47.4848C39.1149 46.7299 39.9679 46.7126 40.2963 46.6502C40.5666 47.2199 40.922 46.9248 40.2845 47.2425C40.8014 46.7234 41.2365 46.13 41.6662 45.5399C42.6429 44.8108 42.5029 45.1888 42.4717 45.8985C42.3436 46.2916 43.68 45.3966 42.3866 46.1182C43.0145 45.5765 43.3085 45.486 43.9062 45.6917C44.1851 45.9706 44.3865 45.8748 44.744 45.8414C45.1909 45.6303 45.6454 45.528 46.1096 45.4494C46.3648 45.6831 46.4972 45.4666 46.7492 45.4192C46.942 45.5969 46.7072 45.7854 46.6534 45.9696C45.248 46.5112 46.6889 45.8306 47.2026 45.6056C47.3232 45.7369 47.5279 45.9588 47.6086 46.0471L46.9776 46.5037C46.8612 46.3583 46.7116 46.1871 46.5748 46.0568C47.3125 45.4645 46.6416 46.0772 45.9383 46.2743C45.9932 46.1731 46.1666 45.9642 46.1419 45.9017C45.9028 45.9189 45.7229 46.1052 45.4817 45.8974C45.0272 45.9976 44.5782 46.1279 44.1334 46.3045C43.7629 46.3131 43.5314 46.4003 43.2482 46.0999C43.0166 45.6928 43.0037 45.9146 43.1006 45.8414C42.252 46.3389 42.2423 46.5586 41.7857 46.2485C41.8126 45.6228 41.6737 45.5754 42.3726 45.2383C41.9311 45.8242 41.4906 46.4154 40.9963 46.9603C40.2145 47.4385 39.9743 47.8219 39.6286 47.0368C39.9151 46.6986 40.1628 46.312 39.5199 47.1811C39.0912 47.8305 38.8392 48.3776 38.0908 48.594C38.1802 48.0523 38.2652 47.8746 38.8112 47.6948C38.4537 48.2742 38.0929 48.8525 37.688 49.4006C37.366 49.8023 36.8749 50.568 36.3914 50.2999C36.3936 49.8303 36.3989 49.3608 36.3903 48.8902L37.0795 48.5402Z" fill="#364282" fill-opacity="0.15"/>
<path d="M37.7397 45.0402C38.4429 44.3886 39.0094 43.6068 39.5812 42.8422C40.0185 41.8686 40.852 41.9892 41.2569 41.9828C41.3495 42.7668 41.4734 42.6677 40.6765 43.0295C40.8445 42.6688 40.9974 42.2983 41.1568 41.9332C41.916 41.3302 41.9558 41.4583 42.5008 41.9246C43.0608 41.7609 42.1195 42.4394 42.9541 41.5498C43.3235 41.132 43.8921 41.0125 44.3746 40.7831C45.0638 40.4309 43.8028 40.9845 45.6131 40.1552C45.8521 40.3383 46.0449 40.1908 46.2937 40.18C46.6103 40.0658 46.8741 40.1423 47.1843 40.2058C47.5354 40.4729 47.7572 40.3135 48.1061 40.2791C46.6911 40.9726 48.9677 39.6405 49.0312 39.6082C49.5277 39.9108 49.7506 39.718 48.678 40.2446L49.3145 39.7977C47.9231 40.6743 49.2186 39.9657 48.4174 40.0766C49.8637 39.1483 47.5828 40.782 47.5031 40.7583C47.1423 40.8089 46.8925 40.8574 46.5478 40.6409C46.2517 40.6172 45.9792 40.516 45.6798 40.6485C45.4354 40.6646 45.2318 40.7465 44.9938 40.614C44.5857 40.8305 44.1635 41.02 43.7683 41.2569C42.7818 41.2365 44.3961 41.0372 43.6606 41.2548C43.1792 41.7771 42.6192 42.4146 41.8546 42.3446C41.2946 41.8589 41.3851 41.8568 41.8611 41.6198C41.6941 41.9806 41.524 42.3414 41.3883 42.7183C40.3631 43.3042 40.6851 43.1685 40.5817 42.35C41.0437 41.6705 40.9543 41.6015 40.2629 42.5482C39.6954 43.3095 39.1354 44.0838 38.4558 44.7505L37.7397 45.0402Z" fill="#364282" fill-opacity="0.15"/>
<path d="M40.9855 37.6545C40.9662 38.2511 40.9855 38.851 41.0038 39.4454C39.984 39.7954 41.3 38.2748 41.6812 37.7428C42.1012 36.8242 43.0005 36.7359 43.5335 36.6433C43.7748 37.3142 44.0968 37.0999 43.3483 37.4844C43.7769 37.087 44.1269 36.6099 44.4866 36.1501C44.8237 35.4942 45.5248 35.8981 45.7175 35.8937C45.3998 36.1253 45.0757 36.2588 46.3917 35.5588C46.7546 35.5685 47.0949 35.7451 47.4331 35.8722C48.5509 35.6891 46.8332 36.1091 47.8046 35.7247C48.5854 35.1334 48.8008 34.9837 49.4437 35.4457C49.6128 35.7505 49.8325 35.7344 50.12 35.8324C50.3569 36.0197 50.5346 35.8604 50.764 35.8539C51.2335 35.7957 51.2971 36.0865 51.5405 36.4387C51.5685 36.5561 51.6557 36.6497 51.7117 36.751L51.044 37.1494C50.988 37.0407 50.9072 36.9394 50.8738 36.8177C50.6326 36.4785 50.6035 36.2459 50.1545 36.331C49.9315 36.3213 49.7119 36.4344 49.4889 36.2761C49.2014 36.1597 48.9494 36.1597 48.7835 35.8431C48.6349 35.7817 48.3851 35.3467 48.5165 35.4404C47.9812 35.7957 47.4859 36.3837 46.7966 36.303C46.4682 36.1802 46.1386 35.9993 45.7832 36.0327C45.5549 36.1544 45.2868 36.1845 45.0477 36.2836C45.1295 36.1554 45.2728 35.7247 45.1888 35.8507C44.8269 36.3105 44.4705 36.7779 44.0666 37.2022C43.1372 37.7288 43.1889 37.8257 42.8659 37.0277C43.2848 36.3977 42.9595 36.6325 42.364 37.4477C41.7275 38.3244 41.3237 39.3754 40.32 39.8051C40.3092 39.2064 40.2995 38.6044 40.3006 38.0034L40.9855 37.6545Z" fill="#364282" fill-opacity="0.15"/>
<path d="M42.7065 32.4391C42.9455 33.1789 42.6978 32.6534 42.6828 33.0055C43.4754 32.2807 44.1291 31.5571 45.0735 31.0401C45.2534 31.3223 45.1597 31.7272 45.1371 32.0137C44.184 32.5187 45.2178 31.6389 45.6206 31.2404C46.5414 30.6686 46.6738 30.4887 47.0454 31.3277C47.1768 31.8123 46.452 32.1063 46.9603 31.4935C47.46 30.8538 48.0566 30.2691 48.6855 30.94C48.7598 31.2027 49.1702 31.5527 49.252 31.6454C47.6355 32.3486 49.7366 31.3632 49.8454 31.3212C50.3225 31.7218 50.6025 31.4311 49.8368 31.8446C50.1975 31.2566 51.0085 31.1952 51.4209 31.0767C51.5803 31.5 51.8894 31.3471 52.0972 31.4278C50.7726 31.9695 52.6325 31.1984 52.9706 31.0789C53.4595 31.4731 53.8742 31.0961 52.9706 31.5603C53.0966 31.4343 53.3346 31.5495 53.5015 31.6077C53.522 31.6249 53.4122 31.7229 53.4068 31.7304L52.6831 32.0126C52.7208 31.9835 52.7918 32.0007 52.7972 31.9254C52.9738 31.7767 53.7094 30.5318 53.6814 31.2534C52.8823 31.794 52.9857 31.9049 52.3342 31.514C51.9249 31.7057 53.2097 30.6621 51.492 31.9081C51.2131 31.8166 50.9654 31.8564 50.7715 31.4935C50.2902 31.64 51.4522 30.6923 50.554 31.5592C49.7151 32.0664 49.8152 32.2032 49.2057 31.7574C50.1491 31.0024 49.2046 31.7918 48.6338 32.1181C48.4271 31.8866 48.174 31.6324 48.0275 31.3309C47.2511 30.8721 48.3592 30.5351 47.6614 31.192C47.3534 31.6174 46.6997 32.3949 46.3723 31.6981C46.1289 31.136 46.2603 30.7924 46.3249 30.9507C45.752 31.5118 45.2405 32.1515 44.4715 32.4143C44.4834 32.1623 44.4974 31.7929 44.4662 31.5161C45.7391 30.7106 43.6692 32.3874 43.3882 32.7287C42.6494 33.1724 42.084 33.7712 42.0183 32.7901L42.7065 32.4391Z" fill="#364282" fill-opacity="0.15"/>
<path d="M44.8947 26.9866C44.8915 27.6737 44.8926 28.3586 44.8484 29.0446C44.0601 29.7834 44.0795 29.3645 44.3391 28.4685C44.576 27.7017 44.9077 26.9758 45.3341 26.3038C46.1461 25.6911 46.0794 25.8235 46.5467 26.2209C45.9857 26.6398 46.4552 26.1638 46.942 25.6717C47.88 25.0234 47.7777 25.0945 48.0146 25.7686C47.9844 25.8483 47.8444 25.7665 47.7583 25.7643C47.9887 25.0837 48.9052 25.2754 49.0409 25.2506C49.1109 25.4197 48.8374 25.5618 48.6898 25.6717C49.2584 24.9814 49.9143 24.5926 50.7069 24.1985C50.918 24.2437 51.1064 24.5689 51.1807 24.6637C49.924 25.438 51.1366 24.5226 51.4091 24.3083C52.3212 23.7332 52.3438 23.8366 52.5527 24.5872C53.5984 24.4052 51.4047 25.4272 53.4627 24.2555C54.0863 23.9109 54.2963 24.0574 54.7874 24.4009C55.0867 25.0191 55.2871 24.7423 54.5138 25.1602C55.2989 24.6314 55.244 24.6605 55.7867 25.0374C55.8115 25.1031 55.9235 25.0568 55.9591 25.0622L55.3301 25.5155C55.328 25.5155 55.1201 25.4951 55.1331 25.452C54.6549 25.2215 54.4794 25.1849 55.2354 24.8769C54.3749 25.368 54.4675 25.48 54.1283 24.794C53.6566 24.4968 53.4444 24.3988 52.8694 24.7337C52.5754 24.9038 52.2006 25.0482 51.8743 24.9555C51.7138 24.3525 51.4209 24.4042 52.1263 24.0315C51.6083 24.416 51.1614 24.864 50.5497 25.1182C50.4312 24.9642 50.3106 24.7122 50.0963 24.6658C51.2443 23.8883 49.5783 25.0126 49.4006 25.3788C48.9267 25.6868 48.4938 26.334 48.3667 25.6308C48.4077 25.5791 48.4981 25.4057 48.4615 25.4595C48.1783 25.6986 47.6107 26.7411 47.3307 26.1294C47.1014 25.6577 47.1358 25.6297 47.6517 25.3809C47.1304 25.9032 46.6404 26.418 45.9124 26.6668C45.5194 26.3415 45.3147 26.3502 46.0406 26.0045C45.5883 26.656 45.2544 27.3797 45.0197 28.1465C44.8538 28.7172 44.6018 29.722 44.1635 29.3849C44.2217 28.7032 44.2281 28.0215 44.2066 27.3366L44.8947 26.9866Z" fill="#364282" fill-opacity="0.15"/>
<path d="M47.8337 20.3948C47.6991 20.8438 47.4998 21.266 47.3027 21.6881C45.9447 22.4538 46.886 21.3091 47.1908 20.7943C47.5946 20.1384 48.342 19.2338 48.8729 20.1804C48.9515 20.5574 49.1077 21.3037 49.1507 21.5115C47.9651 22.2255 49.0248 21.0581 49.2735 20.762C50.0737 20.2074 50.3601 20.4411 51.1678 20.5897C51.4511 20.5681 51.7364 20.5714 52.0186 20.5401C52.4978 20.0491 53.0783 19.7637 53.6749 19.4557C54.0368 19.726 53.998 20.1244 54.0443 20.5348C52.9081 21.126 53.4337 20.1837 53.6706 19.5332C53.956 18.9689 54.6226 18.7804 55.1481 18.4789C54.7594 18.6178 55.8697 18.0654 56.2617 17.9351C56.4491 18.2409 56.4329 18.5974 56.4706 18.9409C55.3883 19.6 55.86 19.096 56.1109 18.6308C56.9197 17.9728 56.8766 17.9588 57.2966 18.5403C57.4549 18.7966 57.6035 18.5704 57.8318 18.5134C57.9417 18.4401 58.0763 18.4692 58.1958 18.4477L57.5712 18.9075C57.4571 18.9344 57.3289 18.9226 57.2255 18.9915C56.9154 19.0561 56.8454 19.2058 56.6224 18.9183C56.7161 18.7051 56.0517 18.0815 56.8163 18.3249C56.5148 18.8591 56.4469 19.0723 55.7814 19.2963C55.7523 18.9764 55.7781 18.6415 55.6112 18.354C56.7463 17.3406 54.9392 18.8903 54.5526 18.9603C53.9441 19.7744 55.0081 18.3077 54.3631 19.2144C54.0744 19.9683 54.0648 20.6198 53.3583 20.8837C53.3238 20.5251 53.3852 20.146 53.0589 19.9241C53.6749 19.5063 53.2528 19.782 52.7294 20.2591C51.9906 20.7028 51.4252 21.1464 50.5432 21.0291C50.0629 20.9375 48.9451 20.958 49.9908 20.482C49.4964 21.0043 49.2358 21.6429 48.5229 21.9724C48.4292 21.5708 48.2795 21.0172 48.2074 20.552C47.7992 19.8401 48.8094 19.4374 47.8811 20.4884C47.4826 21.1594 47.2478 21.8055 46.5984 22.0004C46.8031 21.5858 47.0131 21.1755 47.1337 20.7232L47.8337 20.3948Z" fill="#364282" fill-opacity="0.15"/>
<path d="M50.3515 16.325C50.316 16.7353 50.1975 17.1252 50.092 17.5204C49.91 17.8553 49.1594 18.1633 50.0069 17.4439C50.6638 16.7655 51.562 16.4349 52.3675 16.0806C53.2754 16.2658 52.3395 16.0719 52.6184 16.1538C53.0847 15.4624 53.5844 15.0758 54.3038 14.6569C54.2166 15.1092 56.0054 14.0495 54.1024 15.0909C54.488 14.5363 54.8552 14.2983 55.4637 13.9407C55.7523 14.0376 55.958 14.3661 56.1615 14.5901C56.7064 14.3166 55.5315 15.1501 56.2951 14.3403C57.652 12.1843 56.7463 14.1615 57.2384 13.9666L56.5858 14.3866C56.6741 14.3144 54.3835 14.7807 57.0069 14.0441C56.6095 14.477 56.1389 15.0316 55.5121 15.0079C55.329 14.8012 55.1266 14.4652 54.8627 14.4264C55.9763 13.7609 54.9995 14.4049 54.8251 14.8076C53.6232 15.4926 54.3803 15.1221 53.7018 15.1415C54.9144 14.4146 53.4929 15.4204 53.3227 15.8598C52.8015 16.227 52.4095 16.7795 51.7483 16.5361C51.3617 16.7289 51.6761 16.2809 50.708 17.1629C50.456 17.3729 49.1335 18.691 49.3974 17.8478C49.5061 17.4579 49.6332 17.0735 49.6558 16.6643L50.3515 16.325Z" fill="#364282" fill-opacity="0.15"/>
<path d="M63.882 10.5762C63.4523 11.0416 63.1669 11.6027 62.8804 12.1605C62.776 12.6516 61.7227 13.1599 62.4357 12.3361C63.0926 11.705 63.7269 10.9921 64.1447 12.0668C64.1221 12.3856 64.3537 13.3096 64.3569 13.3236C62.889 13.8804 65.2184 12.545 65.2777 12.5181C65.3735 12.8476 65.5814 13.3473 65.6589 13.5659C65.3854 13.8072 65.3498 13.6672 65.8161 13.0479C66.5043 12.5105 66.7552 12.6408 67.4595 12.7108C67.634 12.6096 67.817 12.7324 67.9786 12.7421L67.3324 13.1739C67.1752 13.1718 67.0018 13.0964 66.8381 13.1664C66.4041 13.1125 65.4564 13.2224 66.529 12.7561C66.1101 13.2935 65.7386 13.7856 65.0224 14.0075C64.8706 13.7113 64.7306 13.3365 64.6412 12.9585C65.7343 12.1315 64.1146 13.693 63.7484 13.805C63.6601 13.4895 63.4458 12.8939 63.476 12.4308C63.183 11.6662 63.7797 11.3905 63.1357 12.0399C62.8837 12.3382 61.601 13.3882 62.1869 12.475C62.4712 11.9172 62.7458 11.3485 63.1744 10.8833L63.882 10.5762Z" fill="#364282" fill-opacity="0.15"/>
<path d="M61.152 15.2438C61.4353 15.7468 61.7249 15.3935 62.2602 15.1114C62.944 14.7129 63.28 14.5428 63.6537 15.2654C63.7302 15.6068 63.7076 15.9546 63.7011 16.2992C62.0986 16.7914 63.6882 16.2109 63.9596 16.1129C64.1502 16.0364 64.3365 15.9578 64.526 15.8771C64.8459 15.7371 65.17 15.7791 65.4952 15.778L64.8631 16.2195C64.5465 16.2335 64.2256 16.2131 63.9208 16.3498C63.7259 16.4284 63.5234 16.576 63.3102 16.5404C63.2596 16.5286 63.2089 16.4608 63.1519 16.5028C63.3554 16.3768 63.56 16.2518 63.7646 16.1258C63.7862 16.114 63.7323 16.1624 63.7151 16.1808C63.4717 16.3229 63.2273 16.464 62.9828 16.6061C62.9968 16.3455 63.0894 15.9395 62.9839 15.6326C62.5262 15.0984 62.4012 15.1404 61.6732 15.5841C61.0594 15.89 60.7934 16.1829 60.4639 15.5949L61.152 15.2438Z" fill="#364282" fill-opacity="0.15"/>
<path d="M61.1369 17.2631C60.9819 17.444 61.1832 17.7401 61.2565 17.9674C60.7772 18.1084 61.7508 17.7692 62.5337 17.5043C62.7157 17.7811 62.972 17.9835 63.1971 18.2108C63.532 18.3023 63.8282 18.4746 64.1275 18.6415C64.5486 18.6997 64.9837 18.6146 65.408 18.5866C65.8302 18.6577 65.982 18.9129 66.2038 19.236C66.2502 19.3221 66.2222 19.306 66.2405 19.376L65.5491 19.7335C65.5458 19.7098 65.5749 19.6248 65.5329 19.6215C65.3035 19.3415 65.212 19.0691 64.7898 19.0389C64.3569 19.0712 63.9078 19.1703 63.4835 19.0648C63.1809 18.8968 62.8805 18.7331 62.5488 18.6275C62.3129 18.4121 62.0954 18.1946 61.8983 17.9415C61.7723 17.9889 61.964 17.3428 60.6491 18.4434C60.4832 18.2194 60.1634 18.2021 60.4412 17.6023L61.1369 17.2631Z" fill="#364282" fill-opacity="0.15"/>
<path d="M60.1828 20.2385C60.0396 20.4291 60.0773 20.9127 60.0697 20.9881C58.6266 21.659 60.5425 20.7673 60.9991 20.5659C61.5225 20.7662 61.9371 21.1798 62.3722 21.5265C62.8611 21.9271 63.7076 21.4371 62.8794 21.9045C63.5525 21.449 63.8734 21.0042 64.3193 21.7516C64.2956 22.0047 64.4786 22.1953 64.554 22.4042L63.8906 22.7984C63.7937 22.5787 63.6397 22.3838 63.6462 22.121C63.7119 21.9476 63.9316 20.8674 63.5945 21.6299C62.7523 22.1113 62.5176 22.3934 61.726 21.9336C61.306 21.5954 60.9033 21.1819 60.382 21.0236C59.6508 21.3391 61.2199 20.3559 59.4311 21.4339C59.4063 21.1884 59.304 20.8642 59.4828 20.567L60.1828 20.2385Z" fill="#364282" fill-opacity="0.15"/>
<path d="M59.4009 23.521C59.2534 24.0422 59.164 24.5753 59.122 25.1127C58.7882 25.4961 59.0337 25.1493 59.6616 24.4838C60.1957 24.0056 60.7772 23.1042 60.9571 24.1316C60.97 24.4859 60.8742 24.8165 60.7934 25.1525C59.4957 25.747 60.5102 24.7239 60.8214 24.3944C61.8089 23.7461 61.9156 23.8505 62.4745 24.6442C62.8169 25.4401 63.2412 25.4282 62.426 25.845C62.8202 25.1708 63.0732 25.0061 63.8217 24.6625C64.0059 24.7659 64.0026 24.9953 64.092 25.159L63.4179 25.5338C63.3436 25.3959 63.3511 25.1902 63.1917 25.1127C64.3472 24.3524 63.3102 25.0567 63.1486 25.5661C62.0534 26.1508 62.2742 25.9301 61.8176 25.0276C61.2791 24.2824 61.2425 24.361 61.5311 24.1036C61.0239 24.6098 60.8042 25.1913 60.0826 25.4735C60.1806 25.1493 60.2991 24.8316 60.2732 24.4773C60.4854 24.1801 60.9797 23.2291 60.3562 24.193C59.8436 24.7433 59.1479 25.6716 58.4382 25.4616C58.4802 24.9188 58.5728 24.3815 58.7009 23.8495L59.4009 23.521Z" fill="#364282" fill-opacity="0.15"/>
<path d="M57.8695 27.4367C57.7651 27.721 57.96 28.3489 57.9697 28.3952C56.8238 29.135 57.9202 28.001 58.156 27.7167C59.108 27.1083 59.0283 27.3926 59.1166 28.1314C59.1037 28.1927 58.4759 28.6677 59.0983 28.1023C59.7122 27.5638 60.1688 27.245 60.8343 27.6295C60.9765 28.0775 61.1886 28.2821 61.5354 28.5223C61.8875 28.3995 62.0642 28.5718 62.3668 28.7C62.5391 28.8141 62.6995 28.9509 62.8632 29.0747L62.2095 29.4969C62.0458 29.3698 61.8994 29.2201 61.7185 29.1157C61.4277 29.0123 61.2306 28.869 60.8968 28.9541C60.5575 28.6924 60.3131 28.4803 60.1763 28.0269C59.3826 27.651 60.6211 27.3344 59.8059 27.8137C59.4623 28.1335 58.7569 29.0015 58.4328 28.4857C58.3617 27.833 58.1323 27.8018 58.8732 27.4303C58.3918 27.9644 58.0612 28.5546 57.3494 28.8626C57.2762 28.5955 57.0683 28.1809 57.1814 27.7878L57.8695 27.4367Z" fill="#364282" fill-opacity="0.15"/>
<path d="M56.8971 31.3901C56.6989 32.2269 56.4879 33.0594 56.2671 33.8897C56.3414 34.5444 54.9662 35.1648 55.8923 34.3689C56.6979 33.6248 57.6025 33.0066 58.5189 32.41C59.5603 31.7821 59.7779 31.5431 59.7854 32.5295C59.6659 33.3426 59.2749 33.3458 58.7957 33.4266C58.9863 32.5144 59.8995 32.9538 59.9566 32.9549C60.0277 33.5612 59.9889 34.1815 59.9825 34.7878C58.8323 35.392 59.9448 34.3108 60.2657 33.9381C60.9032 33.3717 61.3351 32.9054 61.9145 33.5763C61.9597 33.5817 62.0028 33.9737 62.0103 34.0092L61.3308 34.3668C61.3028 34.2289 61.3222 34.0814 61.2468 33.9532C60.7008 33.3652 61.7949 33.068 60.9635 33.6441C60.4412 34.2429 60.0503 34.9214 59.2997 35.1497C59.3137 34.5444 59.3579 33.922 59.2825 33.3157C59.4235 33.1186 59.9642 32.1784 59.4903 33.0884C58.5125 33.8294 58.8797 33.6538 59.0972 32.8623C59.1511 32.1397 58.8345 32.4897 59.22 32.1386C58.3014 32.7266 57.3946 33.3372 56.5945 34.0835C56.1766 34.4615 54.9952 35.3468 55.5875 34.2149C55.8105 33.3889 56.0269 32.5618 56.2035 31.7251L56.8971 31.3901Z" fill="#364282" fill-opacity="0.15"/>
<path d="M54.9888 36.5216C54.698 37.0407 54.4406 37.577 54.1929 38.1187C53.6889 38.5904 53.2474 38.7476 53.8774 38.0261C54.3652 37.4596 55.0135 37.2022 55.6263 36.9621C55.8406 37.2873 55.7329 37.5953 55.6662 37.9496C55.0232 38.2856 54.9048 38.3545 55.5337 37.7978C56.2391 37.3078 56.6871 36.7887 57.2902 37.5242C57.4786 37.9787 57.7339 38.4138 58.0009 38.7907C57.2654 39.2182 57.9008 38.809 58.7354 38.403C59.1091 38.7239 59.248 39.1751 59.43 39.6091C59.4397 39.6565 59.4494 39.7039 59.4602 39.7513L58.7785 40.1142C58.7709 40.0679 58.7634 40.0227 58.7548 39.9764C58.59 39.5715 58.4769 39.1407 58.1097 38.8585C59.0003 38.2436 58.0817 39.0007 57.3515 39.2075C57.0834 38.809 56.826 38.3728 56.6311 37.9087C55.9225 37.3131 57.0231 37.0848 56.2412 37.5113C55.9451 37.7687 55.1762 38.613 54.9672 38.2791C55.0372 37.9722 55.1568 37.6879 54.9845 37.395C55.8492 36.6918 54.9952 37.3358 54.5828 37.7321C54.4105 37.9227 53.2657 39.1859 53.4962 38.4364C53.746 37.8958 54.0066 37.3616 54.2845 36.8361L54.9888 36.5216Z" fill="#364282" fill-opacity="0.15"/>
<path d="M53.1806 40.7238C53.1322 41.217 53.1979 41.7113 53.2539 42.1841C53.2323 42.2153 53.0223 42.3639 53.7212 41.581C54.5968 40.9542 54.7615 40.7378 54.7615 41.7048C54.3663 42.4425 55.8374 41.4442 54.4428 42.2336C55.2386 41.707 55.3442 41.5304 55.9989 41.9288C56.1949 42.3994 56.4523 42.3391 56.8142 42.4716C56.9305 42.4824 57.0209 42.4081 57.1232 42.3768L56.5158 42.8518C56.4092 42.8776 56.3102 42.939 56.1938 42.9282C55.7889 42.8205 55.5628 42.7538 55.3431 42.3316C54.9069 42.197 54.3017 42.2476 55.1622 41.9579C53.9915 42.6267 54.3728 42.631 54.0734 42.0441C54.0906 41.6682 54.4105 40.7345 54.4212 41.287C53.9323 41.8384 53.354 42.6525 52.5819 42.5621C52.5226 42.0796 52.4526 41.5778 52.4914 41.0748L53.1806 40.7238Z" fill="#364282" fill-opacity="0.15"/>
<path d="M51.1474 44.338C51.1657 45.0563 51.0957 45.7692 51.0063 46.48C51.0257 46.9032 50.1351 47.2597 50.918 46.4251C51.6126 45.8102 52.2071 45.3202 52.9868 45.8026C53.4348 46.3777 52.7391 46.4197 52.6938 46.438C52.8274 46.0869 53.3906 46.1052 53.7654 46.0891C53.774 46.4197 53.7385 46.7492 53.7126 47.0788L53.0266 47.4202C53.0535 47.0971 53.0901 46.774 53.0848 46.4499C53.2011 46.3249 53.9409 45.4117 53.4078 46.1419C52.6928 46.5726 52.5808 46.9248 52.3255 46.1946C51.5491 45.78 52.6346 45.4386 51.6158 46.1343C51.3617 46.4068 50.1771 47.7885 50.3235 46.8149C50.4215 46.1096 50.4991 45.402 50.4603 44.688L51.1474 44.338Z" fill="#364282" fill-opacity="0.15"/>
<path d="M54.2748 48.5402C54.1671 48.8654 54.3566 49.2649 54.4083 49.4459C52.9114 50.1814 55.4508 48.7502 55.5466 48.7006C56.0097 49.0043 55.9149 49.4889 55.8966 50.0048C55.8665 50.2557 55.5811 50.4625 55.3334 50.5088C56.1034 49.7765 56.14 49.8605 56.7237 50.2115C56.7474 50.2622 56.7711 50.3117 56.7948 50.3612L56.1239 50.7414C56.1023 50.6951 56.0819 50.6499 56.0603 50.6046C56.0775 50.5163 55.2655 49.8863 56.0431 50.2072C55.7049 50.4151 54.8219 51.2066 55.2139 50.3451C55.2354 49.8874 55.3442 49.4243 54.9392 49.1723C56.2595 48.3129 53.9086 49.91 53.7708 49.8885C53.6825 49.6117 53.4703 49.2832 53.5855 48.8902L54.2748 48.5402Z" fill="#364282" fill-opacity="0.15"/>
<path d="M61.2263 46.9818C60.7546 47.5773 60.2603 47.9456 59.6002 48.3247C59.234 48.1039 59.2836 47.6818 59.2308 47.2833C59.1317 46.6318 59.0079 47.0464 58.6708 46.9764C58.338 47.1541 58.1689 47.0022 57.8534 46.8396C57.5153 46.6479 57.2213 46.7082 56.8691 46.7588C56.5729 46.8482 56.5536 46.6318 56.3683 46.4853C56.3414 46.4681 56.3156 46.4508 56.2886 46.4325L56.9423 46.0168C56.9714 46.0384 57.0016 46.0599 57.0306 46.0825C57.1749 46.1482 57.2406 46.4702 57.4808 46.2893C57.8426 46.2624 58.1593 46.2172 58.4974 46.4164C58.8237 46.5381 58.9379 46.6996 59.2706 46.4918C59.6766 46.5424 59.8091 46.3281 59.9114 46.9301C59.9523 47.2607 59.8953 47.6915 60.2033 47.8422C58.9917 48.5875 60.3206 47.6322 60.5156 47.2844L61.2263 46.9818Z" fill="#364282" fill-opacity="0.15"/>
<path d="M62.6328 42.1368C62.2979 42.5708 61.9683 43.0069 61.628 43.4366C61.0314 43.8168 60.6308 44.3735 60.6868 43.4635C60.8483 42.9897 60.9959 42.5115 61.1133 42.0302C62.0943 41.4012 61.4234 42.0086 61.11 42.378C60.8311 43.0823 60.0148 42.8142 59.7649 42.8626C59.7014 42.5632 59.4925 42.4006 59.3234 42.1906C58.3423 42.1109 59.9782 42.0711 59.0714 42.2358C58.9669 42.3769 58.8313 42.4889 58.7106 42.6149L57.9934 42.9046C58.1151 42.7808 58.2723 42.6849 58.3628 42.5298C58.8485 42.2025 59.3288 41.5305 59.9739 41.7717C60.1451 41.9925 60.3626 42.1605 60.4273 42.4652C60.3906 42.5277 60.3723 42.7452 60.4057 42.6806C60.8117 42.1852 61.1262 41.7415 61.8036 41.6791C61.6894 42.168 61.5451 42.6537 61.3782 43.134C61.2489 43.2794 60.4693 44.4737 60.9237 43.736C61.2662 43.3106 61.6011 42.8798 61.9231 42.4383L62.6328 42.1368Z" fill="#364282" fill-opacity="0.15"/>
<path d="M61.432 36.6692C61.3157 37.1689 61.1552 37.6557 61.0034 38.1446C60.4455 38.388 60.3411 38.515 60.8925 37.8172C61.3071 37.1657 61.5591 36.9998 62.2968 36.7037C62.4594 37.1463 62.3226 37.5846 62.2268 38.0283C62.2192 38.3298 61.8455 38.5409 61.5612 38.6421C61.8789 38.2415 62.2537 37.8947 62.6198 37.5415C63.1885 36.2761 63.6515 37.3746 63.7754 37.3649C63.7506 37.535 63.8669 37.6966 63.9122 37.8624C63.1422 38.2533 64.2072 37.6169 64.8243 37.2927C64.9611 37.2744 64.9622 37.4413 65.0203 37.5038L64.3429 37.8807C64.3106 37.8527 64.3074 37.7095 64.2105 37.7655C65.6912 36.8577 63.4211 38.3018 63.2983 38.3384C63.2455 38.2092 62.9871 38.0229 63.0948 37.73C63.1249 37.6837 63.0215 36.7478 63.3317 37.2518C62.9623 37.5986 62.5875 37.94 62.2688 38.3373C61.6582 38.7616 61.1671 39.2538 61.5365 38.3567C61.6302 37.9464 61.7669 37.535 61.6388 37.1172C62.9419 36.3009 61.8046 37.0375 61.5935 37.5178C61.2845 37.9109 60.7363 38.7509 60.3055 38.4741C60.4628 37.9873 60.6362 37.5038 60.7342 37.0009L61.432 36.6692Z" fill="#364282" fill-opacity="0.15"/>
<path d="M64.0898 31.823C63.8497 32.4885 63.7215 33.1799 63.5998 33.8735C63.6127 34.0382 63.421 34.1513 63.3317 34.2892C63.6386 33.7733 63.9994 33.2995 64.3774 32.8536C65.3326 32.2688 65.3272 32.4228 65.5027 33.2025C65.5372 33.3985 65.1743 33.4772 64.9761 33.4836C65.1818 32.971 65.898 32.9947 66.2297 32.8913C66.2921 33.1132 66.6141 33.1692 66.6712 33.2112C65.2152 33.8702 67.2926 32.9624 67.4283 32.9107C67.5338 33.3167 67.3174 33.6204 67.1472 33.965C66.9318 34.2439 66.3923 34.3322 66.2383 34.3979L66.8866 33.9693C66.738 34.0695 66.2921 34.3732 66.4397 34.2698C66.6077 33.9661 66.8241 33.6958 66.7681 33.3188C67.1784 32.9828 67.0837 33.0658 66.0584 33.6872C65.9292 33.5859 65.6847 33.5224 65.5857 33.3199C65.6266 33.2725 65.7149 33.1078 65.6761 33.1552C65.4489 33.3576 64.7715 34.3527 64.8221 33.5601C64.6875 32.9204 64.3946 32.9516 65.0967 32.5768C64.6994 32.9958 64.3203 33.4513 64.0327 33.9876C63.5115 34.3893 62.7415 35.2918 62.9192 34.2073C63.0409 33.5148 63.1669 32.8235 63.392 32.1547L64.0898 31.823Z" fill="#364282" fill-opacity="0.15"/>
<path d="M65.6858 26.4988C65.6772 27.1988 65.6061 27.8966 65.5243 28.5912C65.5254 28.7442 65.3595 28.8497 65.2766 28.9779C65.8506 28.1228 66.3546 27.5908 67.2743 27.1352C67.5381 27.4152 67.5349 27.8072 67.5844 28.1723C67.312 28.3554 66.934 28.5977 67.6652 28.056C68.0626 27.3905 68.9069 27.6866 69.147 27.6565C69.2655 27.9763 69.2698 28.3231 69.3032 28.658C69.3657 28.6602 69.5724 28.6903 69.6823 28.7032C69.86 29.0005 69.8621 29.3451 69.8987 29.68C69.8923 29.7177 69.9063 29.7543 69.9095 29.7909L69.2192 30.1517C69.217 30.1129 69.2127 30.0742 69.2127 30.0354C69.1826 29.7242 69.188 29.4 69.0297 29.1211C68.8929 29.0877 68.6732 29.2191 68.6194 29.022C68.5914 28.6957 68.5849 28.3565 68.4783 28.042C68.5203 27.9548 68.4309 27.6909 68.376 27.7706C67.9807 28.0743 67.3464 28.7097 66.9038 28.5406C66.8629 28.2208 66.8769 27.846 66.6572 27.5994C67.8967 26.7723 66.1338 28.1917 65.9777 28.6839C65.479 29.0575 64.6272 30.0149 64.8426 28.9272C64.9309 28.238 65.0073 27.5455 64.9966 26.8499L65.6858 26.4988Z" fill="#364282" fill-opacity="0.15"/>
<path d="M67.9635 23.0785C67.6351 23.6309 67.4348 24.2308 67.298 24.8522C66.8543 25.2808 66.9006 25.1462 67.4617 24.4666C67.9765 23.7709 68.5731 23.3143 69.314 22.8835C69.6306 23.1119 69.4561 23.4069 69.3754 23.7688C69.0921 24.4052 69.0771 24.2717 68.4061 24.5991C68.7949 24.206 69.2526 23.9648 69.7329 23.6869C70.1131 23.6923 70.2294 23.9529 70.448 24.2179C70.4738 24.2599 70.4997 24.3029 70.5255 24.346L69.8578 24.7326C69.8331 24.6895 69.8072 24.6465 69.7825 24.6045C69.5746 24.3622 69.4852 24.1242 69.1309 24.1715C70.308 23.4748 69.3474 24.0477 69.1212 24.2975C67.9323 24.9771 68.4126 24.6852 68.6797 24.0951C68.74 23.8603 68.9586 23.4694 68.7131 23.3682C69.9569 22.6165 68.3329 23.772 68.1585 24.1683C67.7718 24.6519 67.1892 25.5015 66.6088 25.1903C66.7466 24.5635 66.9437 23.9572 67.2592 23.3919L67.9635 23.0785Z" fill="#364282" fill-opacity="0.15"/>
<path d="M69.8708 17.1833C69.7383 17.9221 69.5908 18.6577 69.4422 19.3943C69.6155 19.9133 68.3975 20.5304 69.0943 19.754C69.3808 18.8946 70.1863 19.2597 70.3694 19.2683C70.3242 19.53 70.6688 20.0534 70.6828 20.0867C69.1589 20.8352 71.2686 19.5149 71.358 19.4664C71.3849 19.46 71.4108 19.4535 71.4366 19.447L70.8206 19.9198C70.7959 19.9263 70.7711 19.9338 70.7463 19.9413C72.2648 19.0098 70.14 20.5337 70.0668 20.5606C69.9365 20.328 69.6985 20.0038 69.6963 19.6344C69.8697 19.3792 70.3952 18.453 69.7975 19.4535C69.4939 19.8326 68.404 20.7307 68.7594 19.7249C68.9112 18.9926 69.0663 18.2592 69.1783 17.5193L69.8708 17.1833Z" fill="#364282" fill-opacity="0.15"/>
</svg>
