<svg width="91" height="70" viewBox="0 0 91 70" fill="none" xmlns="http://www.w3.org/2000/svg">
<path fill-rule="evenodd" clip-rule="evenodd" d="M0 2.83784C0 1.27054 1.27054 0 2.83784 0H31.2044C37.1304 0 42.3498 3.02746 45.3995 7.62058C48.4491 3.02767 53.6683 0 59.5946 0H87.973C89.5403 0 90.8108 1.27054 90.8108 2.83784V59.8312C90.8108 60.5872 90.5092 61.3119 89.9728 61.8447C89.4365 62.3774 88.7097 62.6741 87.9538 62.669L58.8873 62.4725C55.8502 62.452 52.9315 63.6494 50.7839 65.797L47.4121 69.1688C46.3038 70.2771 44.507 70.2771 43.3988 69.1688L39.9871 65.7572C37.8583 63.6284 34.9711 62.4324 31.9605 62.4324H2.83784C1.27054 62.4324 0 61.1619 0 59.5946V2.83784ZM42.5557 17.0176C42.5505 10.7521 37.4699 5.67568 31.2044 5.67568H5.67568V56.7568H31.9605C35.8323 56.7568 39.5682 58.0755 42.5676 60.4642L42.5557 17.0176ZM48.2432 60.4724V17.027C48.2432 10.7579 53.3254 5.67568 59.5946 5.67568H85.1351V56.9741L58.9257 56.7969C55.0312 56.7706 51.2665 58.0794 48.2432 60.4724Z" fill="#364282" fill-opacity="0.15"/>
</svg>
