<svg width="70" height="70" viewBox="0 0 70 70" fill="none" xmlns="http://www.w3.org/2000/svg">
<path fill-rule="evenodd" clip-rule="evenodd" d="M52.5 0C54.433 0 56 1.567 56 3.5V7H59.5C65.299 7 70 11.701 70 17.5V59.5C70 65.299 65.299 70 59.5 70H10.5C4.70101 70 0 65.299 0 59.5V17.5C0 11.701 4.70101 7 10.5 7H14V3.5C14 1.567 15.567 0 17.5 0C19.433 0 21 1.567 21 3.5V7H49V3.5C49 1.567 50.567 0 52.5 0ZM7 35V59.5C7 61.433 8.567 63 10.5 63H59.5C61.433 63 63 61.433 63 59.5V35H7ZM7 28H63V17.5C63 15.567 61.433 14 59.5 14H56V17.5C56 19.433 54.433 21 52.5 21C50.567 21 49 19.433 49 17.5V14H21V17.5C21 19.433 19.433 21 17.5 21C15.567 21 14 19.433 14 17.5V14H10.5C8.567 14 7 15.567 7 17.5V28Z" fill="#364282" fill-opacity="0.15"/>
</svg>
