<svg width="169" height="131" viewBox="0 0 169 131" fill="none" xmlns="http://www.w3.org/2000/svg">
<g clip-path="url(#clip0_2093_521)">
<g style="mix-blend-mode:lighten">
<path d="M10.4318 139.842C-16.3028 95.7907 17.3339 90.7641 26.5354 75.5C35.253 61.0387 19.2766 41.6792 26.5354 29.9371C40.0449 8.08423 60.7894 23.8226 75.1787 19.3768C87.6476 15.5247 97.4475 2.50892 111.688 7.47414C134.007 15.256 125.458 32.1352 130.566 44.7099C135.984 58.0468 150.205 61.7524 155.554 75.9687C161.52 91.8254 146.798 102.772 152.792 114.985C156.945 123.444 170.834 129.408 170.549 139.842H10.432H10.4318Z" fill="#1F2B68"/>
</g>
<g style="mix-blend-mode:lighten">
<path d="M120.686 40.9108C121.969 39.9965 127.555 38.142 128.925 37.9764C129.145 39.7002 129.463 41.4206 129.985 43.0813C130.927 46.0816 132.511 48.8487 134.426 51.3285C137.94 55.8808 142.573 59.4242 146.726 63.3472C152.209 68.5282 156.683 75.2679 156.991 83.0239C157.135 86.6242 156.342 90.1703 155.263 93.5808L3.11389 125.172C1.863 121.811 0.900171 118.32 0.500346 114.748C0.258921 112.591 0.235972 110.408 0.492922 108.251C0.64626 106.964 0.901748 105.703 1.26119 104.458C3.09325 98.1111 7.6473 93.1678 12.5615 88.9766C13.267 88.375 18.7514 83.8847 20.399 82.4121C23.2005 79.9075 25.8891 77.1737 27.4787 73.7159C30.5961 66.9345 28.8804 59.2377 27.2374 52.3296C26.9252 51.0164 26.5798 49.7117 26.2699 48.3986C25.9684 47.1204 25.6635 45.8428 25.4031 44.5556C26.7474 44.9037 35.6681 41.3648 41.6542 47.9986C48.3643 55.4358 41.6756 64.7955 51.3951 66.0174C62.0758 67.3598 63.8252 52.3312 74.2202 51.4057C85.752 50.3787 89.6141 67.6629 97.4621 66.0174C112.912 62.7766 108.534 49.5749 120.686 40.9108Z" fill="#5865AB"/>
</g>
<g style="mix-blend-mode:lighten">
<path d="M121.249 44.5556C122.532 43.6407 127.555 38.142 128.925 37.9764C129.146 39.7002 129.464 41.4206 129.985 43.0813C130.927 46.0816 132.512 48.8487 134.426 51.3285C137.94 55.8808 142.574 59.4242 146.726 63.3472C152.209 68.5282 156.683 75.2679 156.992 83.0239C157.135 86.6242 156.343 90.1703 155.263 93.5808L3.11414 125.172C1.86325 121.811 0.900415 118.32 0.50059 114.748C0.259165 112.591 0.236216 110.408 0.493166 108.251C0.646504 106.964 0.901992 105.703 1.26143 104.458C3.09349 98.1111 7.64749 93.1678 12.5617 88.9766C13.2673 88.375 18.7517 83.8847 20.3992 82.4121C23.2008 79.9075 25.8891 77.1737 27.4787 73.7159C30.5961 66.9345 28.8805 59.2377 27.2374 52.3296C26.9252 51.0164 26.5804 49.7117 26.2705 48.3986C25.969 47.1204 25.6635 45.8428 25.4036 44.5556C26.748 44.9037 33.7 41.7642 39.6861 48.3986C46.3967 55.8352 41.7696 67.9868 51.489 69.2081C62.1698 70.5511 63.8258 52.3312 74.2208 51.4057C85.752 50.3787 89.8954 71.8868 97.7434 70.2407C113.193 67.0004 109.097 53.2191 121.249 44.5556Z" fill="#364282"/>
</g>
<g style="mix-blend-mode:lighten">
<path d="M28.1475 72.0321C36.4826 72.8991 37.0322 81.1136 42.2786 86.9362C44.6152 89.5304 48.0926 91.0767 51.368 92.0857C63.6243 95.8611 68.5839 83.7354 81.4882 84.5432C93.7473 85.3105 97.0998 95.8009 105.631 95.7682C114.928 95.7327 125.391 81.7192 129.4 74.0162C131.494 69.99 132.528 63.7866 136.897 61.4809C138.585 60.5897 141.476 60.8398 144.767 61.5203C149.079 65.4411 153.186 69.6751 155.554 75.9681C161.52 91.8254 146.798 102.772 152.792 114.984C156.945 123.444 170.834 129.408 170.549 139.842H10.4319C-16.3027 95.7907 17.334 90.7641 26.5359 75.5C27.216 74.3717 27.7453 73.214 28.1475 72.0321Z" fill="#7581C0"/>
</g>
<g style="mix-blend-mode:lighten">
<path d="M28.1475 72.0321C36.4826 72.8991 35.5326 83.1411 40.779 88.9637C43.1162 91.5578 47.718 93.3295 50.9929 94.3384C63.2497 98.1133 68.5839 83.7354 81.4882 84.5432C93.7474 85.3105 97.0999 95.8009 105.631 95.7682C114.928 95.7327 126.891 82.5603 130.899 74.8572C132.994 70.8305 132.648 65.4687 137.017 63.163C138.705 62.2718 141.476 60.8398 144.767 61.5203C149.079 65.4411 153.186 69.6751 155.554 75.9681C161.52 91.8254 146.798 102.772 152.792 114.984C156.945 123.444 170.834 129.408 170.549 139.842H10.4319C-16.3027 95.7907 17.3341 90.7641 26.5359 75.5C27.216 74.3717 27.7453 73.214 28.1475 72.0321Z" fill="#4F5EAE"/>
</g>
<g style="mix-blend-mode:lighten">
<path d="M156.709 87.659C155.171 97.7184 148.388 106.01 152.792 114.985C156.945 123.444 170.834 129.408 170.549 139.842H10.4323C-3.51785 116.857 -1.03036 104.496 5.84451 95.7642C6.91377 97.9764 8.56155 99.9425 10.415 101.715C13.0674 104.253 15.4369 107.477 18.6642 109.317C27.2065 114.187 34.042 104.807 41.3719 108.106C51.3793 112.61 52.8379 126.474 61.8283 132.378C73.3258 139.928 84.5308 127.246 96.25 128.054C102.207 128.466 106.167 134.498 112.592 132.798C123.093 130.019 120.607 118.133 127.977 112.83C135.168 107.656 142.718 115.181 147.502 109.115C151.711 103.778 151.434 92.4445 156.709 87.659Z" fill="#A0AADE"/>
</g>
<g style="mix-blend-mode:lighten">
<path d="M156.709 87.659C155.171 97.7184 148.388 106.01 152.792 114.985C156.945 123.444 170.834 129.408 170.549 139.842H10.4323C-3.51785 116.857 -1.03036 104.496 5.84451 95.7642C6.91377 97.9764 8.57882 101.726 10.4323 103.499C13.0847 106.035 14.8746 108.894 18.1019 110.734C26.644 115.604 33.1988 107.435 40.5281 110.734C50.5361 115.238 52.8379 126.474 61.8283 132.378C73.3258 139.928 84.5308 127.246 96.25 128.054C102.207 128.466 106.167 134.498 112.592 132.798C123.093 130.019 121.208 120.287 128.576 114.985C135.768 109.81 143.258 116.8 148.042 110.734C152.251 105.397 151.434 92.4445 156.709 87.659Z" fill="#8390D4"/>
</g>
<g style="mix-blend-mode:lighten">
<path d="M147.226 89.5552C148.309 89.5552 149.188 90.4357 149.188 91.5201C149.188 92.6045 148.309 93.4844 147.226 93.4844C146.143 93.4844 145.264 92.6045 145.264 91.5201C145.264 90.4357 146.143 89.5552 147.226 89.5552ZM21.3042 92.0051C21.7119 92.0051 22.0429 92.3369 22.0429 92.7448C22.0429 93.1532 21.7119 93.4844 21.3042 93.4844C20.8966 93.4844 20.5656 93.1532 20.5656 92.7448C20.5656 92.3369 20.8966 92.0051 21.3042 92.0051ZM137.315 94.2827C137.722 94.2827 138.053 94.6139 138.053 95.0223C138.053 95.4307 137.722 95.762 137.315 95.762C136.907 95.762 136.576 95.4307 136.576 95.0223C136.576 94.6139 136.907 94.2827 137.315 94.2827ZM12.5995 95.0223C13.4148 95.0223 14.0768 95.6854 14.0768 96.5016C14.0768 97.3185 13.4148 97.9809 12.5995 97.9809C11.7843 97.9809 11.1223 97.3185 11.1223 96.5016C11.1223 95.6854 11.7843 95.0223 12.5995 95.0223ZM32.9557 99.9774C33.7708 99.9774 34.4328 100.64 34.4328 101.457C34.4328 102.274 33.7708 102.936 32.9557 102.936C32.1401 102.936 31.4786 102.274 31.4786 101.457C31.4786 100.64 32.1401 99.9774 32.9557 99.9774ZM127.136 102.56C127.951 102.56 128.613 103.223 128.613 104.04C128.613 104.856 127.951 105.519 127.136 105.519C126.32 105.519 125.659 104.856 125.659 104.04C125.659 103.223 126.32 102.56 127.136 102.56ZM22.7783 101.874C24.3749 101.874 25.6713 103.172 25.6713 104.771C25.6713 106.37 24.3749 107.668 22.7783 107.668C21.1818 107.668 19.8856 106.37 19.8856 104.771C19.8856 103.172 21.1818 101.874 22.7783 101.874ZM141.694 101.936C143.291 101.936 144.587 103.233 144.587 104.833C144.587 106.432 143.291 107.729 141.694 107.729C140.098 107.729 138.801 106.432 138.801 104.833C138.801 103.233 140.098 101.936 141.694 101.936ZM122.611 110.949C123.096 110.949 123.489 111.343 123.489 111.828C123.489 112.313 123.096 112.706 122.611 112.706C122.127 112.706 121.734 112.313 121.734 111.828C121.734 111.343 122.127 110.949 122.611 110.949Z" fill="#8390D4"/>
</g>
<g style="mix-blend-mode:lighten">
<path d="M110.549 139.842C110.845 138.051 111.8 136.201 113.618 134.355C120.053 127.818 125.8 133.265 132.743 131.798C137.153 130.867 138.827 123.095 144.307 120.294C148.83 117.982 152.324 119.976 155.918 119.437C161.569 125.786 170.782 131.325 170.549 139.842H110.549ZM0.351608 112.962C1.43729 112.654 2.55143 112.603 3.52883 112.925C9.74525 114.972 11.7639 122.461 17.6574 124.669C23.0826 126.702 29.5447 122.441 35.0392 125.111C38.4823 126.783 39.1792 133.2 42.1858 133.804C43.9768 134.164 45.9191 133.245 47.637 132.838C53.5005 131.45 59.2408 132.543 63.8134 136.565C65.0492 137.652 66.069 138.748 66.8908 139.842H10.4316C3.62114 128.62 0.728428 119.931 0.35144 112.962H0.351608Z" fill="#BFC6ED"/>
</g>
<g style="mix-blend-mode:lighten">
<path d="M110.549 139.842C110.845 138.051 111.8 136.201 113.618 134.355C120.053 127.818 126.705 134.305 133.649 132.838C138.059 131.907 139.073 124.633 144.552 121.832C149.075 119.519 152.324 119.976 155.918 119.437C161.569 125.786 170.782 131.325 170.549 139.842H110.549ZM0.351608 112.962C1.43729 112.654 2.55143 112.603 3.52883 112.925C9.74525 114.972 10.7658 124.066 16.6594 126.274C22.0845 128.307 28.3933 123.605 33.8878 126.274C37.3309 127.947 38.6471 134.91 41.6542 135.514C43.4452 135.874 45.9191 133.245 47.637 132.838C53.5005 131.45 59.2408 132.543 63.8134 136.565C65.0492 137.652 66.069 138.748 66.8908 139.842H10.4316C3.62114 128.62 0.728428 119.931 0.35144 112.962H0.351608Z" fill="#A5AFE5"/>
</g>
<g style="mix-blend-mode:lighten">
<path d="M150.166 115.291C150.706 115.291 151.144 115.73 151.144 116.27C151.144 116.811 150.706 117.25 150.166 117.25C149.626 117.25 149.188 116.811 149.188 116.27C149.188 115.73 149.626 115.291 150.166 115.291ZM33.3057 116.27C33.8451 116.27 34.2833 116.709 34.2833 117.25C34.2833 117.791 33.8451 118.229 33.3057 118.229C32.7657 118.229 32.3275 117.791 32.3275 117.25C32.3275 116.709 32.7657 116.27 33.3057 116.27ZM16.7496 114.936C18.0251 114.936 19.0605 115.973 19.0605 117.25C19.0605 118.527 18.0251 119.564 16.7496 119.564C15.4743 119.564 14.4388 118.527 14.4388 117.25C14.4388 115.973 15.4743 114.936 16.7496 114.936ZM131.848 120.425C132.388 120.425 132.826 120.864 132.826 121.405C132.826 121.945 132.388 122.384 131.848 122.384C131.308 122.384 130.87 121.945 130.87 121.405C130.87 120.864 131.308 120.425 131.848 120.425ZM22.4928 120.425C23.3105 120.425 23.9745 121.09 23.9745 121.909C23.9745 122.728 23.3105 123.393 22.4928 123.393C21.675 123.393 21.0111 122.728 21.0111 121.909C21.0111 121.09 21.675 120.425 22.4928 120.425ZM41.6543 119.167C43.3092 119.167 44.6524 120.513 44.6524 122.17C44.6524 123.827 43.3092 125.172 41.6543 125.172C39.9994 125.172 38.6562 123.827 38.6562 122.17C38.6562 120.513 39.9994 119.167 41.6543 119.167ZM135.807 123.393C136.347 123.393 136.785 123.832 136.785 124.373C136.785 124.913 136.347 125.352 135.807 125.352C135.267 125.352 134.828 124.913 134.828 124.373C134.828 123.832 135.267 123.393 135.807 123.393ZM129.198 126.865C130.121 126.865 130.87 127.615 130.87 128.54C130.87 129.463 130.121 130.214 129.198 130.214C128.275 130.214 127.526 129.463 127.526 128.54C127.526 127.615 128.275 126.865 129.198 126.865Z" fill="#A5AFE5"/>
</g>
<g style="mix-blend-mode:lighten">
<path d="M41.6543 18.5341C52.9476 16.2261 65.5009 22.367 75.1787 19.3768C87.6482 15.5247 97.4476 2.50893 111.688 7.47415C119.464 10.1855 123.494 14.0009 125.659 18.3538C121.187 17.0277 116.196 14.6572 112.348 15.6875C104.981 17.6592 107.621 30.2875 100.723 33.3678C86.026 39.9289 79.7429 25.6749 71.181 25.2191C61.4925 24.7031 58.9838 38.1634 45.99 27.7457C42.9548 25.3121 41.7499 22.1202 41.6543 18.5341Z" fill="#5865AB"/>
</g>
<g style="mix-blend-mode:lighten">
<path d="M41.6543 18.534C52.9476 16.2261 65.5009 22.367 75.1787 19.3768C87.6482 15.5247 97.4476 2.50891 111.688 7.47413C119.464 10.1854 123.494 14.0009 125.659 18.3538C121.187 17.0277 116.196 14.6572 112.348 15.6875C104.981 17.6592 106.482 27.5846 99.5834 30.6643C84.8864 37.226 79.7429 25.6749 71.181 25.2191C61.4925 24.7031 57.604 34.3192 47.1899 26.3041C44.1068 23.9313 41.7499 22.1202 41.6543 18.534Z" fill="#364282"/>
</g>
<g style="mix-blend-mode:lighten">
<path d="M131.177 55.1597C132.542 55.1597 133.649 56.2695 133.649 57.6361C133.649 59.0028 132.542 60.112 131.177 60.112C129.812 60.112 128.705 59.0028 128.705 57.6361C128.705 56.2695 129.812 55.1597 131.177 55.1597ZM117.46 62.6983C117.873 62.6983 118.208 63.034 118.208 63.4475C118.208 63.861 117.873 64.1967 117.46 64.1967C117.047 64.1967 116.712 63.861 116.712 63.4475C116.712 63.034 117.047 62.6983 117.46 62.6983ZM125.659 66.6331C126.527 66.6331 127.232 67.339 127.232 68.2082C127.232 69.0774 126.527 69.7833 125.659 69.7833C124.791 69.7833 124.086 69.0774 124.086 68.2082C124.086 67.339 124.791 66.6331 125.659 66.6331ZM33.4693 66.6331C34.5611 66.6331 35.4476 67.5204 35.4476 68.6138C35.4476 69.7072 34.5611 70.5951 33.4693 70.5951C32.3775 70.5951 31.4916 69.7072 31.4916 68.6138C31.4916 67.5204 32.3775 66.6331 33.4693 66.6331ZM40.6654 69.6042C41.211 69.6042 41.6543 70.0481 41.6543 70.5951C41.6543 71.1415 41.211 71.5854 40.6654 71.5854C40.1198 71.5854 39.6765 71.1415 39.6765 70.5951C39.6765 70.0481 40.1198 69.6042 40.6654 69.6042ZM114.987 71.5854C116.352 71.5854 117.46 72.6952 117.46 74.0618C117.46 75.4285 116.352 76.5377 114.987 76.5377C113.623 76.5377 112.515 75.4285 112.515 74.0618C112.515 72.6952 113.623 71.5854 114.987 71.5854ZM52.4593 74.0618C53.824 74.0618 54.9321 75.171 54.9321 76.5377C54.9321 77.9043 53.824 79.0141 52.4593 79.0141C51.0947 79.0141 49.9866 77.9043 49.9866 76.5377C49.9866 75.171 51.0947 74.0618 52.4593 74.0618ZM43.9363 81.5739C44.482 81.5739 44.9252 82.0178 44.9252 82.5642C44.9252 83.1112 44.482 83.5551 43.9363 83.5551C43.3907 83.5551 42.9475 83.1112 42.9475 82.5642C42.9475 82.0178 43.3907 81.5739 43.9363 81.5739Z" fill="#4F5EAE"/>
</g>
<g style="mix-blend-mode:lighten">
<path d="M114.335 19.5182C115.307 19.5182 116.097 20.308 116.097 21.2814C116.097 22.2549 115.307 23.0452 114.335 23.0452C113.363 23.0452 112.574 22.2549 112.574 21.2814C112.574 20.308 113.363 19.5182 114.335 19.5182ZM68.6571 28.3524C70.1781 28.3524 71.4128 29.5889 71.4128 31.1122C71.4128 32.6354 70.1781 33.8725 68.6571 33.8725C67.1361 33.8725 65.9008 32.6354 65.9008 31.1122C65.9008 29.5889 67.1361 28.3524 68.6571 28.3524ZM122.902 31.1122C124.423 31.1122 125.659 32.3492 125.659 33.8725C125.659 35.3957 124.423 36.6323 122.902 36.6323C121.381 36.6323 120.147 35.3957 120.147 33.8725C120.147 32.3492 121.381 31.1122 122.902 31.1122ZM51.9458 36.0036C52.4891 36.0036 52.9307 36.4458 52.9307 36.99C52.9307 37.5342 52.4891 37.9758 51.9458 37.9758C51.4024 37.9758 50.9614 37.5342 50.9614 36.99C50.9614 36.4458 51.4024 36.0036 51.9458 36.0036ZM30.3778 38.5527C30.9921 38.5527 31.491 39.0523 31.491 39.6675C31.491 40.2832 30.9921 40.7829 30.3778 40.7829C29.7636 40.7829 29.2646 40.2832 29.2646 39.6675C29.2646 39.0523 29.7636 38.5527 30.3778 38.5527ZM112.238 39.6675C112.781 39.6675 113.222 40.1097 113.222 40.6539C113.222 41.1981 112.781 41.6397 112.238 41.6397C111.695 41.6397 111.253 41.1981 111.253 40.6539C111.253 40.1097 111.695 39.6675 112.238 39.6675ZM103.276 52.5211C103.68 52.5211 104.007 52.8495 104.007 53.2534C104.007 53.6579 103.68 53.9863 103.276 53.9863C102.872 53.9863 102.545 53.6579 102.545 53.2534C102.545 52.8495 102.872 52.5211 103.276 52.5211ZM61.2945 50.7573C62.2665 50.7573 63.0557 51.5476 63.0557 52.5211C63.0557 53.4945 62.2665 54.2849 61.2945 54.2849C60.3225 54.2849 59.5333 53.4945 59.5333 52.5211C59.5333 51.5476 60.3225 50.7573 61.2945 50.7573ZM51.9458 55.1597C53.6496 55.1597 55.0328 56.545 55.0328 58.2513C55.0328 59.9576 53.6496 61.3429 51.9458 61.3429C50.242 61.3429 48.8588 59.9576 48.8588 58.2513C48.8588 56.545 50.242 55.1597 51.9458 55.1597ZM101.515 58.2513C102.487 58.2513 103.276 59.0417 103.276 60.0151C103.276 60.9885 102.487 61.7789 101.515 61.7789C100.543 61.7789 99.7538 60.9885 99.7538 60.0151C99.7538 59.0417 100.543 58.2513 101.515 58.2513Z" fill="#364282"/>
</g>
<path d="M81.5001 37.7223C80.4527 50.0199 71.2086 60.6494 58.2525 63.1016C42.6359 66.0574 27.5018 56.0199 24.4777 40.7007C21.4538 25.3814 31.6778 10.5437 47.2945 7.58792C51.5205 6.78799 55.7112 6.93953 59.638 7.89044C58.8269 7.95297 58.0112 8.06112 57.1939 8.21548C45.3308 10.4609 37.5644 21.7321 39.8616 33.3694C42.1589 45.0068 53.6552 52.6315 65.5184 50.386C72.9293 48.9833 78.7416 44.0581 81.5001 37.7223Z" fill="#ED9C1A"/>
<path d="M81.5001 37.7223C80.4527 50.0199 70.4492 56.6385 57.4931 59.0907C41.8764 62.0465 31.5259 55.3513 28.1036 40.1125C25.1727 27.0618 31.6772 13.9491 47.0616 9.02894C51.1532 7.72032 55.7111 6.93954 59.6379 7.89044C58.8268 7.95297 58.0112 8.06113 57.1939 8.21548C45.3308 10.4609 37.5643 21.7321 39.8616 33.3694C42.1588 45.0068 53.6552 52.6315 65.5183 50.3861C72.9293 48.9834 78.7416 44.0581 81.5001 37.7223Z" fill="#FFD695"/>
<path d="M81.5001 37.7223C80.4527 50.0199 70.4492 56.6385 57.4931 59.0907C41.8765 62.0465 31.1276 55.4318 28.1036 40.1125C25.0797 24.7933 31.6772 13.9491 47.0616 9.02894C51.1532 7.72031 55.7111 6.93954 59.638 7.89044C41.1784 9.11175 34.1241 24.2767 36.4213 35.914C38.718 47.5514 65.1116 68.9822 81.5001 37.7223Z" fill="#FFBF58"/>
<path d="M37.1661 14.7383C37.5599 14.7445 37.8749 15.0633 37.8687 15.4492C37.8625 15.8357 37.5379 16.1444 37.1442 16.1382C36.7504 16.132 36.4354 15.8131 36.4416 15.4267C36.4478 15.0408 36.7724 14.7321 37.1661 14.7383ZM35.2812 19.4934C36.04 19.5052 36.6469 20.1193 36.6351 20.8634C36.6239 21.6082 35.9978 22.203 35.239 22.1912C34.4796 22.1788 33.8732 21.5648 33.8845 20.8206C33.8963 20.0759 34.5218 19.481 35.2812 19.4934ZM32.2909 35.7191C32.7308 35.7264 33.0824 36.0819 33.0756 36.5134C33.0689 36.9443 32.706 37.2891 32.2662 37.2823C31.8263 37.2756 31.4747 36.9196 31.4815 36.488C31.4882 36.0571 31.851 35.7123 32.2909 35.7191ZM31.8347 42.0132C32.7038 42.0267 33.399 42.7298 33.3855 43.5827C33.3726 44.4355 32.656 45.1166 31.7864 45.1031C30.9167 45.089 30.222 44.386 30.2355 43.5331C30.2485 42.6808 30.9651 41.9991 31.8347 42.0132ZM37.3461 47.4314C38.7265 47.4528 39.8301 48.5699 39.8087 49.9235C39.7879 51.2778 38.65 52.3594 37.2696 52.3374C35.8892 52.316 34.7856 51.1989 34.8064 49.8452C34.8278 48.491 35.9657 47.4094 37.3461 47.4314ZM51.0959 52.5543C51.8547 52.5661 52.4616 53.1802 52.4504 53.9249C52.4385 54.6691 51.813 55.2639 51.0537 55.2521C50.2949 55.2403 49.6879 54.6263 49.6997 53.8815C49.711 53.1374 50.337 52.5425 51.0959 52.5543ZM53.6029 56.105C54.175 56.114 54.6323 56.5771 54.6239 57.1382C54.6149 57.6992 54.1435 58.1476 53.5709 58.1386C52.9988 58.1296 52.5415 57.6666 52.5505 57.1055C52.5589 56.5444 53.0309 56.096 53.6029 56.105Z" fill="#ED9C1A"/>
<path d="M61.8221 22.1816C61.8874 22.047 62.023 21.9619 62.172 21.9619C62.3211 21.9619 62.4572 22.047 62.5225 22.1816L64.3669 25.9881C64.3939 26.0444 64.435 26.0934 64.4856 26.13C64.5362 26.1667 64.5953 26.1903 64.6571 26.1993L68.8421 26.7796C68.9895 26.8004 69.1127 26.9035 69.1583 27.0455C69.2044 27.1874 69.1656 27.3429 69.0582 27.4466L66.0133 30.3798C65.9683 30.4232 65.9346 30.4773 65.9155 30.5364C65.8958 30.5962 65.8913 30.6598 65.9025 30.7212L66.6445 34.8871C66.6703 35.0335 66.6107 35.1828 66.4898 35.2701C66.3694 35.358 66.2097 35.3693 66.078 35.2989L62.3515 33.3052C62.2963 33.2754 62.235 33.2602 62.172 33.2602C62.1096 33.2602 62.0477 33.2754 61.9926 33.3052L58.2666 35.2989C58.135 35.3693 57.9752 35.358 57.8543 35.2701C57.7339 35.1828 57.6737 35.0335 57.7002 34.8871L58.4421 30.7212C58.4528 30.6598 58.4483 30.5962 58.4292 30.5364C58.41 30.4773 58.3763 30.4232 58.3313 30.3798L55.2859 27.4466C55.179 27.3429 55.1397 27.1874 55.1858 27.0455C55.2319 26.9035 55.3551 26.8004 55.5025 26.7796L59.6875 26.1993C59.7493 26.1903 59.8084 26.1667 59.859 26.13C59.9097 26.0934 59.9502 26.0444 59.9777 25.9881L61.8221 22.1816Z" fill="#ED9C1A"/>
<path d="M62.3593 21.8741C62.4245 21.74 62.5601 21.6549 62.7091 21.6549C62.8582 21.6549 62.9943 21.74 63.0596 21.8741L64.904 25.6805C64.931 25.7374 64.9721 25.7859 65.0227 25.823C65.0733 25.8597 65.1324 25.8833 65.1943 25.8918L69.3793 26.4726C69.5266 26.4929 69.6498 26.5959 69.6954 26.7379C69.7415 26.8799 69.7027 27.0359 69.5953 27.1396L66.5505 30.0723C66.5055 30.1156 66.4717 30.1697 66.4526 30.2294C66.4329 30.2892 66.4284 30.3528 66.4396 30.4142L67.1816 34.5795C67.2074 34.7265 67.1478 34.8758 67.0269 34.9631C66.9065 35.051 66.7468 35.0623 66.6151 34.9919L62.8886 32.9977C62.8335 32.9684 62.7721 32.9532 62.7091 32.9532C62.6467 32.9532 62.5848 32.9684 62.5297 32.9977L58.8037 34.9919C58.6721 35.0623 58.5123 35.051 58.3914 34.9631C58.271 34.8758 58.2108 34.7265 58.2373 34.5795L58.9792 30.4142C58.9899 30.3528 58.9854 30.2892 58.9663 30.2294C58.9471 30.1697 58.9134 30.1156 58.8684 30.0723L55.823 27.1396C55.7161 27.0359 55.6768 26.8799 55.7229 26.7379C55.769 26.5959 55.8922 26.4929 56.0396 26.4726L60.2246 25.8918C60.2865 25.8833 60.3455 25.8597 60.3961 25.823C60.4468 25.7859 60.4873 25.7374 60.5148 25.6805L62.3593 21.8741Z" fill="#FFBF58"/>
<path d="M90.7465 60.7457L91.9547 75.304C91.9547 75.304 81.3775 77.2339 74.209 72.9971L75.0426 50.1652L90.7465 60.7457Z" fill="#E58FA0"/>
<path d="M74.6589 60.6624C79.1719 66.8298 84.7181 69.5467 91.3905 68.5062L91.9547 75.3045C91.9547 75.3045 81.3774 77.234 74.2084 72.9971L74.6589 60.6624Z" fill="#F1C2CD"/>
<path d="M72.2441 52.431C72.2441 52.431 73.0367 56.572 73.6026 57.6874L75.9448 59.0862L75.4931 53.3627L72.2441 52.431Z" fill="#673E19"/>
<path d="M77.2397 50.6852C77.2397 50.6852 76.5366 45.5943 72.7869 47.7953C70.4031 49.1946 71.5337 54.6477 75.2985 54.2967C75.2985 54.2967 75.0285 62.2724 80.1529 64.3336C85.2773 66.3943 92.3884 65.5127 94.7126 63.5923C97.0363 61.6713 99.3577 44.3116 99.3577 44.3116L78.0587 42.2053L77.2397 50.6852Z" fill="#ECAABA"/>
<path d="M82.557 48.8014C81.7971 54.7969 78.4035 59.761 80.2609 63.6852C85.3847 65.7459 92.3923 65.6107 94.7121 63.6852C96.6111 62.109 97.6078 55.0713 98.5657 49.4858C95.5384 48.8707 95.5761 47.6708 91.4017 47.8493C89.4966 47.931 87.5604 48.8932 85.9877 48.8786C83.9751 48.86 82.557 48.8014 82.557 48.8014Z" fill="#F1C2CD"/>
<path d="M75.1967 51.9549C75.3463 50.1934 74.3192 49.5202 73.4462 50.012C73.3382 50.0728 73.2993 50.2103 73.3607 50.319C73.4214 50.4272 73.5587 50.4655 73.6667 50.4046C74.2871 50.0554 74.8547 50.6649 74.7483 51.9166C74.7377 52.0406 74.8299 52.1499 74.9531 52.1606C75.0768 52.1707 75.186 52.0789 75.1967 51.9549Z" fill="#C34B67"/>
<path d="M70.717 45.5949C70.533 46.6179 70.7249 49.4289 71.5517 50.5274C71.5275 49.9095 71.6333 48.9597 72.1255 48.4459C74.6027 45.8619 76.9973 48.313 77.2071 50.8722C77.2465 51.3505 77.3145 51.7121 77.3151 52.1915C77.3151 52.4997 77.7758 57.2925 78.205 57.3702C79.1415 57.5392 79.7895 55.5676 79.96 54.9913C80.7593 52.2912 80.8313 49.3737 81.4365 46.6337C83.2489 48.4059 85.7453 48.6098 88.0577 47.7001C89.0905 47.2933 90.2318 46.6692 91.3568 46.5835C92.83 46.4714 94.0737 47.1936 95.4799 47.3964C96.3574 47.5232 98.7705 48.5208 100.475 47.4668C102.148 46.432 102.868 42.0617 101.631 42.0938C96.6994 42.22 75.2698 39.485 70.717 45.5949Z" fill="#673E19"/>
<path d="M83.4222 51.0305C83.4222 51.0305 85.1794 49.2932 87.8159 49.9016C87.9368 49.9292 88.0577 49.8537 88.0859 49.7326C88.1134 49.6115 88.038 49.4904 87.9171 49.4622C85.0275 48.7958 83.1055 50.7105 83.1055 50.7105C83.0172 50.7979 83.0166 50.9409 83.1038 51.0288C83.1915 51.1173 83.3338 51.1178 83.4222 51.0305Z" fill="#6B3333"/>
<path d="M97.2591 52.0811C97.2591 52.0811 95.7386 49.8329 92.7754 49.9326C92.6516 49.9371 92.5538 50.0413 92.5583 50.1658C92.5622 50.2897 92.6662 50.3872 92.7906 50.3832C95.4951 50.292 96.8867 52.3346 96.8867 52.3346C96.957 52.4372 97.0971 52.4642 97.1994 52.3943C97.3024 52.3245 97.3288 52.1842 97.2591 52.0811Z" fill="#6B3333"/>
<path d="M90.4111 54.8431C90.4111 54.8431 90.5405 56.9263 91.1317 58.462C90.9748 58.5645 90.6125 58.7335 89.9375 58.7284C89.8138 58.7279 89.7119 58.8276 89.7108 58.9521C89.7103 59.0766 89.8104 59.178 89.9347 59.1791C91.1756 59.1887 91.5738 58.676 91.5738 58.676C91.6278 58.6113 91.6419 58.5217 91.6093 58.444C90.9899 56.9573 90.86 54.8155 90.86 54.8155C90.8527 54.6916 90.7458 54.5969 90.6221 54.6043C90.4978 54.6122 90.4038 54.7192 90.4111 54.8431Z" fill="#DD6C86"/>
<path d="M85.5726 61.1389C85.5726 61.1389 85.9275 61.9102 86.6414 62.2893C87.0964 62.5315 87.6212 62.5574 88.5752 62.2893C88.6951 62.256 88.7648 62.1315 88.731 62.0116C88.6979 61.8921 88.5735 61.8217 88.4537 61.8555C87.6533 62.0803 87.2342 62.0944 86.8523 61.8916C86.31 61.6031 86.0001 60.9976 86.0001 60.9976C85.9607 60.8793 85.8336 60.815 85.7155 60.8545C85.5979 60.8933 85.5338 61.0206 85.5726 61.1389Z" fill="#FD5858"/>
<path d="M70.6528 48.5732C70.6528 48.5732 83.1071 40.223 102.158 44.5398C102.158 44.5398 102.53 30.1708 97.2979 28.8498C91.7111 27.4387 71.3728 31.0564 68.6222 35.4926C66.5246 38.8766 70.6528 48.5732 70.6528 48.5732Z" fill="#669B67"/>
<path d="M70.5864 33.7705C76.0168 30.4959 89.7356 28.0843 95.7791 28.6132C97.034 31.1792 99.2717 36.7945 99.095 43.9421C86.3612 41.8589 76.9708 45.3465 72.8966 47.3362C71.937 45.3127 69.3124 39.0771 70.5864 33.7705Z" fill="#7DB57C"/>
<path d="M86.1873 51.9448C86.5333 51.9786 86.7695 52.4692 86.7144 53.0405C86.6593 53.6117 86.3336 54.0483 85.9876 54.0145C85.6411 53.9807 85.4049 53.49 85.46 52.9188C85.5151 52.3476 85.8414 51.9115 86.1873 51.9448Z" fill="#333B6B"/>
<path d="M94.3537 52.5363C93.9875 52.5008 93.6433 52.9622 93.5848 53.5661C93.5268 54.1699 93.7766 54.6888 94.1422 54.7243C94.5084 54.7598 94.8526 54.2984 94.9111 53.6945C94.9691 53.0906 94.7193 52.5718 94.3537 52.5363Z" fill="#333B6B"/>
<path d="M72.1114 72.0096C72.1114 72.0096 48.5932 77.1297 44.5911 86.5684C40.5889 96.0065 44.4701 105.218 44.4701 105.218V139.933H123.92C123.92 139.933 121.338 92.6113 115.657 83.6897C109.977 74.7688 95.3865 73.1098 95.3865 73.1098L86.6469 75.3406L72.1114 72.0096Z" fill="#669B67"/>
<path d="M71.9465 72.0096C71.9465 72.0096 48.5926 77.1297 44.5904 86.5684C40.5883 96.0065 44.4695 105.218 44.4695 105.218V139.933H106.647V106.862L110.05 139.933H123.92C123.92 139.933 121.337 92.6113 115.657 83.6897C109.977 74.7688 94.5427 73.1098 94.5427 73.1098L86.6469 75.3355L71.9465 72.0096Z" fill="#AFD2AF"/>
<path d="M72.6159 73.1098C72.6159 73.1098 50.7431 77.3607 46.7409 86.7988C42.7387 96.2374 44.4701 105.218 44.4701 105.218V139.933H106.647V106.862L110.051 139.933H122.673C122.673 139.933 120.417 93.4348 114.736 84.5139C109.056 75.5924 93.8536 73.7295 93.8536 73.7295L86.6475 75.3451L72.6159 73.1098Z" fill="#7DB57C"/>
<path d="M86.1277 75.7428L85.1411 139.934H89.2912V75.5006C88.6894 75.4414 86.7296 75.1468 86.1277 75.7434V75.7428Z" fill="#A9CEA9"/>
<path d="M74.1122 67.2624C74.1122 67.2624 80.9207 74.2646 86.6469 75.3237L85.5619 80.196C85.5619 80.196 75.2057 76.1191 71.5674 72.0096C71.5292 69.9917 72.5709 68.264 74.1122 67.2624Z" fill="#F5FAF9"/>
<path d="M86.647 75.3237C86.647 75.3237 90.5085 71.2023 91.6588 69.1687C93.5556 69.4188 94.3386 71.066 94.5428 73.0106L88.9352 79.5904L86.647 75.3237Z" fill="#F5FAF9"/>
<path d="M66.1809 89.336L75.3379 100.048L92.7804 92.1341C92.7804 92.1341 113.627 85.3133 113.561 92.8918C113.464 103.932 103.398 108.167 103.634 108.597C104.672 110.486 105.425 112.121 105.644 113.201C105.644 113.201 76.3751 135.409 66.1809 133.073C60.6437 131.804 56.0188 130.11 52.8199 125.928C51.6966 124.46 52.8199 139.934 52.8199 139.934H44.5911V104.86L66.1809 89.336Z" fill="#669B67"/>
<path d="M122.766 85.1493L129.899 69.1693L106.659 85.9256L99.5259 101.906L122.766 85.1493Z" fill="#B67409"/>
<path d="M122.228 85.5375L129.26 69.7839L106.558 86.1521L99.5259 101.906L122.228 85.5375Z" fill="#E29E51"/>
<path d="M122.335 85.3223L126.735 67.9744L103.494 84.7308L99.0951 102.079L122.335 85.3223Z" fill="#FFE4B9"/>
<path d="M122.335 85.3223L122.468 67.9744L99.2273 84.7308L99.0951 102.079L122.335 85.3223Z" fill="#FFF8EC"/>
<path d="M119.618 84.7635L101.809 73.3639L78.1279 90.4379L95.9378 101.838L120.062 85.097L119.618 84.7635Z" fill="#C47C0A"/>
<path d="M119.178 85.0812L101.869 74.0021L78.6285 90.759L95.9378 101.838L119.178 85.0812Z" fill="#F7BD60"/>
<path d="M108.731 88.2505C111.997 85.7189 107.347 84.9139 108.344 81.695C103.842 82.4403 102.665 79.1313 99.1508 81.4877L85.9106 91.0322L95.7296 97.6232L108.731 88.2505Z" fill="#FFE5BB"/>
<path d="M122.629 85.2327L119.062 85.0609L95.9377 101.734L99.5046 101.906L122.629 85.2327Z" fill="#D39229"/>
<path d="M92.1903 96.2994C92.1903 96.2994 98.2377 91.0227 100.668 90.6047C104.244 89.9895 101.896 94.237 100.668 95.2139C103.984 96.2622 107.691 89.8644 111.686 90.6047C115.082 91.2345 110.812 100.842 107.459 103.779C104.569 106.312 100.08 107.286 98.0797 106.695L92.1903 96.2994Z" fill="#E4A0B0"/>
<path d="M103.634 104.171C100.423 104.103 100.24 101.618 98.4588 99.7673C96.0007 97.2131 93.8992 95.1378 94.0027 94.7914C95.9844 93.1977 99.0894 90.8762 100.668 90.6047C104.244 89.9895 101.896 94.237 100.668 95.2139C103.984 96.2622 108.01 88.8724 111.686 90.6047C115.628 92.4625 105.706 104.215 103.634 104.171Z" fill="#F1C2CD"/>
<path d="M66.1809 89.336L74.6634 101.906L91.8242 92.6974C91.8242 92.6974 102.642 107.052 103.634 111.934C103.634 111.934 77.3139 133.319 67.1192 130.983C50.5114 127.177 44.5911 104.86 44.5911 104.86L66.1809 89.336Z" fill="#7DB57C"/>
</g>
<defs>
<clipPath id="clip0_2093_521">
<rect width="169" height="131" fill="white"/>
</clipPath>
</defs>
</svg>
