<svg width="26" height="24" viewBox="0 0 26 24" fill="none" xmlns="http://www.w3.org/2000/svg">
<path fill-rule="evenodd" clip-rule="evenodd" d="M22.5428 20.344C22.5428 21 21.9265 21.5238 21.2365 21.5238H17.4865C16.7978 21.5238 16.2928 21 16.2928 20.344V16.7726C16.2928 16.1166 16.7978 15.5714 17.4865 15.5714H21.2365C21.9265 15.5714 22.5428 16.1166 22.5428 16.7726V20.344ZM21.2365 13.1905H17.4865C15.4153 13.1905 13.7928 14.8 13.7928 16.7726V20.344C13.7928 22.3166 15.4153 23.9047 17.4865 23.9047H21.2365C23.3078 23.9047 25.0428 22.3166 25.0428 20.344V16.7726C25.0428 14.8 23.3078 13.1905 21.2365 13.1905ZM8.79278 20.344C8.79278 21 8.17653 21.5238 7.48653 21.5238H3.73654C3.04779 21.5238 2.54278 21 2.54278 20.344V16.7726C2.54278 16.1166 3.04779 15.5714 3.73654 15.5714H7.48653C8.17653 15.5714 8.79278 16.1166 8.79278 16.7726V20.344ZM7.48653 13.1905H3.73654C1.66529 13.1905 0.0427856 14.8 0.0427856 16.7726V20.344C0.0427856 22.3166 1.66529 23.9047 3.73654 23.9047H7.48653C9.55778 23.9047 11.2928 22.3166 11.2928 20.344V16.7726C11.2928 14.8 9.55778 13.1905 7.48653 13.1905ZM22.5428 7.24879C22.5428 7.90474 21.9265 8.42855 21.2365 8.42855H17.4865C16.7978 8.42855 16.2928 7.90474 16.2928 7.24879V3.67736C16.2928 3.0214 16.7978 2.47617 17.4865 2.47617H21.2365C21.9265 2.47617 22.5428 3.0214 22.5428 3.67736V7.24879ZM21.2365 0.0952148H17.4865C15.4153 0.0952148 13.7928 1.70474 13.7928 3.67736V7.24879C13.7928 9.2214 15.4153 10.8095 17.4865 10.8095H21.2365C23.3078 10.8095 25.0428 9.2214 25.0428 7.24879V3.67736C25.0428 1.70474 23.3078 0.0952148 21.2365 0.0952148ZM8.79278 7.24879C8.79278 7.90474 8.17653 8.42855 7.48653 8.42855H3.73654C3.04779 8.42855 2.54278 7.90474 2.54278 7.24879V3.67736C2.54278 3.0214 3.04779 2.47617 3.73654 2.47617H7.48653C8.17653 2.47617 8.79278 3.0214 8.79278 3.67736V7.24879ZM7.48653 0.0952148H3.73654C1.66529 0.0952148 0.0427856 1.70474 0.0427856 3.67736V7.24879C0.0427856 9.2214 1.66529 10.8095 3.73654 10.8095H7.48653C9.55778 10.8095 11.2928 9.2214 11.2928 7.24879V3.67736C11.2928 1.70474 9.55778 0.0952148 7.48653 0.0952148Z" fill="#8789A3"/>
</svg>
