<svg width="71" height="70" viewBox="0 0 71 70" fill="none" xmlns="http://www.w3.org/2000/svg">
<g clip-path="url(#clip0_2109_1292)">
<path d="M52.73 37.7967L37.9218 67.0389C37.3857 68.0965 36.472 68.6801 35.4485 68.6298C34.4242 68.683 33.5107 68.0965 32.9755 67.0387L18.1672 37.7969C17.426 36.333 17.426 33.6667 18.1672 32.2028L32.9753 2.96098C33.4897 1.94485 34.3531 1.36696 35.3275 1.36696C35.3676 1.36696 35.4079 1.36783 35.4483 1.3699C36.4713 1.31961 37.3857 1.90303 37.9216 2.96098L52.7297 32.2028C53.4713 33.6667 53.4713 36.3332 52.73 37.7967ZM49.9121 33.5939L35.4486 5.03283L20.985 33.5941C20.6922 34.1722 20.6922 35.8277 20.985 36.4058L35.4486 64.9668L49.9121 36.4058C50.2049 35.8277 50.2049 34.1722 49.9121 33.5939ZM24.6109 11.903C24.3259 11.3827 23.7837 11.0873 23.224 11.0873C22.9709 11.0873 22.7141 11.1478 22.4759 11.275C13.6366 15.9961 8.14564 25.0871 8.14564 34.9998C8.14564 44.9125 13.6366 54.0036 22.4759 58.7247C23.2411 59.1334 24.1969 58.8522 24.6109 58.0967C25.0248 57.3411 24.7401 56.3974 23.9748 55.9887C16.1542 51.8117 11.2961 43.7691 11.2961 34.9999C11.2961 26.2307 16.1544 18.1882 23.9748 14.0111C24.7401 13.6023 25.0248 12.6587 24.6109 11.903ZM3.15051 34.9999C3.15051 34.1409 2.44532 33.4446 1.57525 33.4446C0.705189 33.4446 0 34.1409 0 34.9999C0 49.9793 9.64055 63.2932 23.9892 68.1302C24.8122 68.4081 25.7076 67.9738 25.9889 67.1609C26.27 66.348 25.8305 65.464 25.0072 65.1863C11.9341 60.7794 3.15051 48.6483 3.15051 34.9999ZM46.2864 58.0967C46.7003 58.8522 47.656 59.1334 48.4214 58.7247C57.2605 54.0036 62.7515 44.9128 62.7515 34.9999C62.7515 25.0871 57.2605 15.9962 48.4214 11.2752C48.1832 11.148 47.9264 11.0875 47.6733 11.0875C47.1136 11.0875 46.5715 11.3828 46.2864 11.9032C45.8724 12.6587 46.1572 13.6024 46.9224 14.0111C54.7429 18.1882 59.6011 26.2306 59.6011 34.9999C59.6011 43.7693 54.7429 51.8117 46.9224 55.9887C46.1572 56.3974 45.8724 57.3411 46.2864 58.0967ZM35.4485 42.1293C31.4667 42.1293 28.2277 38.9311 28.2277 34.9999C28.2277 31.0688 31.4669 27.8705 35.4485 27.8705C39.43 27.8705 42.6692 31.0688 42.6692 34.9999C42.6692 38.9311 39.43 42.1293 35.4485 42.1293ZM35.4485 30.9812C33.2041 30.9812 31.3782 32.784 31.3782 34.9999C31.3782 37.2159 33.2041 39.0187 35.4485 39.0187C37.6928 39.0187 39.5187 37.2159 39.5187 34.9999C39.5187 32.784 37.693 30.9812 35.4485 30.9812ZM70.8974 34.9999C70.8974 20.1966 61.406 6.93394 47.2795 1.99721C47.1057 1.93638 46.9282 1.90752 46.7539 1.90752C46.1052 1.90752 45.4977 2.3062 45.2689 2.9444C44.9787 3.7542 45.4083 4.64297 46.2283 4.92949C59.0993 9.42729 67.7469 21.5116 67.7469 34.9998C67.7469 35.8588 68.4521 36.5551 69.3222 36.5551C70.1922 36.5551 70.8974 35.859 70.8974 34.9999Z" fill="#364282" fill-opacity="0.15"/>
</g>
<defs>
<clipPath id="clip0_2109_1292">
<rect width="70.8974" height="70" fill="white" transform="matrix(1 0 0 -1 0 70)"/>
</clipPath>
</defs>
</svg>
