<svg width="288" height="287" viewBox="0 0 288 287" fill="none" xmlns="http://www.w3.org/2000/svg">
<g clip-path="url(#clip0_2114_2245)">
<path d="M144 278.592C218.609 278.592 279.092 218.109 279.092 143.5C279.092 68.8909 218.609 8.4082 144 8.4082C69.3909 8.4082 8.9082 68.8909 8.9082 143.5C8.9082 218.109 69.3909 278.592 144 278.592Z" fill="white"/>
<g filter="url(#filter0_d_2114_2245)">
<path fill-rule="evenodd" clip-rule="evenodd" d="M144 10.6504C70.6292 10.6504 11.1504 70.1292 11.1504 143.5C11.1504 216.871 70.6292 276.35 144 276.35C217.371 276.35 276.85 216.871 276.85 143.5C276.85 70.1292 217.371 10.6504 144 10.6504ZM0.5 143.5C0.5 64.2471 64.7471 0 144 0C223.253 0 287.5 64.2471 287.5 143.5C287.5 222.753 223.253 287 144 287C64.7471 287 0.5 222.753 0.5 143.5Z" fill="#D18DF8"/>
</g>
<path d="M143.72 229.264C190.931 229.264 229.203 190.991 229.203 143.78C229.203 96.5691 190.931 58.2969 143.72 58.2969C96.5085 58.2969 58.2363 96.5691 58.2363 143.78C58.2363 190.991 96.5085 229.264 143.72 229.264Z" fill="#D8C4FF"/>
<mask id="mask0_2114_2245" style="mask-type:alpha" maskUnits="userSpaceOnUse" x="58" y="58" width="172" height="172">
<path d="M143.72 229.264C190.931 229.264 229.203 190.991 229.203 143.78C229.203 96.5691 190.931 58.2969 143.72 58.2969C96.5085 58.2969 58.2363 96.5691 58.2363 143.78C58.2363 190.991 96.5085 229.264 143.72 229.264Z" fill="black"/>
</mask>
<g mask="url(#mask0_2114_2245)">
<path fill-rule="evenodd" clip-rule="evenodd" d="M214.069 194.51L94.1116 75.113L98.8568 70.3455L218.814 189.742L214.069 194.51Z" fill="#DDCBFF"/>
<path fill-rule="evenodd" clip-rule="evenodd" d="M115.412 232.627L233.364 113.231L238.15 117.958L120.197 237.354L115.412 232.627Z" fill="#DDCBFF"/>
<path fill-rule="evenodd" clip-rule="evenodd" d="M90.1875 215.811L214.068 89.127L218.878 93.8299L94.9968 220.513L90.1875 215.811Z" fill="#DDCBFF"/>
<path fill-rule="evenodd" clip-rule="evenodd" d="M67.7656 192.828L190.525 67.8261L195.325 72.5393L72.5649 197.541L67.7656 192.828Z" fill="#DDCBFF"/>
<path fill-rule="evenodd" clip-rule="evenodd" d="M36.9355 168.725L159.695 43.7227L164.495 48.4358L41.7348 173.438L36.9355 168.725Z" fill="#DDCBFF"/>
<path fill-rule="evenodd" clip-rule="evenodd" d="M237.612 179.375L117.655 59.9783L122.4 55.2107L242.357 174.607L237.612 179.375Z" fill="#DDCBFF"/>
<path fill-rule="evenodd" clip-rule="evenodd" d="M183.799 228.142L63.842 108.746L68.5873 103.978L188.544 223.375L183.799 228.142Z" fill="#DDCBFF"/>
<path fill-rule="evenodd" clip-rule="evenodd" d="M166.422 252.246L46.4648 132.849L51.2101 128.082L171.167 247.478L166.422 252.246Z" fill="#DDCBFF"/>
<path d="M111.769 164.24C118.115 164.24 123.26 159.095 123.26 152.749C123.26 146.403 118.115 141.258 111.769 141.258C105.422 141.258 100.277 146.403 100.277 152.749C100.277 159.095 105.422 164.24 111.769 164.24Z" fill="#DDCBFF"/>
<path d="M111.769 159.756C115.638 159.756 118.775 156.619 118.775 152.749C118.775 148.879 115.638 145.742 111.769 145.742C107.899 145.742 104.762 148.879 104.762 152.749C104.762 156.619 107.899 159.756 111.769 159.756Z" fill="#D8C4FF"/>
</g>
<path d="M219.825 235.419L221.16 234.395L214.559 225.731L213.224 226.754L219.825 235.419Z" fill="#062748"/>
<path d="M211.15 241.117L212.565 240.208L206.672 231.046L205.257 231.955L211.15 241.117Z" fill="#062748"/>
<path d="M227.602 228.87L228.857 227.749L221.65 219.585L220.396 220.706L227.602 228.87Z" fill="#062748"/>
<path d="M235.227 221.046L236.364 219.803L228.413 212.376L227.276 213.618L235.227 221.046Z" fill="#062748"/>
<path d="M241.259 212.796L242.241 211.425L233.507 204.964L232.524 206.334L241.259 212.796Z" fill="#062748"/>
<path d="M205.403 253.488L207.872 252.16L199.39 236.545L196.921 237.873L205.403 253.488Z" fill="#062748"/>
<path d="M164.219 260.61L165.879 260.341L164.166 249.584L162.506 249.853L164.219 260.61Z" fill="#062748"/>
<path d="M153.881 261.523L155.557 261.393L154.703 250.533L153.026 250.663L153.881 261.523Z" fill="#062748"/>
<path d="M174.17 258.523L175.805 258.129L173.322 247.527L171.686 247.921L174.17 258.523Z" fill="#062748"/>
<path d="M184.59 255.24L186.179 254.683L182.691 244.377L181.102 244.934L184.59 255.24Z" fill="#062748"/>
<path d="M193.808 250.828L195.323 250.086L190.687 240.26L189.173 241.002L193.808 250.828Z" fill="#062748"/>
<path d="M142.962 269.702L145.766 269.7L145.685 251.93L142.882 251.931L142.962 269.702Z" fill="#062748"/>
<path d="M255.521 185.046L256.149 183.485L246.056 179.389L245.428 180.949L255.521 185.046Z" fill="#062748"/>
<path d="M250.956 194.366L251.711 192.863L241.974 187.979L241.218 189.482L250.956 194.366Z" fill="#062748"/>
<path d="M258.879 175.449L259.388 173.845L249.029 170.489L248.521 172.092L258.879 175.449Z" fill="#062748"/>
<path d="M261.458 164.833L261.803 163.185L251.179 160.841L250.833 162.488L261.458 164.833Z" fill="#062748"/>
<path d="M262.449 154.661L262.597 152.981L251.79 151.867L251.642 153.547L262.449 154.661Z" fill="#062748"/>
<path d="M252.309 207.941L253.758 205.541L238.506 196.42L237.058 198.82L252.309 207.941Z" fill="#062748"/>
<path d="M261.458 123.747L261.231 122.08L250.434 123.519L250.661 125.186L261.458 123.747Z" fill="#062748"/>
<path d="M262.107 134.105L262.019 132.425L251.141 133.003L251.229 134.683L262.107 134.105Z" fill="#062748"/>
<path d="M259.624 113.746L259.272 112.101L248.61 114.314L248.963 115.959L259.624 113.746Z" fill="#062748"/>
<path d="M256.607 103.246L256.091 101.643L245.7 104.867L246.215 106.47L256.607 103.246Z" fill="#062748"/>
<path d="M252.431 93.9182L251.728 92.3854L241.787 96.7692L242.49 98.302L252.431 93.9182Z" fill="#062748"/>
<path d="M270.005 145.227L270.075 142.425L252.309 142.054L252.239 144.856L270.005 145.227Z" fill="#062748"/>
<path d="M235.465 68.2397L234.448 66.9007L225.756 73.4664L226.774 74.8053L235.465 68.2397Z" fill="#062748"/>
<path d="M241.128 76.9377L240.225 75.5191L231.039 81.3751L231.942 82.7938L241.128 76.9377Z" fill="#062748"/>
<path d="M228.948 60.4358L227.832 59.1769L219.64 66.3499L220.756 67.6088L228.948 60.4358Z" fill="#062748"/>
<path d="M221.155 52.7798L219.917 51.6381L212.457 59.5585L213.695 60.7002L221.155 52.7798Z" fill="#062748"/>
<path d="M212.929 46.7142L211.563 45.7257L205.066 54.4336L206.432 55.4221L212.929 46.7142Z" fill="#062748"/>
<path d="M253.477 82.7344L252.159 80.2602L236.509 88.6792L237.827 91.1534L253.477 82.7344Z" fill="#062748"/>
<path d="M185.27 32.3459L183.693 31.7635L180.005 41.7549L181.582 42.3372L185.27 32.3459Z" fill="#062748"/>
<path d="M194.726 36.6237L193.201 35.9153L188.714 45.5745L190.239 46.2829L194.726 36.6237Z" fill="#062748"/>
<path d="M175.586 29.2571L173.97 28.7926L171.029 39.0287L172.645 39.4932L175.586 29.2571Z" fill="#062748"/>
<path d="M164.917 26.9567L163.263 26.653L161.34 37.1283L162.994 37.432L164.917 26.9567Z" fill="#062748"/>
<path d="M154.752 26.2038L153.074 26.0946L152.383 36.7225L154.061 36.8317L154.752 26.2038Z" fill="#062748"/>
<path d="M208.188 35.0024L205.743 33.6329L197.252 48.7941L199.697 50.1636L208.188 35.0024Z" fill="#062748"/>
<path d="M68.452 52.4803L67.1172 53.5035L73.7181 62.1682L75.0529 61.145L68.452 52.4803Z" fill="#062748"/>
<path d="M77.1269 46.7828L75.7119 47.6916L81.6052 56.8534L83.0202 55.9446L77.1269 46.7828Z" fill="#062748"/>
<path d="M60.6745 59.0294L59.4202 60.1506L66.6264 68.3139L67.8807 67.1927L60.6745 59.0294Z" fill="#062748"/>
<path d="M53.0502 66.8536L51.9136 68.0958L59.8643 75.5232L61.0009 74.281L53.0502 66.8536Z" fill="#062748"/>
<path d="M47.0181 75.1035L46.0352 76.4737L54.7694 82.9354L55.7523 81.5652L47.0181 75.1035Z" fill="#062748"/>
<path d="M82.8735 34.4106L80.4048 35.7386L88.8873 51.354L91.3561 50.026L82.8735 34.4106Z" fill="#062748"/>
<path d="M124.058 27.2887L122.398 27.5582L124.111 38.3152L125.771 38.0458L124.058 27.2887Z" fill="#062748"/>
<path d="M134.396 26.3759L132.719 26.5067L133.574 37.3667L135.251 37.2359L134.396 26.3759Z" fill="#062748"/>
<path d="M114.107 29.3761L112.471 29.7701L114.955 40.372L116.591 39.978L114.107 29.3761Z" fill="#062748"/>
<path d="M103.687 32.6595L102.098 33.2158L105.586 43.5218L107.175 42.9656L103.687 32.6595Z" fill="#062748"/>
<path d="M94.4687 37.0713L92.9543 37.8131L97.5896 47.6393L99.104 46.8976L94.4687 37.0713Z" fill="#062748"/>
<path d="M145.315 18.1976L142.511 18.1989L142.592 35.9693L145.395 35.968L145.315 18.1976Z" fill="#062748"/>
<path d="M32.7563 102.853L32.1284 104.414L42.2214 108.51L42.8493 106.95L32.7563 102.853Z" fill="#062748"/>
<path d="M37.3215 93.5331L36.5664 95.0357L46.3035 99.9202L47.0586 98.4176L37.3215 93.5331Z" fill="#062748"/>
<path d="M29.3973 112.45L28.8887 114.054L39.2474 117.411L39.756 115.807L29.3973 112.45Z" fill="#062748"/>
<path d="M26.8192 123.066L26.4734 124.714L37.0981 127.059L37.4439 125.411L26.8192 123.066Z" fill="#062748"/>
<path d="M25.8282 133.238L25.6799 134.918L36.4873 136.032L36.6355 134.352L25.8282 133.238Z" fill="#062748"/>
<path d="M35.9676 79.9589L34.519 82.3589L49.7706 91.4794L51.2192 89.0794L35.9676 79.9589Z" fill="#062748"/>
<path d="M26.8188 164.153L27.0459 165.819L37.843 164.38L37.6159 162.714L26.8188 164.153Z" fill="#062748"/>
<path d="M26.1693 153.794L26.2573 155.474L37.1355 154.896L37.0475 153.216L26.1693 153.794Z" fill="#062748"/>
<path d="M28.6524 174.153L29.0046 175.798L39.6663 173.585L39.3141 171.94L28.6524 174.153Z" fill="#062748"/>
<path d="M31.6697 184.653L32.1853 186.256L42.5767 183.032L42.0611 181.429L31.6697 184.653Z" fill="#062748"/>
<path d="M35.8456 193.981L36.5486 195.514L46.4895 191.13L45.7865 189.597L35.8456 193.981Z" fill="#062748"/>
<path d="M18.2712 142.672L18.2012 145.474L35.9679 145.846L36.0379 143.043L18.2712 142.672Z" fill="#062748"/>
<path d="M52.8114 219.659L53.8291 220.998L62.5205 214.433L61.5028 213.094L52.8114 219.659Z" fill="#062748"/>
<path d="M47.1492 210.961L48.0522 212.38L57.2379 206.524L56.3349 205.105L47.1492 210.961Z" fill="#062748"/>
<path d="M59.3287 227.463L60.4448 228.722L68.6373 221.549L67.5212 220.29L59.3287 227.463Z" fill="#062748"/>
<path d="M67.1223 235.119L68.3599 236.261L75.8195 228.341L74.5819 227.199L67.1223 235.119Z" fill="#062748"/>
<path d="M75.3474 241.185L76.7136 242.174L83.2108 233.466L81.8445 232.477L75.3474 241.185Z" fill="#062748"/>
<path d="M34.8004 205.165L36.1184 207.639L51.7681 199.22L50.4502 196.746L34.8004 205.165Z" fill="#062748"/>
<path d="M103.006 255.553L104.584 256.136L108.272 246.144L106.695 245.562L103.006 255.553Z" fill="#062748"/>
<path d="M93.5503 251.275L95.0754 251.984L99.5622 242.325L98.037 241.616L93.5503 251.275Z" fill="#062748"/>
<path d="M112.69 258.642L114.307 259.107L117.248 248.871L115.632 248.406L112.69 258.642Z" fill="#062748"/>
<path d="M123.359 260.943L125.013 261.246L126.937 250.771L125.283 250.467L123.359 260.943Z" fill="#062748"/>
<path d="M133.524 261.695L135.202 261.805L135.894 251.177L134.216 251.067L133.524 261.695Z" fill="#062748"/>
<path d="M80.0883 252.897L82.5337 254.266L91.0244 239.105L88.5791 237.736L80.0883 252.897Z" fill="#062748"/>
<path d="M153.047 66.7051H149.212L137.676 49.2496V66.7051H133.842V43.2966H137.676L149.212 60.7184V43.2966H153.047V66.7051Z" fill="#062748"/>
<path d="M144.356 243.513C142.786 243.513 141.374 243.244 140.118 242.706C138.863 242.145 137.876 241.36 137.159 240.351C136.441 239.342 136.082 238.165 136.082 236.82H140.185C140.275 237.829 140.668 238.658 141.363 239.309C142.08 239.959 143.078 240.284 144.356 240.284C145.679 240.284 146.71 239.97 147.45 239.342C148.19 238.692 148.56 237.862 148.56 236.853C148.56 236.069 148.325 235.43 147.854 234.936C147.405 234.443 146.834 234.062 146.138 233.793C145.466 233.524 144.524 233.232 143.313 232.918C141.789 232.515 140.544 232.111 139.58 231.708C138.638 231.282 137.831 230.631 137.159 229.757C136.486 228.883 136.15 227.717 136.15 226.259C136.15 224.914 136.486 223.737 137.159 222.728C137.831 221.719 138.773 220.945 139.984 220.407C141.194 219.869 142.596 219.6 144.188 219.6C146.452 219.6 148.302 220.172 149.737 221.315C151.195 222.436 152.002 223.983 152.159 225.956H147.921C147.854 225.104 147.45 224.376 146.71 223.77C145.97 223.165 144.995 222.862 143.784 222.862C142.686 222.862 141.789 223.142 141.094 223.703C140.398 224.264 140.051 225.071 140.051 226.125C140.051 226.842 140.264 227.436 140.69 227.907C141.138 228.356 141.699 228.714 142.372 228.983C143.044 229.252 143.964 229.544 145.13 229.858C146.677 230.284 147.932 230.71 148.896 231.136C149.883 231.562 150.713 232.223 151.385 233.12C152.08 233.995 152.428 235.172 152.428 236.652C152.428 237.84 152.103 238.961 151.452 240.015C150.825 241.069 149.894 241.921 148.661 242.571C147.45 243.199 146.015 243.513 144.356 243.513Z" fill="#062748"/>
<path d="M44.3909 127.901L67.7657 134.829V139.168L50.0748 144.078L67.7657 149.291L67.7993 153.596L44.3909 160.222V156.152L63.427 151.309L44.3909 146.062V141.757L63.3261 136.88L44.3909 132.004V127.901Z" fill="#062748"/>
<path d="M239.394 140.478H232.533V148.549H229.405V140.478H222.241V149.558H219.113V136.643H242.522V149.558H239.394V140.478Z" fill="#062748"/>
</g>
<defs>
<filter id="filter0_d_2114_2245" x="-3.5" y="0" width="295" height="295" filterUnits="userSpaceOnUse" color-interpolation-filters="sRGB">
<feFlood flood-opacity="0" result="BackgroundImageFix"/>
<feColorMatrix in="SourceAlpha" type="matrix" values="0 0 0 0 0 0 0 0 0 0 0 0 0 0 0 0 0 0 127 0" result="hardAlpha"/>
<feOffset dy="4"/>
<feGaussianBlur stdDeviation="2"/>
<feComposite in2="hardAlpha" operator="out"/>
<feColorMatrix type="matrix" values="0 0 0 0 0 0 0 0 0 0 0 0 0 0 0 0 0 0 0.1 0"/>
<feBlend mode="normal" in2="BackgroundImageFix" result="effect1_dropShadow_2114_2245"/>
<feBlend mode="normal" in="SourceGraphic" in2="effect1_dropShadow_2114_2245" result="shape"/>
</filter>
<clipPath id="clip0_2114_2245">
<rect width="287" height="287" fill="white" transform="translate(0.5)"/>
</clipPath>
</defs>
</svg>
