<svg width="76" height="76" viewBox="0 0 76 76" fill="none" xmlns="http://www.w3.org/2000/svg">
<g clip-path="url(#clip0_2111_829)">
<path d="M37.9611 0.531092L0.270603 11.0531L0.349033 71.7984L38.0584 75.9391L75.757 71.7011L75.6786 10.9557L37.9611 0.531092Z" fill="black"/>
<path d="M38.0584 75.939L75.757 71.701L75.6786 10.9557L37.9611 0.531067L38.0584 75.939Z" fill="#292F33"/>
<path d="M47.33 30.9064L47.3392 38.0429L56.1992 39.3134L56.1902 32.3884L47.33 30.9064ZM61.9958 33.3613L62.0046 40.1459L68.9162 41.1382L68.9076 34.517L61.9958 33.3613ZM37.9983 29.3453L38.0078 36.7039L41.5338 37.2104L41.5244 29.9357L37.9983 29.3453ZM75.7105 35.6561L74.5812 35.4669L74.5896 41.952L75.7188 42.1139L75.7105 35.6561Z" fill="#FFD983"/>
<path d="M0.302522 35.7534L0.31086 42.2112L1.43967 42.0464L1.4313 35.5613L0.302522 35.7534ZM34.4737 29.9447L34.4831 37.2195L38.0078 36.7039L37.9983 29.3453L34.4737 29.9447ZM7.10242 34.5967L7.11097 41.218L14.02 40.2078L14.0112 33.4232L7.10242 34.5967ZM19.8143 32.4354L19.8232 39.3603L28.6799 38.067L28.6707 30.9304L19.8143 32.4354Z" fill="#FFAC33"/>
<path d="M45.1008 32.2163L45.1007 32.1283C45.0995 31.2465 44.7991 30.5305 44.4283 30.531C44.0576 30.5314 43.7589 31.2482 43.7601 32.13L43.7602 32.218C43.3251 32.6731 43.0183 33.5198 43.0196 34.5294C43.021 35.604 43.3615 36.5168 43.8459 36.9414C43.9805 37.3497 44.1882 37.6322 44.4375 37.6319C44.6867 37.6315 44.8937 37.3485 45.0273 36.9399C45.5106 36.514 45.8488 35.6003 45.8474 34.5257C45.844 33.5161 45.5371 32.6703 45.1008 32.2163ZM59.7642 34.4366L59.7641 34.3486C59.763 33.4667 59.4625 32.7507 59.0918 32.7512C58.721 32.7517 58.4224 33.4685 58.4235 34.3503L58.4236 34.4383C57.9885 34.8934 57.6817 35.74 57.683 36.7497C57.6844 37.8242 58.0249 38.7371 58.5093 39.1617C58.6439 39.5699 58.8517 39.8525 59.1009 39.8521C59.3502 39.8518 59.5572 39.5688 59.6907 39.1601C60.1741 38.7343 60.5122 37.8206 60.5108 36.746C60.5095 35.7385 60.2005 34.8926 59.7642 34.4366ZM72.3706 36.5778L72.3705 36.4961C72.3695 35.6729 72.0879 35.0051 71.7423 35.0055C71.3967 35.006 71.1168 35.6745 71.1179 36.4977L71.118 36.5794C70.7122 37.0052 70.4262 37.7952 70.4275 38.7378C70.4288 39.7412 70.7461 40.5933 71.1991 40.9907C71.3232 41.3717 71.5183 41.6354 71.7508 41.6351C71.9834 41.6348 72.1757 41.3706 72.3009 40.9893C72.7507 40.5928 73.068 39.7377 73.0667 38.7344C73.0655 37.7918 72.7796 37.0025 72.3706 36.5778Z" fill="#FFD983"/>
<path d="M30.9032 32.2346L30.9031 32.1467C30.902 31.2648 31.2006 30.5481 31.5713 30.5476C31.9421 30.5471 32.2425 31.2631 32.2437 32.1449L32.2438 32.2329C32.6801 32.6869 32.9891 33.5327 32.9904 34.5424C32.9918 35.6169 32.6536 36.5307 32.1703 36.9565C32.0368 37.3651 31.8298 37.6482 31.5805 37.6485C31.3312 37.6488 31.1235 37.3663 30.9889 36.958C30.5045 36.5334 30.164 35.6206 30.1626 34.546C30.1634 33.5364 30.4681 32.6898 30.9032 32.2346ZM16.2455 34.4928L16.2454 34.4048C16.2443 33.5229 16.5429 32.8062 16.9136 32.8057C17.2844 32.8052 17.5849 33.5212 17.586 34.4031L17.5861 34.491C18.0224 34.945 18.3314 35.7909 18.3327 36.8005C18.3341 37.8751 17.9959 38.7888 17.5126 39.2146C17.3791 39.6233 17.1721 39.9063 16.9228 39.9066C16.6735 39.9069 16.4658 39.6244 16.3312 39.2161C15.8468 38.7916 15.5063 37.8787 15.5049 36.8042C15.5036 35.7966 15.8104 34.95 16.2455 34.4928ZM3.64471 36.6666L3.6446 36.5849C3.64354 35.7617 3.92336 35.0931 4.26898 35.0927C4.6146 35.0922 4.89615 35.76 4.89721 36.5832L4.89732 36.6649C5.30423 37.0896 5.59222 37.8789 5.59344 38.8215C5.59473 39.8249 5.27954 40.6778 4.82761 41.0764C4.70451 41.4578 4.51005 41.722 4.27754 41.7223C4.04503 41.7226 3.84989 41.4568 3.72372 41.0778C3.27285 40.6825 2.95336 39.8283 2.95207 38.825C2.95294 37.8824 3.2368 37.0923 3.64471 36.6666ZM0.287262 23.9269L0.296728 31.2583L37.9919 24.3642L37.9817 16.4799L0.287262 23.9269Z" fill="#FFAC33"/>
<path d="M37.9817 16.4799L37.9919 24.3642L75.7047 31.1609L75.6952 23.8295L37.9817 16.4799Z" fill="#FFD983"/>
</g>
<defs>
<clipPath id="clip0_2111_829">
<rect width="75.408" height="75.408" fill="white" transform="translate(0.25708 0.579773) rotate(-0.0739767)"/>
</clipPath>
</defs>
</svg>
