<svg width="28" height="28" viewBox="0 0 28 28" fill="none" xmlns="http://www.w3.org/2000/svg">
<path d="M21.875 11.375C21.875 14.3045 19.943 17.8981 18.1248 19.7908C17.6636 20.2711 17.3355 20.8303 16.9881 21.4209C16.1411 22.8646 15.1812 24.5 12.25 24.5C9.086 24.5 7.80762 22.6905 6.96237 21.4926C6.75412 21.1978 6.55638 20.9178 6.38138 20.7436L7.61862 19.5064C7.8995 19.7872 8.13838 20.125 8.39125 20.4837C9.17875 21.5976 9.9925 22.75 12.25 22.75C14.1794 22.75 14.6965 21.8689 15.4788 20.5354C15.8436 19.9132 16.2584 19.208 16.8621 18.5789C18.431 16.9452 20.125 13.7261 20.125 11.375C20.125 7.9975 17.3775 5.25 14 5.25C10.6225 5.25 7.875 7.9975 7.875 11.375H6.125C6.125 7.03325 9.65825 3.5 14 3.5C18.3418 3.5 21.875 7.03325 21.875 11.375ZM10.5 14.875H9.625V16.625H10.5C11.5553 16.625 13.125 15.9259 13.125 14C13.125 12.5659 12.2552 11.8125 11.375 11.5211V11.3802C11.3802 10.9401 11.5299 8.75 14 8.75C16.4701 8.75 16.6198 10.9401 16.625 11.3794L17.5 11.375H18.375C18.375 9.86212 17.4606 7 14 7C10.5394 7 9.625 9.86212 9.625 11.375L9.63725 13.1031L10.4895 13.125C10.8937 13.1355 11.375 13.2956 11.375 14C11.375 14.7044 10.8938 14.8645 10.5 14.875Z" fill="#989898"/>
</svg>
