<svg width="68" height="70" viewBox="0 0 68 70" fill="none" xmlns="http://www.w3.org/2000/svg">
<g clip-path="url(#clip0_2109_1340)">
<path d="M57.5215 48.4433C56.9594 47.7661 56.9005 46.6757 57.3354 44.9975C57.8033 43.1919 58.4911 41.6343 58.7196 41.8629C58.7942 41.9375 58.5201 42.9052 58.3076 43.7909C57.6455 46.55 58.4751 48.1055 59.4134 46.4313C59.9761 45.3925 59.8767 45.8273 59.8755 46.7611C59.8746 47.3538 59.5685 47.9837 59.3902 48.256C58.8668 49.0554 57.9299 48.9354 57.5215 48.4433Z" fill="#364282" fill-opacity="0.15"/>
<path d="M44.4117 51.3132C43.8497 50.6359 43.7908 49.5456 44.2257 47.8673C44.6936 46.0617 45.3813 44.5042 45.6099 44.7328C45.6845 44.8074 45.4104 45.7751 45.1978 46.6608C44.5357 49.4199 45.3654 50.9754 46.3037 49.3012C46.8664 48.2624 46.767 48.6972 46.7658 49.631C46.7648 50.2236 46.4588 50.8535 46.2804 51.1259C45.757 51.9252 44.8202 51.8053 44.4117 51.3132Z" fill="#364282" fill-opacity="0.15"/>
<path d="M27.579 53.7048C27.0169 53.0276 26.958 51.9372 27.3929 50.259C27.8608 48.4533 28.5486 46.8958 28.7771 47.1244C28.8517 47.199 28.5776 48.1667 28.365 49.0524C27.703 51.8115 28.5326 53.367 29.4709 51.6927C30.0336 50.654 29.9342 51.0887 29.933 52.0225C29.9322 52.6152 29.626 53.2451 29.4477 53.5175C28.9243 54.3168 27.9874 54.1969 27.579 53.7048Z" fill="#364282" fill-opacity="0.15"/>
<path d="M6.73839 54.9639C6.17635 54.2867 6.11745 53.1964 6.55232 51.5181C7.02022 49.7125 7.70799 48.1549 7.93657 48.3836C8.01112 48.4581 7.73701 49.4258 7.52447 50.3115C6.86238 53.0707 7.69201 54.6261 8.63035 52.9519C9.19304 51.9132 9.09367 52.3479 9.09247 53.2817C9.09169 53.8744 8.78543 54.5043 8.60709 54.7766C8.08368 55.576 7.14681 55.4561 6.73839 54.9639Z" fill="#364282" fill-opacity="0.15"/>
<path d="M15.2394 28.2119C15.145 28.2134 15.0473 28.2196 14.9363 28.2287C14.1446 28.294 13.8966 28.4354 13.8504 28.8517C13.8174 29.148 13.7058 29.9807 13.6062 30.7037C13.4587 31.775 13.5099 32.0648 13.8756 32.2695C14.1224 32.4076 14.2567 32.6348 14.1703 32.7746C13.8701 33.2602 10.852 35.1696 8.47962 36.3775C6.67246 37.2977 6.32606 37.5539 7.04008 37.4382C9.63392 37.0182 12.49 35.6423 14.3049 33.9446C15.3012 33.0127 15.7842 32.7576 16.5105 32.7576C17.6814 32.7576 18.0847 32.357 18.0847 31.1918C18.0847 30.479 17.8471 30.0281 17.0241 29.2051C16.2183 28.3994 15.9001 28.2005 15.2394 28.2119ZM14.8269 29.8767C15.0157 29.8997 15.1888 30.0683 15.3088 30.381C15.42 30.6706 15.3903 30.984 15.2416 31.0759C14.7945 31.3523 14.0013 30.6868 14.2665 30.2578C14.4378 29.9806 14.638 29.8536 14.8269 29.8767ZM16.3396 30.303C16.3745 30.2977 16.4089 30.3004 16.4448 30.303C16.6682 30.3191 16.9058 30.4952 17.0339 30.829C17.1463 31.1218 17.2338 31.4248 17.2338 31.5022C17.2338 31.5797 16.9308 31.639 16.5605 31.639C16.1117 31.639 15.8873 31.4146 15.8873 30.9657C15.8873 30.5725 16.0954 30.34 16.3396 30.303Z" fill="#364282" fill-opacity="0.15"/>
<path d="M33.0721 29.9003C32.3336 29.1618 31.9487 26.9254 32.2197 24.9479C32.4068 23.583 32.3222 23.5968 31.4101 25.0801C30.5352 26.5031 30.5861 25.4984 31.4787 23.7268C32.3215 22.0538 33.2059 20.6651 33.4473 20.8398C33.7459 21.056 33.4581 22.4283 33.3841 24.1054C33.2328 27.533 33.5986 28.1132 34.7039 28.1132C35.0788 28.1132 35.6504 27.9721 35.974 27.7998C37.3288 27.0782 37.5079 26.1345 36.8146 23.3697C36.4153 21.7776 36.4204 21.6369 36.9132 20.6763C37.4292 19.6707 37.4357 19.6676 37.7638 20.2806C37.9456 20.6204 38.2634 21.9458 38.4699 23.2261C38.9496 26.1992 39.2852 26.9986 40.1439 27.2144C40.6612 27.3442 41.1296 27.3453 41.5022 26.8851C42.1344 26.1044 41.9442 25.2335 41.2766 23.3342C40.7666 21.8832 40.7612 21.7396 41.1764 20.6525C41.4176 20.0208 41.7038 19.5588 41.8124 19.6259C42.2964 19.925 42.9477 22.9311 42.9688 25.1066C42.988 27.083 42.8544 27.8659 42.4613 28.5648C41.491 30.2904 39.5052 30.0629 38.4243 28.459L37.8451 27.5995L37.3564 28.6831C36.5283 30.5196 34.3189 31.1472 33.0721 29.9003Z" fill="#364282" fill-opacity="0.15"/>
<path d="M21.6446 23.2651C21.9774 22.6728 22.5004 21.9658 22.8067 21.6938C23.1126 21.4221 26.3937 20.0969 30.0979 18.7488C48.0461 12.2177 48.121 12.1881 49.0483 11.3167L49.9495 10.4686L49.5155 11.5462C49.2768 12.1388 48.8059 12.8662 48.4689 13.1625C48.132 13.4588 42.2427 15.7621 35.3816 18.2808C26.4183 21.5711 22.6718 23.0691 22.0757 23.6015C21.6191 24.0089 21.199 24.3423 21.1421 24.3423C21.0853 24.3423 21.3111 23.8577 21.6439 23.2655L21.6446 23.2651Z" fill="#364282" fill-opacity="0.15"/>
<path d="M50.6656 23.9356C50.2762 22.7228 49.6755 21.9826 49.0807 21.9826C48.1664 21.9826 47.4116 21.1671 47.4984 20.2731C47.6705 18.5006 49.5452 19.2287 50.5508 21.4586C50.8143 22.0431 51.1086 22.5213 51.2046 22.5213C51.3006 22.5213 51.529 21.7956 51.7122 20.9086C52.12 18.9344 53.0865 17.6528 53.8277 18.1038C54.1214 18.2824 54.3487 18.7915 54.399 19.3834C54.4912 20.4671 54.4266 20.5208 53.6219 20.0295C52.8479 19.5569 52.505 20.1022 51.8939 22.778C51.6216 23.9703 51.3068 24.9458 51.1944 24.9458C51.0819 24.9458 50.844 24.4912 50.6656 23.9356Z" fill="#364282" fill-opacity="0.15"/>
<path d="M12.6038 17.3713C13.5155 16.9156 14.6671 16.1957 15.1629 15.7715L16.0645 15.0003L14.1273 14.9893C13.0619 14.9833 12.1153 15.0996 12.0237 15.2478C11.9321 15.3959 11.7432 15.5171 11.6037 15.5171C11.1745 15.5171 11.3221 14.8174 11.9086 14.0719C12.4367 13.4004 12.5959 13.3621 14.8559 13.3621C16.1959 13.3621 17.3198 13.4832 17.4154 13.638C17.715 14.1227 17.2646 15.4557 16.5648 16.1555C15.8135 16.9068 12.6559 18.2141 11.6141 18.2054C11.1126 18.2012 11.3589 17.9935 12.6038 17.3713Z" fill="#364282" fill-opacity="0.15"/>
<path d="M32.3582 2.18323L33.2446 0C35.5049 2.13758 38.2307 6.84089 36.2189 14.4715C36.6233 8.24037 35.8104 5.06364 32.3578 2.18333L32.3582 2.18323Z" fill="#364282" fill-opacity="0.15"/>
<path d="M6.18103 68.565C1.58497 66.2451 -1.18665 57.0497 0.509903 48.9541C0.79258 47.6051 1.2605 45.0342 1.82813 45.0537C2.24339 45.068 1.68564 48.0918 1.54727 49.0664C0.673812 55.2187 1.74882 60.3797 4.50196 63.2528C8.22501 67.1382 10.1643 64.749 12.9001 52.9075C14.5985 45.5565 15.7659 42.3003 17.6377 39.694C19.5831 36.9851 21.5648 36.3224 21.5612 38.3819C21.5604 38.8548 21.0991 41.5374 20.5361 44.3433C18.6827 53.58 19.2388 58.4594 22.4676 61.2942C24.2808 62.8862 26.0647 63.3865 28.3838 62.9533C30.8286 62.4966 32.153 61.7527 33.8333 59.8929C35.7204 57.8041 36.4506 56.312 36.8962 53.6338C37.2993 51.2109 36.8018 44.0216 35.9005 39.2446L35.3827 36.5006L36.6738 33.9469C37.9248 31.4725 37.9783 31.4236 38.3949 32.3742C39.5091 34.9166 40.0848 38.5845 40.4147 45.2428C40.7806 52.6271 41.1191 54.662 42.3987 57.1701C44.0766 60.4591 47.9494 61.8413 51.5905 60.4506C53.2515 59.8163 53.3493 59.6953 53.3493 58.2737C53.3493 57.4458 52.7259 54.78 51.9639 52.3497C51.202 49.9195 50.1315 45.7233 49.585 43.0245C49.0386 40.3259 48.4271 37.8106 48.2261 37.4351C47.9616 36.941 48.1941 36.0112 49.0669 34.0726L50.2732 31.3929L51.1522 32.4883C52.4307 34.0816 55.3526 39.8384 55.0946 40.2559C54.973 40.4525 54.3409 40.3361 53.683 39.9958C53.0277 39.657 52.4381 39.4369 52.3727 39.5068C52.3074 39.5766 53.1184 42.5267 54.1751 46.0623C56.3304 53.2741 56.479 54.9902 55.2837 58.8603C54.1445 62.5485 52.9273 64.5598 51.0075 65.9264C49.6431 66.8975 48.9963 67.0952 47.313 67.0554C44.7667 66.9952 42.4586 65.8577 40.9986 63.9432C39.8016 62.3738 38.4373 58.4995 38.4373 56.6695C38.4373 54.8056 37.8688 55.3644 37.3071 57.7803C35.9062 63.8064 32.235 67.9365 27.421 68.9035C24.2623 69.5379 22.2337 68.8941 19.944 66.5307C18.7906 65.3403 17.8873 63.9301 17.4666 62.6635C16.3193 59.2092 16.6601 52.655 18.2814 46.9933C18.6056 45.8609 18.8117 44.5364 18.7393 44.0501C18.6365 43.3591 18.3325 43.7233 17.3481 45.7166C16.0782 48.2883 15.0413 51.7254 13.1454 59.6476C11.8192 65.1895 10.5833 67.7822 9.05927 68.6454C7.93842 69.2804 7.54814 69.2558 6.18103 68.565Z" fill="#364282" fill-opacity="0.15"/>
<path d="M64.5661 68.7049C64.8427 61.0477 63.9492 53.1467 60.9221 36.4824C60.128 32.1106 58.6969 23.8246 57.7419 18.0692C56.7869 12.3138 55.8345 7.46886 55.6254 7.30226C55.2222 6.98158 56.6638 1.74827 57.1713 1.69036C57.5656 1.6454 62.1877 10.4956 62.9371 12.73C63.2788 13.7493 63.4569 14.7108 63.3328 14.8669C63.2087 15.0229 62.4675 14.5735 61.6856 13.8682L60.264 12.5859L60.6065 15.6815C60.795 17.3841 61.9886 24.3013 63.2591 31.0527C65.8651 44.9011 67.2734 55.9674 66.9939 60.4027C66.7601 64.1121 65.947 67.9419 65.1487 69.0931L64.5192 70.001L64.5661 68.7049Z" fill="#364282" fill-opacity="0.15"/>
</g>
<defs>
<clipPath id="clip0_2109_1340">
<rect width="67.0292" height="70" fill="white"/>
</clipPath>
</defs>
</svg>
