<svg width="24" height="20" viewBox="0 0 24 20" fill="none" xmlns="http://www.w3.org/2000/svg">
<path fill-rule="evenodd" clip-rule="evenodd" d="M12 2.99996C8.22844 2.99996 4.95294 5.69565 2.90562 9.76138C2.87212 9.82799 2.84732 9.87722 2.8264 9.92016C2.80796 9.95796 2.79651 9.98281 2.78902 9.99996C2.79651 10.0171 2.80796 10.042 2.8264 10.0798C2.84732 10.1227 2.87212 10.1719 2.90562 10.2385C4.95294 14.3043 8.22844 17 12 17C15.7716 17 19.0472 14.3043 21.0944 10.2385C21.1279 10.1719 21.1528 10.1227 21.1736 10.0798C21.1921 10.042 21.2036 10.0171 21.2111 9.99996C21.2036 9.98281 21.1921 9.95796 21.1736 9.92016C21.1528 9.87722 21.1279 9.82799 21.0944 9.76138C19.0472 5.69565 15.7716 2.99996 12 2.99996ZM0.82159 8.71196C3.08456 4.21799 7.00645 0.666626 12 0.666626C16.9936 0.666626 20.9156 4.21799 23.1784 8.71196C23.1867 8.72829 23.1951 8.74486 23.2038 8.76201C23.3103 8.97213 23.4478 9.24338 23.5094 9.57774C23.5583 9.84374 23.5583 10.1562 23.5094 10.4222C23.4478 10.7565 23.3103 11.0279 23.2038 11.2379C23.1951 11.2551 23.1867 11.2716 23.1784 11.288C20.9156 15.782 16.9936 19.3333 12 19.3333C7.00645 19.3333 3.08456 15.782 0.82159 11.288C0.813412 11.2716 0.804965 11.2551 0.796309 11.2379C0.689769 11.0278 0.552207 10.7565 0.490677 10.4222C0.441747 10.1562 0.441747 9.84374 0.490677 9.57774C0.552207 9.24338 0.689769 8.97213 0.796309 8.76201C0.804965 8.74486 0.813412 8.72829 0.82159 8.71196ZM12 7.66663C10.7113 7.66663 9.66669 8.71126 9.66669 9.99996C9.66669 11.2887 10.7113 12.3333 12 12.3333C13.2887 12.3333 14.3334 11.2887 14.3334 9.99996C14.3334 8.71126 13.2887 7.66663 12 7.66663ZM7.33337 9.99996C7.33337 7.42263 9.42271 5.33329 12 5.33329C14.5774 5.33329 16.6667 7.42263 16.6667 9.99996C16.6667 12.5772 14.5774 14.6666 12 14.6666C9.42271 14.6666 7.33337 12.5772 7.33337 9.99996Z" fill="#9B9B9B"/>
</svg>
