<svg width="70" height="70" viewBox="0 0 70 70" fill="none" xmlns="http://www.w3.org/2000/svg">
<path fill-rule="evenodd" clip-rule="evenodd" d="M36.3929 17.5H55.4166C60.2491 17.5 64.1666 21.4175 64.1666 26.25V49.5834C64.1666 54.4158 60.2491 58.3334 55.4166 58.3334H14.5833C9.75082 58.3334 5.83331 54.4158 5.83331 49.5834V20.4167C5.83331 15.5842 9.75082 11.6667 14.5833 11.6667H30.2857C31.1666 11.6667 32.0004 12.0649 32.5541 12.7501L36.3929 17.5ZM28.8927 17.5H14.5833C12.9725 17.5 11.6666 18.8059 11.6666 20.4167V49.5834C11.6666 51.1942 12.9725 52.5 14.5833 52.5H55.4166C57.0275 52.5 58.3333 51.1942 58.3333 49.5834V26.25C58.3333 24.6392 57.0275 23.3334 55.4166 23.3334H35C34.119 23.3334 33.2852 22.9352 32.7315 22.25L28.8927 17.5Z" fill="#364282" fill-opacity="0.15"/>
</svg>
