<svg width="22" height="22" viewBox="0 0 22 22" fill="none" xmlns="http://www.w3.org/2000/svg">
<g clip-path="url(#clip0_1_1967)">
<path fill-rule="evenodd" clip-rule="evenodd" d="M8.53824 11.6875L6.28974 4.94198L3.92882 11.6875H8.53824ZM9.22574 13.75L10.3657 17.1699C10.5458 17.7101 11.1298 18.0022 11.6701 17.8221C12.2105 17.6419 12.5025 17.058 12.3224 16.5176L7.8851 3.20588C7.6575 2.52307 7.0185 2.0625 6.29875 2.0625C5.58818 2.0625 4.9552 2.51157 4.72046 3.18227L0.058177 16.503C-0.129972 17.0407 0.153289 17.629 0.690858 17.8171C1.22842 18.0052 1.81673 17.722 2.00489 17.1845L3.20694 13.75H9.22574ZM13.5312 7.75834C14.4771 6.01436 16.3202 5.5 17.8751 5.5C19.9374 5.5 22.0001 6.79046 22.0001 9.0765V16.8438C22.0001 17.4133 21.5386 17.875 20.9689 17.875C20.5329 17.875 20.1601 17.6044 20.0093 17.2219C19.2434 17.6271 18.2882 17.875 17.1875 17.875C16.1289 17.875 15.1063 17.5574 14.33 16.9005C13.5365 16.2291 13.0625 15.2521 13.0625 14.0938C13.0625 13.1396 13.427 12.153 14.282 11.4201C15.1249 10.6976 16.3365 10.3125 17.875 10.3125H19.9376V9.0765C19.9376 8.33453 19.2506 7.5625 17.8751 7.5625C16.6803 7.5625 15.7733 7.95048 15.3442 8.74166C15.0726 9.24231 14.4467 9.42804 13.9461 9.1565C13.4454 8.88496 13.2597 8.25898 13.5312 7.75834ZM19.9376 12.375H17.875C16.6635 12.375 15.9845 12.6774 15.6243 12.9861C15.2761 13.2845 15.125 13.6729 15.125 14.0938C15.125 14.6542 15.3385 15.0521 15.6622 15.326C16.0031 15.6145 16.5274 15.8125 17.1875 15.8125C18.1941 15.8125 18.9205 15.5258 19.3706 15.1957C19.8533 14.8418 19.9375 14.5149 19.9375 14.4375H19.9376V12.375Z" fill="#8789A3"/>
</g>
<defs>
<clipPath id="clip0_1_1967">
<rect width="22" height="22" fill="white"/>
</clipPath>
</defs>
</svg>
