<svg width="20" height="18" viewBox="0 0 20 18" fill="none" xmlns="http://www.w3.org/2000/svg">
<path fill-rule="evenodd" clip-rule="evenodd" d="M9.56875 17.6449C9.56904 17.6451 9.56929 17.6452 10 16.8125C10.4307 17.6452 10.431 17.6451 10.4313 17.6449C10.1611 17.7846 9.83889 17.7846 9.56875 17.6449ZM9.56875 17.6449L10 16.8125L10.4313 17.6449L10.4341 17.6434L10.4409 17.6399L10.464 17.6277C10.4836 17.6174 10.5116 17.6025 10.5474 17.5831C10.6189 17.5445 10.7218 17.488 10.8515 17.4146C11.1108 17.2677 11.4779 17.0525 11.917 16.7749C12.7932 16.2209 13.966 15.4125 15.1434 14.3976C17.4443 12.414 20 9.43789 20 5.875C20 2.54474 17.3928 0.25 14.6875 0.25C12.7533 0.25 11.0589 1.25189 10 2.77494C8.94111 1.25189 7.2467 0.25 5.3125 0.25C2.60724 0.25 0 2.54474 0 5.875C0 9.43789 2.55574 12.414 4.85662 14.3976C6.03396 15.4125 7.20673 16.2209 8.08303 16.7749C8.52214 17.0525 8.88925 17.2677 9.1485 17.4146C9.27817 17.488 9.38105 17.5445 9.45262 17.5831C9.48842 17.6025 9.51641 17.6174 9.53604 17.6277L9.55914 17.6399L9.56586 17.6434L9.56875 17.6449Z" fill="#863ED5"/>
</svg>
