<svg width="20" height="18" viewBox="0 0 20 18" fill="none" xmlns="http://www.w3.org/2000/svg">
<path fill-rule="evenodd" clip-rule="evenodd" d="M5.3125 1.875C3.64276 1.875 1.875 3.33026 1.875 5.625C1.875 8.31211 3.85051 10.8047 6.08087 12.7274C7.16916 13.6656 8.26203 14.4197 9.08495 14.94C9.45509 15.174 9.76865 15.3594 10 15.4918C10.2314 15.3594 10.5449 15.174 10.9151 14.94C11.738 14.4197 12.8309 13.6656 13.9191 12.7274C16.1495 10.8047 18.125 8.31211 18.125 5.625C18.125 3.33026 16.3573 1.875 14.6875 1.875C12.971 1.875 11.4265 3.10726 10.9014 4.94505C10.7864 5.34752 10.4186 5.625 10 5.625C9.58143 5.625 9.21356 5.34752 9.09858 4.94505C8.57349 3.10726 7.02899 1.875 5.3125 1.875ZM10 16.5625C9.56929 17.3952 9.56904 17.3951 9.56875 17.3949L9.56586 17.3934L9.55914 17.3899L9.53604 17.3777C9.51641 17.3674 9.48842 17.3525 9.45262 17.3331C9.38105 17.2945 9.27817 17.238 9.1485 17.1646C8.88925 17.0177 8.52214 16.8025 8.08303 16.5249C7.20673 15.9709 6.03396 15.1625 4.85662 14.1476C2.55574 12.164 0 9.18789 0 5.625C0 2.29474 2.60724 0 5.3125 0C7.2467 0 8.94111 1.00189 10 2.52494C11.0589 1.00189 12.7533 0 14.6875 0C17.3928 0 20 2.29474 20 5.625C20 9.18789 17.4443 12.164 15.1434 14.1476C13.966 15.1625 12.7932 15.9709 11.917 16.5249C11.4779 16.8025 11.1108 17.0177 10.8515 17.1646C10.7218 17.238 10.619 17.2945 10.5474 17.3331C10.5116 17.3525 10.4836 17.3674 10.464 17.3777L10.4409 17.3899L10.4341 17.3934L10.4313 17.3949C10.431 17.3951 10.4307 17.3952 10 16.5625ZM10 16.5625L10.4313 17.3949C10.1611 17.5346 9.83889 17.5346 9.56875 17.3949L10 16.5625Z" fill="#863ED5"/>
</svg>
