<svg width="70" height="70" viewBox="0 0 70 70" fill="none" xmlns="http://www.w3.org/2000/svg">
<path d="M18.375 14C16.9253 14 15.75 15.1753 15.75 16.625V42.875C15.75 44.3247 16.9253 45.5 18.375 45.5C19.8247 45.5 21 44.3247 21 42.875V16.625C21 15.1753 19.8247 14 18.375 14Z" fill="#364282" fill-opacity="0.15"/>
<path d="M35 14C33.5503 14 32.375 15.1753 32.375 16.625V32.375C32.375 33.8247 33.5503 35 35 35C36.4497 35 37.625 33.8247 37.625 32.375V16.625C37.625 15.1753 36.4497 14 35 14Z" fill="#364282" fill-opacity="0.15"/>
<path d="M49 16.625C49 15.1753 50.1753 14 51.625 14C53.0747 14 54.25 15.1753 54.25 16.625V49.875C54.25 51.3247 53.0747 52.5 51.625 52.5C50.1753 52.5 49 51.3247 49 49.875V16.625Z" fill="#364282" fill-opacity="0.15"/>
<path fill-rule="evenodd" clip-rule="evenodd" d="M6.125 0C2.74225 0 0 2.74226 0 6.125V63.875C0 67.2578 2.74226 70 6.125 70H63.875C67.2578 70 70 67.2577 70 63.875V6.125C70 2.74225 67.2577 0 63.875 0H6.125ZM5.25 6.125C5.25 5.64175 5.64175 5.25 6.125 5.25H63.875C64.3582 5.25 64.75 5.64175 64.75 6.125V63.875C64.75 64.3582 64.3582 64.75 63.875 64.75H6.125C5.64175 64.75 5.25 64.3582 5.25 63.875V6.125Z" fill="#364282" fill-opacity="0.15"/>
</svg>
