<svg width="12" height="14" viewBox="0 0 12 14" fill="none" xmlns="http://www.w3.org/2000/svg">
<path fill-rule="evenodd" clip-rule="evenodd" d="M0 5.82243C0 2.60252 2.69072 0 5.94541 0C9.20928 0 11.9 2.60252 11.9 5.82243C11.9 7.44498 11.3099 8.95134 10.3386 10.2281C9.26716 11.6365 7.94651 12.8635 6.45998 13.8267C6.11976 14.0493 5.81271 14.0661 5.43931 13.8267C3.94431 12.8635 2.62366 11.6365 1.56135 10.2281C0.589388 8.95134 0 7.44498 0 5.82243ZM3.98598 6.00373C3.98598 7.0824 4.86618 7.93077 5.94543 7.93077C7.02539 7.93077 7.91406 7.0824 7.91406 6.00373C7.91406 4.93346 7.02539 4.04378 5.94543 4.04378C4.86618 4.04378 3.98598 4.93346 3.98598 6.00373Z" fill="white"/>
</svg>
