<svg width="20" height="20" viewBox="0 0 20 20" fill="none" xmlns="http://www.w3.org/2000/svg">
<path fill-rule="evenodd" clip-rule="evenodd" d="M14.4995 3.99974C14.4995 9.79873 9.79848 14.4997 3.99949 14.4997C3.57362 14.4997 3.15328 14.4743 2.73999 14.4248C4.23353 16.8698 6.92742 18.5002 9.99949 18.5002C14.6939 18.5002 18.4995 14.6946 18.4995 10.0002C18.4995 6.9284 16.8693 4.2347 14.4247 2.74108C14.4741 3.1541 14.4995 3.57416 14.4995 3.99974ZM12.7675 1.96068C12.9193 2.61585 12.9995 3.29843 12.9995 3.99974C12.9995 8.9703 8.97006 12.9997 3.99949 12.9997C3.29793 12.9997 2.61511 12.9195 1.95972 12.7676C1.958 12.7672 1.95629 12.7668 1.95457 12.7664C1.89823 12.7533 1.8421 12.7397 1.78617 12.7256C1.57957 12.6733 1.37582 12.6139 1.17519 12.5477C0.78245 12.418 0.375523 12.7576 0.505709 13.1502C0.580997 13.3772 0.664201 13.6006 0.754993 13.8201C0.780592 13.882 0.806794 13.9436 0.833593 14.0048C0.835081 14.0082 0.836573 14.0116 0.838065 14.015C2.38455 17.5389 5.90458 20.0002 9.99949 20.0002C15.5223 20.0002 19.9995 15.5231 19.9995 10.0002C19.9995 5.90561 17.5385 2.38578 14.015 0.839125C14.0116 0.837632 14.0082 0.83614 14.0048 0.834651C13.9436 0.807848 13.882 0.781641 13.8201 0.756037C13.6007 0.665226 13.3772 0.582004 13.1502 0.506698C12.7577 0.37648 12.418 0.783378 12.5477 1.17613C12.6139 1.37676 12.6733 1.58052 12.7255 1.78713C12.7396 1.84305 12.7532 1.89919 12.7663 1.95553C12.7667 1.95724 12.7671 1.95896 12.7675 1.96068Z" fill="#8789A3"/>
</svg>
