<svg width="70" height="70" viewBox="0 0 70 70" fill="none" xmlns="http://www.w3.org/2000/svg">
<path d="M14.082 9.0918L12.0996 14.5605L8.88672 23.3105L8.75 23.6523V61.25H32.8125V54.6875C32.8125 53.3972 33.0347 52.8333 33.2227 52.5C33.4106 52.1667 33.6243 51.9702 34.1113 51.6113C34.3591 51.4319 34.6497 51.2268 35 50.9277C35.3503 51.2268 35.6409 51.4319 35.8887 51.6113C36.3757 51.9702 36.5894 52.1667 36.7773 52.5C36.9653 52.8333 37.1875 53.3972 37.1875 54.6875V61.25H61.25V23.6523L61.1133 23.2422L57.7637 14.4922L55.6445 9.0918L53.6621 14.5605L50.4492 23.3105L50.3125 23.6523V37.1875H50.1074C49.4067 31.2573 45.9802 27.6428 42.793 25.498C41.0156 24.3018 39.3323 23.4644 38.2812 22.7637C37.76 22.4133 37.3926 22.1057 37.2559 21.9434C37.1191 21.781 37.1875 21.8494 37.1875 21.875V19.6875H32.8125V21.875C32.8125 21.8494 32.8809 21.7725 32.7441 21.9434C32.6074 22.1143 32.2485 22.4731 31.7188 22.832C30.6677 23.5498 28.9844 24.4299 27.207 25.6348C24.0369 27.7881 20.6104 31.3599 19.8926 37.1875H19.6875V23.6523L19.5508 23.2422L16.2012 14.4922L14.082 9.0918ZM14.1504 21.6016L15.3125 24.541V56.875H13.125V24.4727L14.1504 21.6016ZM55.7129 21.6016L56.875 24.541V56.875H54.6875V24.4727L55.7129 21.6016ZM35 25.7715C35.2734 25.9851 35.5383 26.1987 35.8203 26.3867C37.2302 27.3267 38.8281 28.1812 40.332 29.1895C42.9126 30.9326 45.1428 32.9834 45.7324 37.1875H24.2676C24.8572 33.0347 27.0789 30.9497 29.668 29.1895C31.1719 28.1641 32.7698 27.3438 34.1797 26.3867C34.4617 26.1902 34.7266 25.9851 35 25.7715ZM19.6875 41.5625H50.3125V56.875H41.5625V54.6875C41.5625 52.8845 41.2378 51.4319 40.6055 50.3125C39.9731 49.1931 39.093 48.4924 38.4863 48.0566C37.8796 47.6208 37.5891 47.4072 37.4609 47.2363C37.3328 47.0654 37.1875 46.8433 37.1875 45.9375H32.8125C32.8125 46.8433 32.6672 47.0654 32.5391 47.2363C32.4109 47.4072 32.1204 47.6208 31.5137 48.0566C30.907 48.4924 30.0269 49.1931 29.3945 50.3125C28.7622 51.4319 28.4375 52.8845 28.4375 54.6875V56.875H19.6875V41.5625Z" fill="#364282" fill-opacity="0.15"/>
</svg>
