<svg width="17" height="17" viewBox="0 0 17 17" fill="none" xmlns="http://www.w3.org/2000/svg">
<path fill-rule="evenodd" clip-rule="evenodd" d="M2.8009 14.4C2.23759 14.4 1.86084 13.8383 2.04885 13.3269L2.08548 13.2422L3.00966 11.3936C3.35952 10.6937 3.55843 9.92923 3.59472 9.14955L3.60077 8.88916V6.4C3.60077 4.02155 5.3304 2.04714 7.60028 1.66634L7.60013 0.8C7.60013 0.358172 7.95824 0 8.4 0C8.84176 0 9.19987 0.358172 9.19987 0.8L9.20052 1.66648C11.407 2.03702 13.1027 3.91338 13.1952 6.20278L13.1992 6.4V8.88916C13.1992 9.6716 13.3632 10.4444 13.6793 11.158L13.7903 11.3936L14.7145 13.2422C14.9664 13.7462 14.6326 14.3344 14.0912 14.3949L13.9991 14.4H9.99974C9.99974 15.2837 9.28351 16 8.4 16C7.51649 16 6.80026 15.2837 6.80026 14.4H2.8009ZM8.40004 3.19992C6.68656 3.19992 5.28768 4.5471 5.20447 6.24021L5.20056 6.39992V8.88909C5.20056 9.91371 4.98191 10.9254 4.5605 11.857L4.44055 12.109L4.09516 12.7999H12.7049L12.3595 12.109C11.9014 11.1926 11.6446 10.1899 11.6049 9.16816L11.5995 8.88909V6.39992C11.5995 4.63261 10.1671 3.19992 8.40004 3.19992Z" fill="#8789A3"/>
<line x1="15.5117" y1="1.54829" x2="0.511738" y2="15.5483" stroke="#8789A3" stroke-width="1.5"/>
</svg>
