<svg width="58" height="70" viewBox="0 0 58 70" fill="none" xmlns="http://www.w3.org/2000/svg">
<path fill-rule="evenodd" clip-rule="evenodd" d="M6.34503 4.77273C5.46896 4.77273 4.75877 5.485 4.75877 6.36364V63.6364C4.75877 64.515 5.46896 65.2273 6.34503 65.2273H50.7602C51.6363 65.2273 52.3465 64.515 52.3465 63.6364V23.8636H39.6564C36.1522 23.8636 33.3114 21.0145 33.3114 17.5V4.77273H6.34503ZM38.0702 4.77373V17.5C38.0702 18.3786 38.7804 19.0909 39.6564 19.0909H52.3455C52.3313 18.6895 52.1661 18.3075 51.8819 18.0225L39.1355 5.23869C38.8513 4.95369 38.4704 4.78799 38.0702 4.77373ZM0 6.36364C0 2.8491 2.84077 0 6.34503 0H38.0138C39.6966 0 41.3105 0.670452 42.5004 1.86387L55.2468 14.6477C56.4368 15.8411 57.1053 17.4597 57.1053 19.1474V63.6364C57.1053 67.1509 54.2645 70 50.7602 70H6.34503C2.84077 70 0 67.1509 0 63.6364V6.36364Z" fill="#364282" fill-opacity="0.15"/>
</svg>
