<svg width="24" height="25" viewBox="0 0 24 25" fill="none" xmlns="http://www.w3.org/2000/svg">
<g clip-path="url(#clip0_2335_880)">
<path fill-rule="evenodd" clip-rule="evenodd" d="M18.7146 13.013L6.94465 20.4054C6.85175 20.4636 6.74473 20.4962 6.63476 20.4997C6.52478 20.5032 6.41586 20.4775 6.31938 20.4253C6.22289 20.373 6.14235 20.2962 6.08618 20.2028C6.03 20.1094 6.00024 20.0028 6 19.8942L6 5.107C6.00002 4.99827 6.02963 4.89154 6.08571 4.79796C6.1418 4.70439 6.22231 4.6274 6.31884 4.57504C6.41536 4.52268 6.52436 4.49687 6.63445 4.5003C6.74453 4.50374 6.85166 4.5363 6.94465 4.59458L18.7158 11.9894C18.8029 12.0443 18.8746 12.1199 18.9243 12.2094C18.974 12.2988 19 12.3992 19 12.5012C19 12.6032 18.974 12.7036 18.9243 12.793C18.8746 12.8825 18.8029 12.9582 18.7158 13.013H18.7146Z" stroke="#863ED5" stroke-width="2" stroke-linecap="round"/>
</g>
<defs>
<clipPath id="clip0_2335_880">
<rect width="24" height="24" fill="white" transform="translate(0 0.5)"/>
</clipPath>
</defs>
</svg>
