<svg width="57" height="70" viewBox="0 0 57 70" fill="none" xmlns="http://www.w3.org/2000/svg">
<g clip-path="url(#clip0_2109_1356)">
<path d="M54.2718 47.5894C54.4128 47.5704 54.5626 47.5589 54.7285 47.5644C54.6969 47.5002 54.6516 47.4599 54.6092 47.4148C54.4999 47.4754 54.3867 47.5332 54.2714 47.5894C54.2693 47.5894 54.2693 47.5894 54.2714 47.5894H54.2718Z" fill="#364282" fill-opacity="0.15"/>
<path d="M45.2707 45.135C45.3907 45.0211 45.5126 44.9092 45.634 44.7953C45.7182 44.7164 45.8007 44.6343 45.8803 44.5497C45.9079 44.52 45.935 44.4903 45.962 44.4592C46.057 44.3514 46.1475 44.2388 46.2243 44.112C46.1097 44.0769 45.9983 44.0675 45.8903 44.0763C45.8318 44.0809 45.775 44.1012 45.7184 44.1166C45.6718 44.129 45.6254 44.1356 45.5803 44.1538C45.502 44.1868 45.4266 44.2307 45.351 44.2794C45.3322 44.2917 45.3125 44.3011 45.2937 44.3136C45.2054 44.3759 45.1191 44.4458 45.0349 44.5227C45.0328 44.5242 45.0307 44.5263 45.0289 44.5273C44.8724 44.7648 44.6606 44.9827 44.4172 45.1916C44.416 45.193 44.4151 45.1937 44.4139 45.1951C44.413 45.1958 44.4124 45.1964 44.4118 45.1972C44.3213 45.3044 44.2342 45.4097 44.1488 45.5072C44.0652 45.6037 43.9836 45.6933 43.904 45.7696C43.8998 45.7088 43.9169 45.6509 43.9228 45.591C43.8353 45.6576 43.7481 45.7245 43.6592 45.7926C43.6301 45.8147 43.6005 45.8379 43.5714 45.8607C43.5027 45.9139 43.434 45.968 43.3653 46.0223C43.3266 46.0533 43.2878 46.0852 43.2491 46.1168C43.1912 46.1646 43.1332 46.2133 43.0766 46.263C43.0369 46.2975 42.9976 46.3325 42.9592 46.3676C42.9059 46.4161 42.8539 46.4669 42.8027 46.5166C42.7649 46.5544 42.7279 46.592 42.6916 46.6306C42.6423 46.6818 42.5957 46.7359 42.55 46.7898C42.5169 46.8295 42.4831 46.8688 42.4514 46.9097C42.4069 46.9676 42.3663 47.0284 42.3258 47.0891C42.2989 47.1295 42.2705 47.1694 42.2456 47.2111C42.2051 47.2805 42.1702 47.354 42.1357 47.4275C42.1182 47.4647 42.0979 47.4996 42.0825 47.5381C42.0359 47.6521 41.9962 47.7705 41.9678 47.8955C42.1409 47.7937 42.2982 47.687 42.4445 47.5773C42.4681 47.5598 42.4875 47.5408 42.5105 47.5232C43.4402 46.8017 43.915 45.9703 44.9217 45.5024C45.0201 45.3825 45.1279 45.2724 45.2386 45.1653C45.249 45.159 45.2595 45.1486 45.2699 45.1381L45.2707 45.135Z" fill="#364282" fill-opacity="0.15"/>
<path d="M44.1803 44.9177C44.2188 44.859 44.2578 44.8003 44.3032 44.7425C44.3416 44.6932 44.3813 44.6445 44.4237 44.5954C44.4757 44.5355 44.5302 44.4768 44.5868 44.4181C44.6234 44.3801 44.6577 44.3418 44.6955 44.3047C44.7934 44.209 44.8952 44.1154 44.999 44.0235C45.0232 44.0018 45.0474 43.9817 45.0719 43.96C45.3549 43.7139 45.6403 43.4827 45.8876 43.2656C45.9154 43.242 45.9476 43.2157 45.9739 43.1919C45.9726 43.1919 45.9718 43.1927 45.9705 43.1927C45.7717 43.2675 45.578 43.3538 45.3879 43.4455C45.3353 43.4712 45.2835 43.4981 45.2309 43.5251C45.0859 43.5992 44.9436 43.6788 44.8039 43.7632C44.7581 43.791 44.7109 43.8171 44.665 43.8461C44.4891 43.9579 44.3165 44.0753 44.1498 44.2013C44.1208 44.223 44.0939 44.2472 44.065 44.2693C43.9261 44.3773 43.7906 44.4899 43.6585 44.6071C43.6111 44.6489 43.5654 44.6915 43.5188 44.7339C43.3926 44.8513 43.2702 44.9733 43.1499 45.0986C43.1215 45.1283 43.092 45.1565 43.0636 45.1876C42.9205 45.342 42.7831 45.5026 42.6502 45.667C42.6151 45.7109 42.5815 45.7562 42.547 45.8007C42.4468 45.9302 42.3482 46.0631 42.2537 46.1991C42.218 46.2505 42.1817 46.3016 42.1472 46.3534C42.0273 46.5321 41.9105 46.7144 41.8021 46.901C41.8802 46.8095 41.9782 46.7136 42.0841 46.6164C42.1063 46.5962 42.1292 46.5755 42.1529 46.5544C42.6571 46.1074 43.3983 45.6044 44.0817 45.061C44.0853 45.0583 44.0878 45.0556 44.0914 45.0535C44.1164 45.0034 44.1498 44.9574 44.1812 44.9136L44.1803 44.9177Z" fill="#364282" fill-opacity="0.15"/>
<path d="M54.2697 47.5894C54.385 47.5332 54.4983 47.4754 54.6075 47.4148C54.4983 47.4754 54.385 47.5332 54.2691 47.5894H54.2697Z" fill="#364282" fill-opacity="0.15"/>
<path d="M46.9711 42.9019C47.2011 42.8541 47.4384 42.8209 47.6786 42.7966C47.438 42.8209 47.2011 42.8532 46.9705 42.9019H46.9711Z" fill="#364282" fill-opacity="0.15"/>
<path d="M45.8869 43.2654C45.6394 43.4824 45.3543 43.7137 45.0712 43.9597C45.3574 43.7132 45.6415 43.4835 45.888 43.2662L45.8869 43.2654Z" fill="#364282" fill-opacity="0.15"/>
<path d="M55.1617 48.2829C54.8678 48.0577 54.5615 47.8459 54.0418 47.8474C54.5619 47.8432 54.869 48.0562 55.1615 48.2818L55.1617 48.2829Z" fill="#364282" fill-opacity="0.15"/>
<path d="M42.5363 48.4145C43.3938 47.2541 44.2927 45.9918 44.8841 45.5496C44.2929 45.9903 43.3947 47.2499 42.5361 48.4134L42.5363 48.4145Z" fill="#364282" fill-opacity="0.15"/>
<path d="M44.149 45.5068C44.2344 45.409 44.3215 45.3037 44.412 45.1968C44.4111 45.1974 44.4099 45.198 44.4091 45.1987C44.3192 45.3052 44.2315 45.4096 44.1479 45.5057L44.149 45.5068Z" fill="#364282" fill-opacity="0.15"/>
<path d="M53.1835 48.0887C53.3101 48.0245 53.4552 47.9585 53.6088 47.8906H53.6081C53.4536 47.9596 53.3073 48.0243 53.182 48.0891L53.1835 48.0887Z" fill="#364282" fill-opacity="0.15"/>
<path d="M44.0822 45.0598C43.3987 45.6033 42.6575 46.1063 42.1533 46.5531C42.6567 46.1061 43.3962 45.6048 44.0813 45.0596L44.0822 45.0598Z" fill="#364282" fill-opacity="0.15"/>
<path d="M53.5678 47.8943C53.6447 47.8127 53.7433 47.7533 53.8511 47.7034C53.8686 47.6955 53.8874 47.6886 53.9056 47.6819C54.0136 47.638 54.1343 47.6071 54.267 47.5887C54.2685 47.5881 54.2691 47.5881 54.2697 47.5875H54.2705C54.3865 47.5313 54.4997 47.4734 54.609 47.4129C54.5599 47.3608 54.503 47.3205 54.4416 47.2894C54.4404 47.2886 54.4389 47.2879 54.4374 47.2873C54.2534 47.2004 54.0247 47.1923 53.7726 47.2259C53.7684 47.2265 53.7646 47.2265 53.7604 47.2274H53.7596C53.7583 47.228 53.7577 47.2294 53.7569 47.2301C53.6443 47.3287 53.5459 47.4413 53.4563 47.5624C53.4381 47.5881 53.4185 47.613 53.4009 47.6401C53.3126 47.7736 53.2363 47.9186 53.1839 48.0878C53.3101 48.0236 53.4557 47.9585 53.6086 47.8897C53.594 47.8939 53.5835 47.8939 53.5689 47.896L53.5678 47.8943Z" fill="#364282" fill-opacity="0.15"/>
<path d="M44.4101 45.1976C44.4107 45.1968 44.4113 45.1962 44.4122 45.1955C44.6035 44.9649 44.8084 44.7297 45.0244 44.5306C44.8093 44.7291 44.6025 44.9651 44.4103 45.197L44.4101 45.1976Z" fill="#364282" fill-opacity="0.15"/>
<path d="M46.0583 43.117C46.0328 43.1407 46.0017 43.1661 45.9749 43.1899C45.9755 43.1899 45.9755 43.1899 45.9762 43.1893C46.0012 43.1663 46.0326 43.1413 46.0576 43.1162L46.0583 43.117Z" fill="#364282" fill-opacity="0.15"/>
<path d="M42.5113 47.5225C43.4432 46.8025 43.9165 45.9696 44.9225 45.5017C43.9157 45.9696 43.4415 46.801 42.5119 47.5217L42.5113 47.5225Z" fill="#364282" fill-opacity="0.15"/>
<path d="M45.9747 43.1902C45.9732 43.1908 45.9718 43.1916 45.9705 43.1916C45.9718 43.1916 45.9726 43.1908 45.9739 43.1908V43.1887L45.9747 43.1902Z" fill="#364282" fill-opacity="0.15"/>
<path d="M53.6096 47.8903H53.6105C53.6178 47.8867 53.6259 47.8827 53.6338 47.8794C53.6276 47.8836 53.6192 47.8857 53.6109 47.8898L53.6096 47.8903Z" fill="#364282" fill-opacity="0.15"/>
<path d="M44.0822 45.0598C44.0857 45.0571 44.0882 45.0552 44.0909 45.0531C44.0909 45.0522 44.0909 45.0522 44.0918 45.0522C44.0897 45.0543 44.0855 45.0564 44.0834 45.0585L44.0822 45.0598Z" fill="#364282" fill-opacity="0.15"/>
<path d="M53.7621 47.226L53.76 47.228L53.7621 47.226Z" fill="#364282" fill-opacity="0.15"/>
<path d="M44.4164 45.1914C44.6597 44.9825 44.8716 44.7646 45.028 44.5271C45.028 44.5279 45.0274 44.5279 45.0265 44.5286C44.8699 44.7646 44.6589 44.9819 44.4166 45.1907L44.4164 45.1914Z" fill="#364282" fill-opacity="0.15"/>
<path d="M4.29874 1.35844C4.25048 2.02626 6.69993 3.36817 7.11583 2.1871C7.05901 0.465221 4.40151 -0.0649433 4.29874 1.35844Z" fill="#364282" fill-opacity="0.15"/>
<path d="M8.4415 2.68426C8.22404 1.95502 9.3767 1.6444 8.60736 1.35864C8.46302 1.60137 8.3592 1.884 7.94455 1.8558C7.86601 2.37636 8.15114 2.53282 8.4415 2.68426Z" fill="#364282" fill-opacity="0.15"/>
<path d="M11.4244 2.85014C10.851 2.32729 9.86778 1.37245 8.93884 2.18733C9.08005 3.2698 11.0023 4.45484 11.4244 2.85014Z" fill="#364282" fill-opacity="0.15"/>
<path d="M3.63575 4.0097C3.49057 3.43734 3.28753 2.92201 2.8075 2.68408C1.68784 3.53573 2.12944 5.83812 2.8075 6.99265C2.60216 5.51726 3.06945 4.71408 3.63575 4.0097Z" fill="#364282" fill-opacity="0.15"/>
<path d="M14.0757 4.1755C14.1279 3.95137 14.3115 3.85904 14.2411 3.5127H13.7442C13.6978 3.89037 13.7841 4.13582 14.0757 4.1755Z" fill="#364282" fill-opacity="0.15"/>
<path d="M6.12155 6.32994C5.79547 5.6617 5.82576 4.63689 4.96137 4.50696C4.84063 4.88317 4.46275 5.00265 4.13312 5.16977C4.32195 5.97525 4.69984 6.59148 5.62439 6.66124C5.66784 6.42833 5.98786 6.4722 6.12155 6.32994Z" fill="#364282" fill-opacity="0.15"/>
<path d="M16.0641 5.99854C16.1997 5.87822 16.5088 4.85152 15.8986 5.00422C15.9085 5.56446 15.5995 5.71131 16.0641 5.99854Z" fill="#364282" fill-opacity="0.15"/>
<path d="M16.7269 5.50109C16.7307 5.89151 16.4418 5.98885 16.5615 6.49541C17.0294 6.65354 17.3797 5.41795 16.7269 5.50109Z" fill="#364282" fill-opacity="0.15"/>
<path d="M18.0525 6.16418C17.8407 6.15499 17.8232 5.95174 17.5556 5.99874C17.5485 6.54416 17.2757 6.82365 17.3897 7.4898C18.0392 7.47622 17.8179 6.59241 18.0525 6.16418Z" fill="#364282" fill-opacity="0.15"/>
<path d="M18.5499 8.31847C18.4569 7.64918 19.2988 6.79963 18.5499 6.49548C18.2721 6.79378 17.899 8.1125 18.5499 8.31847Z" fill="#364282" fill-opacity="0.15"/>
<path d="M19.3786 6.9928C19.2781 7.57706 18.7268 8.33325 19.0468 8.81578C19.6497 8.76565 19.8751 7.10288 19.3786 6.9928Z" fill="#364282" fill-opacity="0.15"/>
<path d="M1.81293 13.9526C1.81231 12.8472 2.07697 12.007 2.97311 11.7983C3.01635 11.3133 2.59857 11.2893 2.64181 10.8042C2.83775 10.7236 3.0174 10.6275 3.13897 10.4727C2.87828 10.4568 2.56431 10.4948 2.64181 10.1414C2.88496 10.1397 3.99772 10.2039 3.47048 9.97555C3.09239 10.0221 2.84736 9.93586 2.80767 9.64425C3.01468 9.29895 3.21334 8.9453 3.47048 8.64993C3.20143 8.36647 2.96873 8.04686 2.97311 7.48975C2.20481 7.38426 1.94788 7.79055 1.64749 8.15256C2.39804 10.0439 0.391854 12.4091 1.81293 13.9526Z" fill="#364282" fill-opacity="0.15"/>
<path d="M20.2068 7.4895C20.0211 8.13142 19.6511 8.90682 19.8755 9.47835C20.5734 9.48252 20.8178 7.74894 20.2068 7.4895Z" fill="#364282" fill-opacity="0.15"/>
<path d="M21.0353 8.31848C20.9123 8.75611 20.4291 9.68985 20.8694 10.1415C20.9935 9.74792 21.8061 8.52946 21.0353 8.31848Z" fill="#364282" fill-opacity="0.15"/>
<path d="M21.8646 8.64978C21.7576 9.43061 21.0345 10.4657 21.5333 11.301C21.5291 10.4811 22.5255 9.03665 21.8654 8.64978H21.8646Z" fill="#364282" fill-opacity="0.15"/>
<path d="M22.5268 8.9812C22.2861 10.066 22.1936 11.2993 21.864 12.2952C22.3924 11.6924 23.1507 9.64129 22.5261 8.9812H22.5268Z" fill="#364282" fill-opacity="0.15"/>
<path d="M23.356 9.14709C23.2729 10.1713 22.6005 11.4808 22.8591 12.2953C23.0575 11.4693 24.037 9.75873 23.356 9.14709Z" fill="#364282" fill-opacity="0.15"/>
<path d="M24.1832 9.47839C24.1229 9.81763 23.6297 10.5644 24.0174 10.804C24.0905 10.4781 24.6315 9.7792 24.1824 9.47839H24.1832Z" fill="#364282" fill-opacity="0.15"/>
<path d="M5.95568 12.6271C6.14912 12.0188 6.09501 10.7462 5.45873 10.4728C5.11386 10.5699 4.92293 10.821 4.63007 10.9697C4.84794 11.7464 4.71571 12.8729 5.95568 12.6271Z" fill="#364282" fill-opacity="0.15"/>
<path d="M27.0011 11.1355C26.2462 11.5061 26.2011 12.9263 27.0011 13.2898C26.9635 12.6888 27.774 11.3924 27.0011 11.1355Z" fill="#364282" fill-opacity="0.15"/>
<path d="M28.4926 12.627C28.1285 12.9319 27.7018 14.037 28.1613 14.6154C28.1342 13.9745 29.3332 12.9971 28.4935 12.627H28.4926Z" fill="#364282" fill-opacity="0.15"/>
<path d="M28.6577 16.1069C28.8471 15.5594 29.6691 14.3182 28.989 13.9526C28.9012 14.6027 27.9529 15.7159 28.6568 16.1069H28.6577Z" fill="#364282" fill-opacity="0.15"/>
<path d="M29.3219 17.4327C29.132 16.6784 30.3856 15.8272 29.4874 15.4438C29.1907 15.7618 28.9254 16.9715 29.3223 17.4327H29.3219Z" fill="#364282" fill-opacity="0.15"/>
<path d="M29.817 18.5923C29.7704 17.9329 30.785 17.1541 29.9828 16.7698C29.8763 17.2734 29.1494 18.3413 29.8178 18.5923H29.817Z" fill="#364282" fill-opacity="0.15"/>
<path d="M30.3163 19.7524C30.4909 19.3142 31.2291 18.2593 30.4821 17.9294C30.3004 18.3092 29.8763 19.301 30.3171 19.7524H30.3163Z" fill="#364282" fill-opacity="0.15"/>
<path d="M30.9784 20.5807C31.104 20.22 31.6298 19.4145 30.9784 19.2551C30.9408 19.5657 30.5502 20.3537 30.9784 20.5807Z" fill="#364282" fill-opacity="0.15"/>
<path d="M11.7557 61.3449C11.1643 62.4817 12.642 62.8541 12.5842 63.9961C14.8874 65.0318 16.9318 64.1304 18.8814 63.3333C19.5546 63.0582 20.2747 63.1 20.8698 62.6705C22.1142 61.7729 22.5225 60.2363 23.6869 58.8595C24.9586 57.3559 27.2199 56.6114 26.504 54.3849C25.6367 55.451 25.1811 56.9292 23.6869 57.3678C24.9448 56.1866 26.5957 54.5438 26.8355 52.8934C25.7257 53.7173 25.6906 55.6154 24.1843 56.0422C24.8178 55.0174 26.3164 53.9782 26.0068 52.5623C25.5147 53.9479 24.8281 55.1394 23.3556 55.5453C23.6549 54.4064 25.5851 54.0206 25.1786 52.7282C24.6004 53.9188 23.0074 54.9741 22.1956 55.3794C22.8664 53.8959 24.6493 53.5244 25.0127 51.7336C23.7899 52.6655 22.9455 53.9748 21.5328 54.7164C22.0699 53.2028 24.8667 52.3916 24.0186 50.5737C23.0258 51.4038 22.6859 52.8865 21.0359 53.059C19.5929 54.966 17.8068 57.2813 14.7387 58.0304C12.0106 58.6962 8.94822 59.0663 6.78453 57.5335C8.07777 55.0118 9.59265 51.84 10.4305 49.4139C9.64048 49.2386 9.51515 50.5879 9.10447 50.2419C9.24129 49.4956 9.89073 49.2602 10.2646 48.7503C9.17967 48.7154 9.38125 49.9666 8.60752 50.2419C8.18744 49.3694 8.73808 48.5084 9.10447 47.9224C8.30567 47.7862 8.78048 48.9236 8.11015 48.9163C8.1371 48.2744 8.90958 47.5151 8.60752 47.0936C8.49514 47.2763 8.05647 47.9533 7.94471 47.5905C8.16237 47.1456 8.38944 46.7098 8.60752 46.2649C8.0619 46.2028 8.27309 45.3842 7.6132 45.4362C5.29431 48.4313 5.2047 53.7177 5.29306 58.0302C6.46159 58.795 7.0233 60.167 8.11015 61.0134C9.37561 61.1116 11.0774 60.3846 11.7542 61.3455L11.7557 61.3449ZM12.4187 61.512C12.6884 61.8498 12.7667 62.3789 13.0815 62.6718C13.441 62.7002 13.1563 62.0844 13.247 61.8437C14.0224 62.0622 13.9773 63.1019 15.2358 62.8376C15.0482 62.4175 14.4368 62.4215 14.573 61.6779C15.0965 62.3438 17.0402 62.6818 17.8871 62.009C18.1592 63.0574 15.2509 62.3534 15.07 63.5004C13.919 63.2915 11.6868 63.6947 12.4187 61.5097V61.512Z" fill="#364282" fill-opacity="0.15"/>
<path d="M53.7726 47.2259C54.0247 47.1929 54.2555 47.1975 54.4375 47.2873C54.4389 47.288 54.4404 47.2886 54.4416 47.2894C54.503 47.3203 54.5597 47.3609 54.609 47.4129C54.6756 47.3757 54.7412 47.3381 54.8038 47.2988C54.8074 47.2967 54.8114 47.2942 54.8147 47.2921C54.8707 47.257 54.9246 47.2207 54.9764 47.1835C54.9866 47.1768 54.996 47.1693 55.0063 47.1624C55.0508 47.1294 55.0925 47.0958 55.1324 47.0621C55.1454 47.0507 55.1588 47.04 55.1709 47.0291C55.206 46.9974 55.2369 46.965 55.2674 46.9326C55.2807 46.9186 55.295 46.9042 55.3071 46.8902C55.3334 46.8593 55.3555 46.8276 55.3773 46.7952C55.3887 46.7791 55.4015 46.7622 55.4115 46.7453C55.4305 46.7137 55.4439 46.6805 55.4581 46.6481C55.4656 46.6293 55.4756 46.6118 55.4817 46.5928C55.4932 46.5579 55.4986 46.5219 55.5038 46.4856C55.5066 46.4681 55.512 46.4511 55.5132 46.433C55.5174 46.3782 55.5147 46.3231 55.5038 46.265C55.3695 46.3331 55.2321 46.3972 55.0938 46.4612C54.6173 46.683 54.135 46.9007 53.7621 47.2257C53.7615 47.2263 53.7609 47.2263 53.7609 47.2272C53.7713 47.223 53.7755 47.223 53.7797 47.2209L53.7726 47.2259Z" fill="#364282" fill-opacity="0.15"/>
<path d="M53.7726 47.2259C54.0247 47.1923 54.2534 47.2004 54.4375 47.2873C54.2557 47.1996 54.0239 47.1954 53.7732 47.2267L53.7726 47.2259Z" fill="#364282" fill-opacity="0.15"/>
<path d="M54.2656 47.5894C54.1327 47.6078 54.012 47.6387 53.9042 47.6826C53.886 47.6891 53.8672 47.696 53.8497 47.7041C53.7417 47.754 53.6433 47.8134 53.5664 47.895C53.5812 47.8915 53.5921 47.893 53.6076 47.8905H53.6082C53.6163 47.8863 53.6245 47.8829 53.6324 47.8796C53.8371 47.7877 54.0544 47.6937 54.2653 47.5892L54.2656 47.5894Z" fill="#364282" fill-opacity="0.15"/>
<path d="M9.4356 55.0488C9.50369 56.1411 9.50035 57.3042 9.93276 58.0316H10.9271C10.2588 56.8221 10.0148 55.1875 9.10409 54.2206C8.60547 55.2686 8.05713 56.2665 7.44696 57.2029C7.91341 57.3445 8.1269 57.7383 8.77258 57.7007C8.65205 56.8923 8.43668 55.2128 9.4356 55.0478V55.0488Z" fill="#364282" fill-opacity="0.15"/>
<path d="M26.0069 57.3696C24.0763 58.3218 23.4149 61.5096 21.3672 63.004C20.4834 63.6487 19.0454 63.8448 17.7214 64.3296C16.9253 64.621 16.5299 65.1274 15.733 65.1585C14.4316 65.2082 11.9099 64.6488 10.7616 63.8327C9.88135 63.2064 9.9365 62.1208 9.10449 61.5128C8.67835 62.0036 9.57846 62.5781 9.27035 63.5012C13.5355 67.1929 21.7597 65.0102 25.1786 61.8445C25.5128 60.5911 26.6889 58.5524 26.0058 57.37L26.0069 57.3696Z" fill="#364282" fill-opacity="0.15"/>
<path d="M26.0591 61.1527C26.1596 61.2477 26.8454 61.5402 26.8878 61.1527C26.6371 60.9605 26.1901 60.5699 26.0585 61.1527H26.0591Z" fill="#364282" fill-opacity="0.15"/>
<path d="M10.7614 62.5063C10.9515 62.9851 11.4255 64.0429 12.0875 63.5002C11.5136 63.3007 11.4071 62.6339 11.0931 62.1746C11.0741 62.3772 11.0434 62.5673 10.7614 62.5067V62.5063Z" fill="#364282" fill-opacity="0.15"/>
<path d="M5.62435 4.00968C6.52655 6.51302 8.70444 8.27209 10.2644 10.3069C11.4215 11.8163 12.9934 12.7169 13.9098 14.2842C15.4691 16.9502 17.0584 19.2161 18.384 21.9068C16.4346 21.1496 16.1562 18.7214 15.07 17.1013C12.5374 13.3368 9.24609 10.3313 6.45302 6.8274C6.26126 6.64671 5.41421 7.21677 4.63003 6.99326C4.14959 6.42424 3.98749 5.53708 3.47027 5.00483C3.11955 6.62415 3.7811 8.37152 4.46438 9.47905H5.62414C6.40121 10.0497 6.22617 10.6591 6.45281 11.6331C6.69429 12.6722 7.62678 13.4979 8.10994 14.4502C10.0445 18.2631 13.0899 21.1034 14.2413 25.0558C12.4417 23.7548 12.1029 21.2266 10.9272 19.4216C10.1157 18.1756 8.83353 17.4691 8.11015 16.273C7.83943 14.8317 7.05128 13.9073 6.45302 12.7931C5.90071 12.8487 5.71793 13.2731 4.96154 13.1244C4.55295 12.5387 4.33341 11.7641 4.13329 10.9701C4.27847 10.4529 4.91475 10.4262 5.1274 9.976C3.09991 9.92712 3.50077 13.1933 3.96743 14.4502C4.99559 17.2184 7.17035 19.9146 8.27601 23.233C8.51226 23.942 8.43079 24.6591 8.60752 25.3873C9.14123 27.588 10.4382 29.6533 10.9272 31.85C11.0898 32.5792 10.9538 33.2773 11.0931 34.0042C11.6895 37.1221 14.0882 38.8839 14.9041 41.2952C16.7212 42.5715 17.6355 44.7508 19.0468 46.4326C20.7154 47.9679 23.1158 48.7709 25.5099 49.5808C25.4359 50.0596 24.2576 49.4337 24.1843 49.9125C25.0633 51.0123 25.9419 51.6434 27.0014 52.232C29.9524 48.9967 32.9823 45.8398 35.6179 42.2897C35.1297 42.1629 34.4575 41.3605 34.9551 40.798C35.3879 41.0831 35.3146 41.8748 35.9496 41.958C36.1959 41.7622 36.6901 41.8149 36.6126 41.2949C35.7537 40.6651 35.7104 39.6708 35.452 37.9809C35.2897 36.9137 34.8506 35.799 34.7892 34.8321C34.7029 33.4634 35.0873 32.0737 34.9551 30.6898C34.6079 27.0536 32.9472 23.185 30.6465 21.9072C29.3242 19.2081 27.4831 17.0716 27.1668 13.7872C26.795 13.5516 26.0747 13.6638 26.0066 13.1244C25.8924 12.1568 26.0219 11.9233 26.0066 10.8047C26.2489 10.4391 27.3195 10.902 27.3322 10.3073C24.9358 9.39717 23.0826 12.6168 23.3552 14.6159C23.4621 15.399 24.7307 17.471 25.5095 18.2614C25.8911 18.6487 26.6199 18.7293 27.0009 19.0901C28.1555 20.1841 28.5068 21.7911 29.4861 22.4041C28.004 22.4892 27.7782 20.7898 27.0009 19.9186C26.3243 19.1607 25.3041 18.721 24.6808 17.9301C24.0339 17.1096 23.6462 16.0286 22.8582 15.2789C22.0559 12.988 20.3992 11.5512 19.3783 9.47905C16.228 8.04439 14.835 4.85255 11.7555 3.34749C11.7006 4.17658 10.6511 4.01072 10.0982 4.34202C12.0365 6.85435 15.1539 7.92595 17.0598 10.4755C18.9977 13.0674 20.1355 16.1604 22.0312 18.9265C22.5545 19.1346 23.4958 19.5766 23.0255 20.2526C20.1293 18.7851 19.7529 14.7974 17.5572 12.63C17.1455 12.4142 16.8695 13.116 16.7285 12.63C17.3241 11.122 16.0008 10.2083 14.9056 10.3098C14.8402 9.91271 15.6605 10.4017 15.4029 9.81286C12.8325 7.2456 9.62398 5.31712 7.4488 2.35547C6.71998 2.45532 6.84323 3.40745 5.95732 3.34979C5.12281 2.7484 4.05287 2.38221 3.80325 1.19572C3.90999 0.474208 4.82138 0.556719 5.12886 0.0355379C4.3215 -0.108596 4.02989 0.261975 3.47195 0.366838C2.93176 2.23035 3.78277 3.99485 5.62602 4.01239L5.62435 4.00968ZM7.9445 9.14713C7.91755 9.33952 7.98084 9.44166 8.10994 9.47843C7.79368 9.71447 7.39052 9.86341 6.95018 9.97538C6.92825 9.34599 7.38342 9.19371 7.9445 9.14713ZM7.61299 10.6384C7.63722 10.2764 8.03035 10.2827 8.44124 10.3069C8.32071 10.6436 7.94283 10.9835 7.61299 10.6384ZM10.5957 15.9411C10.8719 16.1619 11.6502 15.8807 11.5898 16.438C12.1208 16.3616 12.1741 15.8072 12.75 15.7752C12.5265 16.4357 11.994 16.7873 11.2585 16.9352C11.5846 16.0572 10.2697 16.8195 10.5957 15.9411ZM11.7557 17.2667C12.0734 16.9216 12.3909 16.5763 12.9155 16.438C12.8405 17.0022 12.1637 17.5539 11.7557 17.2667ZM10.5957 14.947C10.7511 14.0621 12.9537 13.0108 12.9155 14.7811C12.1334 14.0373 11.3383 14.4189 10.5957 14.947ZM6.12151 15.9411C6.26418 16.0746 6.2199 16.3948 6.45281 16.438C6.05675 16.9822 5.58842 16.2112 5.79 15.6096C6.19629 15.2977 6.66379 15.0477 7.28148 14.9468C7.34603 15.7297 6.55475 15.6564 6.12151 15.9411ZM10.4303 20.7466C10.2776 21.0359 9.91204 21.1124 9.43577 21.0781C9.56883 20.7276 10.118 20.4331 10.4303 20.7476V20.7466ZM8.44145 20.7466C8.22169 20.1816 9.09883 19.4659 10.0986 19.5866C9.71004 20.1371 8.95427 20.3205 8.44145 20.7466ZM9.43556 21.9064C9.52225 21.3298 10.3277 21.4725 10.7612 21.2436C10.8896 22.0332 10.0842 21.8911 9.43556 21.9057V21.9064ZM12.4187 28.3694C12.3834 27.8767 13.0097 27.7852 13.247 28.0381C13.1064 28.2846 12.8298 28.3953 12.4187 28.3703V28.3694ZM12.2529 27.8723C12.2589 27.326 12.7241 27.2387 13.247 27.2095C13.0076 27.5207 12.8768 27.9427 12.2529 27.8716V27.8723ZM14.7384 29.0316C15.1888 29.3863 14.5231 30.0201 14.0756 30.0257C14.3052 29.704 14.6714 29.5183 14.7384 29.0316ZM15.2358 30.193C15.0931 30.8239 14.6442 31.1483 13.9098 31.1874C14.2937 30.7967 14.4529 30.1826 15.2358 30.193ZM14.4071 31.8495C14.724 31.3931 15.1424 31.038 15.4015 30.5239C16.0718 30.8435 15.2463 31.9966 14.4071 31.8504V31.8495ZM15.2358 32.5117C14.779 32.1503 15.5882 31.6601 15.8986 31.5174C15.9279 32.1002 15.3386 32.0626 15.2358 32.5117ZM15.5671 21.7413C15.7002 21.1155 16.419 21.7292 16.7269 21.9072C16.4365 22.9707 17.7036 22.4773 17.7212 23.2328C16.914 23.3772 16.622 23.0064 16.0641 22.9015C16.6126 22.1432 15.9974 22.2644 15.5671 21.7422V21.7413ZM16.7269 23.5629C17.1396 23.1988 17.8154 23.5762 17.8871 24.0598C17.3408 24.0535 16.7146 24.129 16.7269 23.5629ZM18.2184 26.2158C17.9723 26.0202 17.478 26.0725 17.5555 25.553C18.0744 25.4757 18.2952 25.695 18.2184 26.2151V26.2158ZM27.1662 16.1069H27.1666C27.1923 16.4447 26.848 16.6137 26.5038 16.6137C26.2456 16.6137 25.9872 16.5187 25.8853 16.3288C25.8514 16.2655 25.8347 16.1911 25.8412 16.1069H27.1655H27.1662ZM26.2575 17.4468C25.8357 17.4353 25.4295 17.2811 25.2607 16.969C25.2043 16.8652 25.1744 16.7434 25.1792 16.6039C25.6835 16.9669 26.8136 17.0756 27.4989 16.7697C27.4091 17.2247 26.82 17.4624 26.2581 17.4468H26.2575ZM12.5842 5.83266C12.7082 5.32234 12.0131 5.63067 12.2529 5.00441C12.6521 5.0723 12.6132 4.70173 13.0815 4.83855C12.9823 5.26908 13.148 5.43494 13.5785 5.33571C13.4826 5.73699 12.9526 5.7042 12.5842 5.83266ZM16.3956 9.64408C16.4175 9.1137 16.7714 8.91526 17.3899 8.98127C17.1716 9.31528 16.8459 9.54193 16.3956 9.64408ZM18.8814 12.1297C19.2718 12.1334 19.3691 11.8441 19.8755 11.9642C20.0336 12.4321 18.7976 12.7824 18.8814 12.1297ZM20.5383 35.329C20.4873 34.7072 20.7595 33.8806 20.0413 34.3351C20.0737 33.8605 20.062 33.4302 19.5442 33.5058C19.4381 32.8393 19.7595 31.7443 19.3787 31.3518C20.0079 30.3706 19.8872 32.4693 19.8757 33.1747C20.2479 33.105 19.8805 32.2955 20.207 32.1804C21.0428 32.2124 19.9636 34.53 21.0357 33.8376C21.0001 34.4642 21.2049 35.3311 20.5387 35.329H20.5383ZM22.6917 24.0594C23.0949 24.2641 23.7671 24.1994 23.8519 24.7222C23.4362 25.0585 22.7176 24.6324 22.6926 24.06L22.6917 24.0594ZM23.521 30.0253C23.4529 29.6261 23.8233 29.6652 23.6865 29.1971C24.334 29.0884 23.9497 30.1747 23.5215 30.0243L23.521 30.0253ZM23.0239 25.5509V25.2194H24.0182C24.1749 25.8189 23.3665 25.4512 23.0239 25.5515V25.5509ZM24.3503 31.1867C23.8601 30.8964 24.446 30.3038 24.3503 29.8611C25.0021 30.0199 24.4757 30.8262 24.3503 31.1876V31.1867ZM25.1775 33.5054C25.2709 33.1023 25.3194 32.6534 25.8403 32.6774C25.7484 33.0805 25.7004 33.5296 25.1782 33.5046L25.1775 33.5054ZM26.339 34.3347C26.88 34.9403 26.0906 35.6252 25.842 35.9914C25.3678 35.4546 26.3246 34.9344 26.3392 34.3349L26.339 34.3347ZM25.0125 38.312C25.5523 38.3241 25.3662 39.0625 25.5099 39.4717C24.8498 39.5804 25.0357 38.843 25.0127 38.3124L25.0125 38.312ZM25.0125 32.6782C24.2432 32.392 25.3958 32.0818 25.1784 31.3522C25.9972 31.4921 25.1617 32.4405 25.0133 32.6786L25.0125 32.6782ZM24.1832 27.2095C24.6877 27.2573 25.3144 27.1833 25.343 27.7068C24.7978 27.7006 24.1711 27.7737 24.1836 27.2097L24.1832 27.2095ZM25.1775 35.6612C25.4023 35.7123 25.3148 36.0758 25.343 36.3233C25.0459 36.3022 24.9937 36.527 24.6802 36.4892C24.8306 36.1968 25.0812 36.0067 25.1773 35.662L25.1775 35.6612ZM25.0125 48.7502C25.4094 48.8507 25.7687 48.9892 26.3381 48.9163C26.3214 49.4156 24.8153 49.4573 25.0117 48.7492L25.0125 48.7502ZM25.8418 39.6384C26.3596 39.1313 26.655 40.2526 26.8359 40.6323C26.1361 40.6658 26.251 39.8887 25.8416 39.638L25.8418 39.6384ZM26.8361 39.3063C27.2541 39.5511 27.5209 39.9474 27.6648 40.4661C26.9943 40.4723 26.8292 39.9752 26.8355 39.3067L26.8361 39.3063ZM27.3333 45.7694C27.3993 45.3386 27.8275 45.2697 27.8302 44.7746C28.1427 44.7909 28.1759 44.9986 28.0753 45.2212C27.9744 45.4431 27.7402 45.6783 27.5177 45.7512C27.453 45.77 27.3903 45.7763 27.3339 45.7679L27.3333 45.7694ZM27.8304 46.4316C27.8645 45.9476 28.2234 45.7884 28.5008 45.5477C28.6673 45.404 28.8045 45.23 28.8248 44.9401C29.5204 45.2158 28.5281 46.4671 27.8304 46.4316ZM29.3198 39.4713C28.8983 39.4511 28.6773 39.2301 28.657 38.8085H28.6574C29.0788 38.8288 29.3 39.0498 29.3202 39.4713H29.3198ZM28.1605 32.6782C28.2273 32.6663 28.2787 32.6705 28.3213 32.6828C28.3533 32.6922 28.3802 32.7068 28.4053 32.7229C28.4807 32.7718 28.5386 32.8384 28.6579 32.8437C28.6909 33.312 28.6543 33.7103 28.5756 34.0665C28.549 34.1851 28.5179 34.299 28.4832 34.4091C28.4366 34.5559 28.3838 34.6963 28.3266 34.8317C27.9276 34.0964 28.383 33.5407 28.1594 32.6801L28.1605 32.6782ZM29.3219 36.6555C28.8586 36.0877 28.6052 35.2975 28.7155 34.3993C28.7381 34.2159 28.77 34.0297 28.8246 33.8382C29.2653 34.9223 29.5118 34.8576 29.3217 36.6561L29.3219 36.6555ZM29.9444 37.2216C29.8769 36.9653 29.8418 36.6849 29.8464 36.4132C29.8506 36.1414 29.8943 35.879 29.9839 35.6601H29.9843C30.2385 36.2893 30.2596 37.1516 30.3158 37.9796C30.1529 37.8021 30.0234 37.5284 29.944 37.2214L29.9444 37.2216ZM30.4917 27.9656C30.3499 27.7313 30.2137 27.3874 29.9315 27.3672C29.8959 27.3645 29.8586 27.3672 29.8185 27.3757H29.818C29.9264 27.1562 30.0349 27.0703 30.1414 27.0689C30.4343 27.0645 30.7115 27.7016 30.9226 27.974C30.9421 27.9987 30.9605 28.0206 30.9786 28.0385C30.7426 28.2913 30.6131 28.1701 30.4898 27.9654L30.4917 27.9656ZM31.1434 38.9742C30.6507 38.7481 30.852 37.8286 30.8117 37.1508C31.5115 37.1717 30.9767 38.4229 31.1439 38.9744L31.1434 38.9742ZM31.8077 40.3006C31.2853 39.8448 31.7026 39.4344 31.6419 38.6433C32.0179 38.8731 31.7024 39.7964 31.8069 40.2998L31.8077 40.3006ZM33.1321 39.8035C33.6094 39.989 33.6223 40.6388 34.2918 40.6321C34.1523 41.3246 34.6142 41.4151 34.6236 41.958C33.8642 42.109 34.1502 41.2162 33.7949 40.9638C33.5697 41.0152 33.6574 41.3785 33.629 41.6269C33.0483 41.4326 33.1214 40.5866 33.1319 39.8033L33.1321 39.8035ZM32.4699 39.1392C33.1774 39.2052 32.6278 40.5281 32.801 41.128C32.1764 40.7228 32.3853 39.9186 32.4709 39.1394L32.4699 39.1392ZM32.1378 34.6668C31.5999 34.7634 31.3672 34.5543 30.978 34.501C31.0177 34.2608 32.3421 34.1145 32.1373 34.666L32.1378 34.6668ZM32.1378 33.5054C32.0726 34.0556 30.8451 33.8196 30.8121 33.3402C31.3824 33.2671 31.7417 33.4049 32.1386 33.5052L32.1378 33.5054ZM31.8077 32.6782C31.4315 32.5571 30.5145 32.9765 30.6473 32.3465C31.0296 32.2253 31.884 31.9266 31.8067 32.6786L31.8077 32.6782ZM30.6108 26.47C30.5567 26.465 30.5015 26.4541 30.4455 26.4382C30.053 26.3279 29.6378 25.9693 29.652 25.5519C30.3956 25.5258 30.5354 26.1046 30.9776 26.3806C30.8836 26.4558 30.7541 26.4809 30.6099 26.4683L30.6108 26.47ZM28.737 22.9648C28.7677 22.9523 28.7997 22.945 28.8325 22.9418C29.0301 22.923 29.2647 23.0582 29.5183 23.1877C29.7719 23.3172 30.0438 23.4409 30.3162 23.3985C30.0979 23.8902 30.1696 24.2161 30.6473 24.393C30.621 24.5873 30.3457 24.5325 30.1504 24.5584C30.1658 24.924 30.5719 24.8983 30.7415 25.1093C30.7658 25.1394 30.7854 25.1744 30.7981 25.2158C30.8124 25.2634 30.8184 25.3194 30.813 25.3871C30.7206 25.3896 30.6356 25.385 30.5554 25.3754C29.9971 25.3056 29.7067 24.967 29.1556 24.8899C29.5657 24.2904 29.3236 24.3211 29.065 24.0861C28.9789 24.0078 28.8908 23.9 28.8246 23.7298H29.3215C29.2068 23.4029 28.8799 23.2882 28.4928 23.2328C28.5597 23.0845 28.6411 23.0009 28.7351 22.9654L28.737 22.9648ZM28.1605 27.5395C28.238 27.5378 28.305 27.547 28.3631 27.5648C28.4141 27.5802 28.4579 27.603 28.496 27.6312C28.7633 27.8286 28.7487 28.3089 28.8233 28.6995C28.4577 28.4572 28.0462 28.2629 28.159 27.5401L28.1605 27.5395ZM28.6576 40.3006H28.6572C28.2497 40.0794 27.721 39.9798 27.6594 39.4133C27.6506 39.3324 27.6512 39.2422 27.6635 39.1402C27.8162 39.1672 27.9466 39.2156 28.059 39.2831C28.3974 39.4857 28.5645 39.8576 28.6585 40.3025L28.6576 40.3006ZM27.4983 33.6704C27.3757 32.8856 27.6844 32.5312 27.6642 31.8479C28.3138 31.9377 28.0527 33.7091 27.4991 33.6715L27.4983 33.6704ZM27.8284 28.2038C27.711 28.8183 28.1118 28.9151 27.9944 29.5298C27.3406 29.5403 27.1106 28.1783 27.8292 28.2034L27.8284 28.2038ZM27.2017 32.5905C27.1484 32.6408 27.082 32.6717 27.0016 32.6772V30.8542C27.3212 30.9461 27.576 32.2391 27.2021 32.5901L27.2017 32.5905ZM27.0032 28.8576C27.0511 28.853 27.1054 28.8549 27.1664 28.8653C27.3272 29.3596 27.2096 29.8745 27.3318 30.0255C27.2006 30.2187 27.0398 30.1613 26.9109 29.9969C26.8785 29.9557 26.8487 29.9079 26.8213 29.8553C26.739 29.6978 26.6834 29.5002 26.6797 29.3222C26.6776 29.0861 26.7653 28.8835 27.0055 28.8584L27.0032 28.8576ZM26.669 29.5281C26.5205 30.0134 26.5205 30.0372 26.669 30.5223C25.8627 30.8231 26.0444 29.2817 26.669 29.5281ZM25.1775 23.0651C25.5471 22.5474 25.9431 23.3912 26.3373 23.3964C25.9404 23.9437 25.4579 23.1854 25.178 23.0642L25.1775 23.0651ZM24.6804 21.5757C25.2346 21.1044 25.452 22.0309 26.006 22.0726C25.6551 22.4654 24.5981 22.1625 24.6795 21.5755L24.6804 21.5757ZM25.3446 20.0834C25.3726 20.4429 24.757 20.1586 24.5164 20.2492C24.7426 19.5254 23.8745 19.8966 24.0192 19.2547C24.8632 19.1298 25.0992 19.6109 25.3457 20.0834H25.3446ZM23.521 18.4262C24.1157 18.3285 24.3223 18.6188 24.6808 18.7578C24.5032 19.0843 23.3063 19.0406 23.5215 18.4262H23.521ZM23.1889 23.8944C22.6602 24.0362 22.6765 23.6333 22.3606 23.5629C22.4379 23.2391 23.5242 23.2662 23.1899 23.895L23.1889 23.8944ZM22.8589 23.0651C21.7396 23.3007 21.7448 22.4115 21.0359 22.2368C21.2024 21.5778 22.0346 22.0777 22.5271 22.071C21.9966 22.5995 22.876 22.5619 22.8593 23.0632L22.8589 23.0651ZM22.0296 21.2436C21.9228 21.9603 20.5067 21.87 20.5381 21.0777C21.1877 21.3346 21.5721 20.9962 22.0296 21.2427V21.2436ZM21.2003 20.249C20.5276 20.3142 20.0459 20.1884 20.0405 19.586C20.5832 19.6518 21.1125 19.7299 21.2003 20.249ZM20.5383 18.5917C20.396 18.9339 19.385 18.7667 19.2127 18.5917C19.4888 18.0567 20.1128 18.402 20.5383 18.5917ZM19.3785 31.1867C18.9818 31.5636 18.7036 30.8876 18.7157 30.3581C19.2367 30.3351 19.2847 30.7821 19.3785 31.1874V31.1867ZM18.2184 14.2835C18.1037 14.6109 17.7763 14.7251 17.3897 14.7805C17.3139 14.2629 17.7442 14.2507 18.2184 14.2835ZM17.2242 14.449C16.7818 14.2065 17.2938 13.5397 17.7212 13.6205C17.9336 14.2748 17.2382 14.0216 17.2242 14.449ZM17.5555 13.1234C17.6314 13.6412 17.2015 13.6531 16.7269 13.6205C16.8783 13.3299 17.035 13.0448 17.5555 13.1234ZM13.5783 12.4605C13.6516 11.9816 13.928 11.705 14.4069 11.6319C14.334 12.1113 14.0579 12.3874 13.5783 12.4605ZM15.7328 12.9579C15.6028 13.6579 15.1134 13.5664 16.0641 13.4549C16.0125 14.0111 15.5099 14.116 15.0697 14.2835C14.9918 13.8225 14.9885 13.8192 14.4069 13.6207C14.6023 13.153 15.2287 13.1167 15.7328 12.9579ZM14.7384 11.1349C14.0042 11.174 13.7001 11.6434 13.4128 12.129C12.4267 11.723 14.6071 9.91355 14.7384 11.1349ZM8.77275 7.15766C8.98185 6.70395 9.47838 6.53767 9.93292 6.3294C9.82221 6.8815 9.50679 7.22889 8.77275 7.15766ZM9.43556 5.6666C9.32672 6.33066 8.91354 6.6912 8.10994 6.66071C8.43664 6.2141 8.86382 5.86818 9.43556 5.6666Z" fill="#364282" fill-opacity="0.15"/>
<path d="M7.94452 38.8098C7.69364 39.3878 6.98509 39.5077 6.12153 39.4726C6.89088 42.4035 7.87287 45.1231 9.93295 46.7635C10.9676 48.7114 11.7334 50.9283 13.7444 51.9009C14.422 52.072 15.3415 51.6331 15.5673 51.9009C13.8196 53.2892 11.7323 51.2342 10.9273 50.0782C8.13377 53.9627 12.0592 59.7452 16.5615 56.8721C16.4081 56.216 17.1647 56.2241 17.0584 55.2148C17.6136 55.3698 18.1033 54.6199 18.384 55.0489C18.4728 55.2877 17.7383 55.4535 18.2186 55.5465C19.3334 52.9606 22.9027 52.8284 23.1898 49.4151C22.4332 48.9788 20.7637 48.7557 20.87 49.5804C20.7955 49.3099 21.7733 49.3099 21.6987 49.5804C20.8514 50.0165 19.982 51.5912 19.2131 51.0718C18.6911 51.658 17.9612 52.9101 17.0588 52.5635C18.6667 51.4644 19.3414 49.4329 21.2017 48.5867C16.8861 46.2738 15.109 41.4224 11.922 37.9809C11.8134 38.2197 11.4474 39.0314 11.2592 38.6439C11.3024 38.1346 11.6185 37.8988 11.7564 37.4839C11.0977 37.3856 10.9385 38.6431 10.4307 38.147C10.6616 37.641 11.7618 36.6783 11.0935 36.3236C10.836 37.006 10.6526 37.7611 9.76751 37.815C11.7593 35.6589 10.2588 30.4984 8.77319 28.3699C8.45066 28.7099 8.25639 29.1785 7.61343 29.1985C7.67777 28.4342 8.24825 28.1762 8.60775 27.707C8.36794 25.2952 7.67714 23.3346 6.78476 21.5757C5.79692 21.6684 5.56797 22.7244 4.46503 22.2385C4.3984 23.0233 4.76082 23.3786 4.63047 24.2269C6.96629 25.9672 9.33928 33.1273 4.46503 33.0093C8.4139 31.8326 6.29805 27.0864 4.63047 24.8895C3.7853 25.084 2.6809 26.945 1.97924 25.7182C4.83686 26.0267 3.93529 21.7192 3.80222 19.5866C3.00614 19.5317 2.38156 20.0447 2.1451 19.2553C4.14606 19.5438 4.61021 18.2961 4.63047 16.6041C4.33448 16.6035 3.66665 17.0505 3.47071 16.6041C4.34764 15.9254 3.4352 13.9176 2.80791 12.2955C1.04027 15.2463 1.12529 19.3571 0.488804 22.7394C0.295998 23.7636 -0.269886 25.0512 0.157295 25.8878C1.30327 28.1313 3.08677 30.4667 3.80327 33.3452C4.36832 35.6154 4.37103 36.9734 5.46039 38.4827C6.16206 38.8211 6.97025 39.2033 7.94598 38.8148L7.94452 38.8098ZM11.7557 51.5688C12.496 52.3753 13.3763 53.0415 14.0757 53.8889C12.8885 53.5276 12.0212 52.8508 11.7557 51.5682V51.5688ZM18.7157 53.8896C18.6784 54.5835 17.6362 54.9246 17.2243 54.7182C17.6907 54.4112 18.0717 54.0185 18.7157 53.8889V53.8896ZM13.247 48.4208C13.2973 48.857 13.0176 48.9648 12.5842 48.9178C12.5343 48.4812 12.8138 48.3747 13.247 48.4206V48.4208ZM11.7557 48.0887C11.7687 47.5493 12.5067 47.7355 12.9155 47.5917C12.9284 48.1578 12.3018 48.0826 11.7557 48.0889V48.0887ZM11.7557 40.4663C11.7582 39.972 12.1867 39.9033 12.2527 39.4724C12.565 39.6353 12.1708 40.4813 11.7557 40.4667V40.4663ZM12.0872 38.6427C12.5372 38.9972 11.8714 39.6309 11.4244 39.6372C11.533 39.1943 11.8988 39.0082 12.0872 38.6427ZM12.2529 47.0944C11.9642 47.4497 11.02 47.5658 10.9273 46.9285C11.1493 46.7259 11.8863 46.9431 12.2529 47.0935V47.0944ZM5.45872 23.2328C5.65111 22.7073 6.48667 22.8244 6.61848 22.2387C6.922 22.6064 6.20216 23.3623 5.45872 23.2328ZM5.95567 23.895C5.83097 23.2729 6.58882 23.5336 6.61848 23.0663C6.96336 23.2627 6.54224 24.0836 5.95567 23.8956V23.895ZM8.27582 33.0089C7.80749 32.6362 8.548 32.077 8.60733 31.6833C9.04349 32.0259 8.26705 32.5481 8.27582 33.0097V33.0089ZM8.60733 30.8552C8.4164 31.6586 8.111 32.3473 7.28171 32.5124C7.81543 32.0528 7.73438 30.977 8.60733 30.8559V30.8552ZM2.97293 20.084C3.81434 20.3255 2.64455 20.878 2.31012 20.4153C2.19147 19.9654 3.09179 20.534 2.97293 20.084ZM3.13879 17.1013H4.13311C4.28977 17.6999 3.48032 17.3321 3.13879 17.4326V17.1013ZM2.97293 17.7641H3.8016C3.6326 18.1478 3.46821 18.5353 2.97293 18.5923C2.6621 18.2765 3.07152 18.2928 2.97293 17.7641ZM3.4703 26.0487H4.13311C4.32633 26.6252 3.2073 26.8195 3.4703 26.0487Z" fill="#364282" fill-opacity="0.15"/>
<path d="M4.96138 18.0953C4.2052 18.9898 4.59666 20.9118 4.63008 22.0722C6.13785 21.6124 6.87774 20.8669 5.12724 21.5752C5.18928 21.1305 6.25901 20.8416 5.79005 20.4151C5.64006 20.7021 5.18009 20.873 5.12724 20.4151C5.37331 20.2191 5.86755 20.2718 5.79005 19.7523C5.5494 19.6616 4.93339 19.9457 4.96138 19.5864C5.11617 19.4097 5.57259 19.5348 5.45875 19.0894C4.30337 19.1346 5.81553 18.3544 4.96138 18.0964V18.0953Z" fill="#364282" fill-opacity="0.15"/>
<path d="M14.7385 29.0316C14.6714 29.5166 14.3053 29.7032 14.0757 30.0257C14.5231 30.0215 15.1889 29.3867 14.7385 29.0316Z" fill="#364282" fill-opacity="0.15"/>
<path d="M56.8808 46.7351C54.5507 46.249 54.032 43.9504 52.5729 42.5924C46.6905 42.001 46.1288 46.3731 43.6247 49.2211C42.5391 50.455 41.3313 51.455 40.8076 52.5351C38.7483 56.7825 38.4139 64.397 34.8414 66.1232C38.618 61.2826 38.5983 52.6463 43.1269 48.5583C42.4595 48.5056 42.1944 49.7147 41.8013 49.3869C41.9191 49.2372 42.0406 49.0776 42.1633 48.9142C42.186 48.8846 42.2084 48.8557 42.2305 48.8252C42.331 48.6909 42.4336 48.5529 42.5361 48.4137C43.3936 47.2519 44.2925 45.991 44.8839 45.5488L44.8845 45.5482C44.8845 45.5473 44.8853 45.5473 44.8853 45.5467C44.8974 45.5319 44.9087 45.517 44.921 45.5022C43.915 45.9701 43.4417 46.803 42.5098 47.523C42.4868 47.5406 42.4674 47.5596 42.4438 47.5771C42.2976 47.6868 42.1403 47.7935 41.9671 47.8953C41.9955 47.7703 42.0352 47.6519 42.0818 47.5379C42.0973 47.4992 42.1175 47.4643 42.1351 47.4273C42.1695 47.3536 42.2044 47.2803 42.2449 47.2109C42.2698 47.1692 42.2982 47.1293 42.3252 47.0889C42.3655 47.0282 42.4062 46.9674 42.4507 46.9095C42.4822 46.8686 42.5161 46.8293 42.5493 46.7896C42.595 46.7357 42.6414 46.6816 42.6909 46.6304C42.7273 46.5918 42.7644 46.5542 42.802 46.5164C42.8532 46.4667 42.9052 46.4161 42.9585 46.3674C42.9969 46.3323 43.036 46.2973 43.0759 46.2628C43.1325 46.2131 43.1906 46.1644 43.2484 46.1166C43.2871 46.085 43.3259 46.0531 43.3646 46.0221C43.4333 45.9676 43.502 45.9135 43.5708 45.8605C43.5998 45.8377 43.6295 45.8145 43.6585 45.7924C43.7469 45.7243 43.8358 45.657 43.9221 45.5902H43.923V45.5893C43.9351 45.4667 43.9702 45.3466 44.0159 45.2273C44.0387 45.1695 44.0583 45.1108 44.0899 45.0541C44.0871 45.0562 44.0846 45.0583 44.0811 45.0608C43.3976 45.6044 42.6571 46.1074 42.1522 46.5542C42.1286 46.5753 42.1056 46.596 42.0835 46.6162C41.9776 46.7134 41.8796 46.8092 41.8015 46.9007C41.9101 46.714 42.0267 46.5318 42.1466 46.3532C42.181 46.3014 42.2174 46.2503 42.2531 46.1989C42.3475 46.0629 42.4461 45.93 42.5464 45.8005C42.5808 45.756 42.6145 45.7107 42.6496 45.6668C42.7824 45.5024 42.9199 45.3418 43.063 45.1874C43.0914 45.1565 43.1208 45.1281 43.1492 45.0984C43.2693 44.9729 43.392 44.8509 43.5181 44.7337C43.5647 44.6913 43.6105 44.6487 43.6579 44.6069C43.7899 44.4895 43.9255 44.3769 44.0644 44.2691C44.0934 44.247 44.1204 44.2226 44.1492 44.201C44.3159 44.0749 44.4884 43.9577 44.6643 43.8459C44.7103 43.8167 44.7575 43.7906 44.8032 43.763C44.943 43.6788 45.0852 43.5992 45.2302 43.5249C45.2828 43.4979 45.3346 43.471 45.3873 43.4453C45.5774 43.3538 45.771 43.2673 45.9699 43.1925C45.9711 43.1925 45.9726 43.1917 45.9741 43.1911C46.001 43.1674 46.0319 43.142 46.0574 43.1181C45.2557 43.1472 44.0759 44.2276 43.0744 44.609C43.4709 43.6245 44.2741 43.0467 45.2287 42.6206C44.2091 42.5976 42.9295 43.7446 41.9147 44.2779C42.7406 43.0595 43.9746 42.2504 45.7263 41.958C45.7731 42.2256 45.5692 42.2431 45.5604 42.4555C45.7338 42.4326 45.8849 42.4319 46.021 42.4461C46.0695 42.4514 46.1073 42.4664 46.1518 42.4752C46.2335 42.4913 46.3164 42.5067 46.3864 42.5337C46.4324 42.5512 46.4714 42.5755 46.5132 42.5965C46.5725 42.6268 46.6339 42.655 46.6878 42.6908C46.7275 42.7179 46.7653 42.747 46.8038 42.7752C46.86 42.8176 46.9172 42.8587 46.9705 42.9032C47.2011 42.8547 47.4377 42.8222 47.6786 42.7979C47.7356 42.7919 47.7939 42.7864 47.8518 42.7818C48.096 42.7628 48.342 42.752 48.5956 42.7582C47.297 41.4819 45.1905 40.0057 43.1271 39.9411C39.9486 39.8419 37.689 42.6774 35.8362 44.4158C32.852 47.2141 30.2337 50.5626 27.5505 53.0323C26.6555 55.337 27.0277 59.121 27.8816 61.1527C29.4863 60.5478 31.6799 60.5308 33.3508 59.9921C33.1722 59.22 32.0803 57.912 33.1847 57.3409C32.9825 58.5923 33.8221 58.8021 33.8478 59.8262C35.0969 59.8054 35.6804 59.1181 36.6646 58.8323C34.9143 61.7466 29.9597 60.0454 27.219 61.8153C24.9632 63.2717 24.6956 67.4652 25.8934 69.769C28.4128 70.2944 30.7324 69.8114 33.1845 69.4379C39.0913 66.2858 38.1758 57.4923 42.2988 51.7065C42.9374 50.8103 43.9522 50.0153 44.6184 49.0552C46.2832 46.657 47.9579 42.189 51.5782 44.4156C51.1163 45.0061 49.6603 45.4761 49.9214 46.2381C50.692 45.9018 51.1364 44.3642 52.241 44.9125C51.2222 45.661 50.4596 46.6664 49.258 47.2327C49.3645 46.0088 48.4139 47.5871 48.2641 47.0666C48.4402 46.2684 50.4662 44.9744 49.7556 44.9125C48.8024 45.7282 47.462 47.0357 46.7726 47.5635C47.3749 46.0666 48.7335 45.3263 49.5897 44.0836C46.8691 45.0115 46.5717 47.424 44.9501 49.718C43.0607 52.391 40.87 54.4294 40.6415 57.8376C41.2874 57.0476 41.4938 55.8176 42.2988 55.1866C40.3854 59.7358 38.7191 64.5328 36.0016 68.2777C39.9469 65.7598 40.0858 58.5533 43.2925 55.8494C40.8859 60.1816 40.1512 66.1859 36.0016 68.7747C41.6367 66.677 41.3482 57.7718 45.2812 54.5238C43.7304 57.171 41.998 60.52 41.4702 63.6379C44.1613 57.6011 47.0668 51.7794 52.241 48.2268C51.9794 47.936 51.4804 47.8829 51.4123 47.3979C51.9105 47.0635 52.661 46.1122 53.4007 46.5699C53.2984 47.0743 52.51 46.8936 52.4068 47.3979C52.5027 47.4115 52.6057 47.4108 52.7122 47.4025C53.0433 47.3776 53.4156 47.2763 53.7569 47.2293C53.7575 47.2287 53.7581 47.2287 53.7588 47.2287C53.7596 47.2279 53.7602 47.2279 53.7609 47.2272C54.1337 46.9016 54.6146 46.6837 55.0925 46.4627C55.2308 46.3986 55.3683 46.3346 55.5026 46.2665C55.5134 46.3244 55.516 46.3798 55.512 46.4345C55.5107 46.4527 55.5053 46.4696 55.5026 46.4871C55.4974 46.5235 55.4917 46.5594 55.4804 46.5943C55.4744 46.6133 55.4644 46.6308 55.4568 46.6496C55.4428 46.682 55.4293 46.715 55.4103 46.7468C55.4002 46.7637 55.3875 46.7806 55.376 46.7967C55.3543 46.8291 55.3321 46.8608 55.3058 46.8918C55.2935 46.9057 55.2795 46.9202 55.2661 46.9342C55.2356 46.9665 55.2047 46.9989 55.1696 47.0307C55.1575 47.0415 55.1441 47.0524 55.1312 47.0637C55.0915 47.0973 55.0495 47.1309 55.005 47.1639C54.9948 47.1706 54.9854 47.1781 54.9751 47.185C54.9233 47.2222 54.8692 47.2586 54.8135 47.2937C54.8101 47.2957 54.8061 47.2983 54.8026 47.3003C54.7399 47.3396 54.6745 47.3772 54.6077 47.4144C54.6501 47.4595 54.6954 47.4998 54.727 47.564C54.5611 47.5587 54.4113 47.57 54.2703 47.589H54.2691C54.2682 47.589 54.2683 47.589 54.2676 47.5897C54.0533 47.6935 53.8363 47.7891 53.6324 47.8804C53.6244 47.8838 53.6163 47.8877 53.609 47.8913C53.7688 47.8608 53.9117 47.8474 54.0418 47.8474C54.5615 47.846 54.8678 48.0578 55.1617 48.283C55.3814 48.4515 55.5951 48.6268 55.8865 48.7246C56.486 48.3318 57.0354 47.889 56.8892 46.7485L56.8808 46.7351ZM31.86 59.1641C31.5915 59.6481 31.452 59.346 30.8654 59.3299C30.5721 58.3711 29.9551 57.3584 30.3685 56.1817C30.9248 56.9513 30.7499 58.4507 31.5282 58.9988C31.711 58.6299 31.0171 57.2607 31.5282 56.5128C31.7332 57.8 32.2867 58.7373 32.688 59.8269C32.2034 59.8164 32.0739 59.4488 31.8608 59.1647L31.86 59.1641ZM34.1786 58.1697C34.3566 58.5992 34.8993 58.664 35.0073 59.1636C34.2344 59.3391 33.7623 58.6665 34.178 58.1693L34.1786 58.1697ZM26.8884 65.13C27.4948 65.7132 28.003 67.1777 28.0481 67.7812C27.0204 67.5389 27.0851 66.2041 26.8888 65.1304L26.8884 65.13ZM30.2014 67.6137C29.1577 67.4514 29.4659 67.311 28.7099 67.7797C28.1488 67.3469 28.1745 66.3265 28.2129 65.2944C28.6823 65.4327 28.4097 66.3119 28.7099 66.62C28.9324 66.5109 29.0188 66.2655 29.0416 65.9572C29.544 65.952 29.2022 66.7906 29.7044 66.7852C30.0106 66.7604 29.8061 66.2241 30.0355 66.1224C30.4017 66.5849 31.1192 66.6962 31.3613 67.283C30.7556 67.5128 30.0829 66.6522 30.202 67.611L30.2014 67.6137ZM31.1957 65.9572C31.7081 66.107 32.1079 66.3699 32.5213 66.62C32.0053 67.1694 30.7228 66.4215 31.1948 65.9578L31.1957 65.9572ZM32.19 66.1222C32.1806 65.3955 32.9276 66.2354 33.5156 65.957C33.4362 66.2787 32.4127 66.4959 32.1892 66.122L32.19 66.1222Z" fill="#364282" fill-opacity="0.15"/>
<path d="M45.0263 44.5292C45.0263 44.5298 45.0257 44.5298 45.025 44.5306C44.8093 44.7295 44.6041 44.9647 44.4128 45.1955C44.414 45.1941 44.4149 45.1934 44.4161 45.192C44.6584 44.9831 44.8694 44.7658 45.0261 44.5298L45.0263 44.5292Z" fill="#364282" fill-opacity="0.15"/>
<path d="M53.7621 47.226C54.135 46.9009 54.6173 46.6831 55.0938 46.4614C54.6154 46.6828 54.135 46.9022 53.7631 47.226H53.7621Z" fill="#364282" fill-opacity="0.15"/>
<path d="M53.6326 47.8798C53.8365 47.7885 54.0535 47.6928 54.2679 47.589C54.2672 47.589 54.2664 47.5896 54.2658 47.5896C54.0548 47.6941 53.8376 47.7881 53.6328 47.88L53.6326 47.8798Z" fill="#364282" fill-opacity="0.15"/>
<path d="M54.2656 47.5894C54.2662 47.5894 54.267 47.5888 54.2677 47.5888L54.2683 47.5881H54.2662L54.2656 47.5894Z" fill="#364282" fill-opacity="0.15"/>
<path d="M47.0317 42.9521C47.0114 42.9353 46.9912 42.9191 46.9709 42.9023H46.9703C46.9912 42.9191 47.0121 42.9358 47.0309 42.9525L47.0317 42.9521Z" fill="#364282" fill-opacity="0.15"/>
<path d="M43.9234 45.5882V45.5891C43.9274 45.5855 43.9307 45.583 43.9349 45.5795C43.9328 45.5857 43.9286 45.5878 43.9244 45.5899L43.9234 45.5882Z" fill="#364282" fill-opacity="0.15"/>
<path d="M43.9046 45.7699C43.9004 45.7091 43.918 45.6506 43.9242 45.5907L43.9234 45.5913C43.9171 45.6519 43.9004 45.7104 43.9046 45.771V45.7699Z" fill="#364282" fill-opacity="0.15"/>
<path d="M45.0347 44.5229C45.0326 44.5244 45.0311 44.5257 45.0293 44.5271L45.0286 44.5278C45.0307 44.5257 45.0328 44.5236 45.0349 44.5236L45.0347 44.5229Z" fill="#364282" fill-opacity="0.15"/>
<path d="M44.0925 45.0535C44.1182 45.0075 44.151 44.963 44.1809 44.9181C44.1504 44.9632 44.1174 45.0085 44.0919 45.0541H44.094L44.0925 45.0535Z" fill="#364282" fill-opacity="0.15"/>
<path d="M44.149 45.5068C44.2338 45.4097 44.3207 45.3059 44.4091 45.1985C44.4051 45.2014 44.4011 45.2045 44.3969 45.2081C44.2507 45.3336 44.0963 45.4567 43.9351 45.5801C43.9309 45.5837 43.9276 45.5862 43.9236 45.5897C43.9175 45.6497 43.9 45.7082 43.904 45.769C43.9812 45.6917 44.0627 45.6019 44.1463 45.5058L44.149 45.5068Z" fill="#364282" fill-opacity="0.15"/>
<path d="M45.9831 43.188C45.9801 43.1893 45.9776 43.1893 45.9749 43.1908H45.9743L45.9734 43.1914C45.9471 43.215 45.915 43.2413 45.8872 43.2651C45.6396 43.4822 45.356 43.713 45.0715 43.9595C45.0472 43.9812 45.023 44.0012 44.9986 44.023C44.8947 44.1147 44.793 44.2085 44.695 44.3041C44.6572 44.3413 44.623 44.3796 44.5864 44.4176C44.5298 44.4761 44.4753 44.535 44.4233 44.5949C44.3809 44.644 44.341 44.6927 44.3027 44.742C44.2574 44.7998 44.2184 44.8585 44.1799 44.9172C44.15 44.9624 44.1172 45.0068 44.0916 45.0526C44.1124 45.0359 44.1327 45.019 44.153 45.002C44.2958 44.8867 44.4341 44.771 44.5676 44.6522C44.6551 44.5747 44.7408 44.4963 44.8225 44.4167C44.8657 44.375 44.9073 44.3332 44.9486 44.2914C45.0685 44.1679 45.1832 44.0437 45.2818 43.9177C45.2636 44.0263 45.2306 44.1295 45.1895 44.2291C45.1861 44.2373 45.1813 44.2446 45.178 44.2528C45.1377 44.3472 45.0869 44.4382 45.0288 44.5266C45.0309 44.5251 45.0324 44.5239 45.0343 44.5224C45.1185 44.4456 45.2047 44.3756 45.2931 44.3133C45.3121 44.3006 45.3317 44.2914 45.3503 44.2791C45.4257 44.2306 45.5014 44.1867 45.5797 44.1535C45.6248 44.1354 45.6712 44.1287 45.7178 44.1163C45.7744 44.1009 45.8312 44.0806 45.8897 44.076C45.9977 44.0679 46.109 44.0767 46.2237 44.1118C46.1468 44.2385 46.0564 44.3511 45.9613 44.4589C45.9344 44.4898 45.9072 44.5197 45.8797 44.5494C45.8001 44.6338 45.7178 44.7161 45.6334 44.795C45.512 44.9089 45.39 45.0208 45.2701 45.1347C45.2592 45.1449 45.249 45.1552 45.2384 45.1652C45.1279 45.2726 45.0199 45.3824 44.9215 45.5023C44.9866 45.4718 45.0456 45.4363 45.1157 45.4094C45.0462 45.4363 44.9681 45.4863 44.8864 45.5475C44.8858 45.5475 44.8858 45.5483 44.8849 45.5483C44.8822 45.5523 44.8797 45.5562 44.877 45.5598C44.817 45.6373 44.7596 45.7183 44.7082 45.8052C44.6549 45.8976 44.6065 45.9947 44.5659 46.1006C45.8398 45.3304 46.9544 44.4013 48.0458 43.4494C47.9163 43.4379 47.8025 43.4101 47.6978 43.374C47.663 43.3616 47.6337 43.3435 47.6015 43.3295C47.5355 43.3002 47.4693 43.2714 47.4106 43.2357C47.3755 43.2141 47.3433 43.1891 47.3095 43.1657C47.2571 43.1285 47.203 43.0919 47.1533 43.0516C47.1121 43.0193 47.0716 42.9869 47.0319 42.953C47.0116 42.9363 46.9907 42.92 46.9705 42.9033C46.63 42.9785 46.2999 43.0746 45.9824 43.1937L45.9831 43.188Z" fill="#364282" fill-opacity="0.15"/>
<path d="M45.8891 44.0758C45.9971 44.0671 46.1084 44.0765 46.2231 44.1116C46.1082 44.076 45.9975 44.0677 45.8889 44.076L45.8891 44.0758Z" fill="#364282" fill-opacity="0.15"/>
<path d="M44.3955 45.208C44.3997 45.2045 44.4043 45.2013 44.4085 45.1978C44.4091 45.1971 44.4097 45.1965 44.4105 45.1965C44.6027 44.9653 44.8076 44.7292 45.0247 44.5297C45.0253 44.5289 45.0259 44.5289 45.0259 44.5283C45.0268 44.5276 45.0274 44.5276 45.0274 44.5268C45.0853 44.4385 45.1354 44.347 45.1772 44.2525C45.1805 44.2444 45.1853 44.2371 45.1887 44.2289C45.2298 44.1291 45.2628 44.0259 45.281 43.9175C45.1824 44.0437 45.0677 44.1677 44.9478 44.2912C44.9067 44.3328 44.8651 44.3745 44.8216 44.4165C44.74 44.4961 44.6543 44.5744 44.5668 44.6519C44.4331 44.7706 44.2948 44.8865 44.1521 45.0018C44.131 45.0187 44.111 45.0363 44.0901 45.053C44.0577 45.1105 44.0381 45.1685 44.0153 45.227C43.9694 45.3463 43.9343 45.4664 43.9224 45.589C43.9263 45.5863 43.9303 45.583 43.9339 45.5802C44.0926 45.457 44.2451 45.3338 44.3913 45.2084L44.3955 45.208Z" fill="#364282" fill-opacity="0.15"/>
<path d="M44.408 45.1997L44.4101 45.1976L44.408 45.1997Z" fill="#364282" fill-opacity="0.15"/>
<path d="M44.3954 45.2081C44.3996 45.2046 44.4036 45.2014 44.4076 45.1985C44.4084 45.1985 44.4084 45.1979 44.4084 45.1979C44.4063 45.2021 44.4 45.2041 44.3959 45.2083L44.3954 45.2081Z" fill="#364282" fill-opacity="0.15"/>
<path d="M45.1161 45.4086C45.046 45.4355 44.9873 45.4712 44.9219 45.5015C44.9095 45.5164 44.8983 45.5312 44.8862 45.546C44.8862 45.5466 44.8853 45.5466 44.8853 45.5475C44.8862 45.5475 44.8862 45.5466 44.8868 45.5466C44.9662 45.4861 45.0455 45.4359 45.1145 45.4088L45.1161 45.4086Z" fill="#364282" fill-opacity="0.15"/>
<path d="M45.9747 43.1902C45.9774 43.1888 45.9799 43.1888 45.9828 43.1875C45.9799 43.1888 45.978 43.1896 45.9753 43.1896L45.9747 43.1902Z" fill="#364282" fill-opacity="0.15"/>
<path d="M44.0905 45.0534C44.0589 45.1101 44.0393 45.1688 44.0165 45.2266C44.0393 45.1681 44.0589 45.1101 44.0913 45.0526H44.0892L44.0905 45.0534Z" fill="#364282" fill-opacity="0.15"/>
<path d="M45.0284 44.527C45.0865 44.4387 45.1372 44.3478 45.1775 44.2532C45.1358 44.3476 45.0858 44.4393 45.0278 44.5274H45.0299L45.0284 44.527Z" fill="#364282" fill-opacity="0.15"/>
<path d="M44.1532 45.0012C44.1329 45.0181 44.1126 45.0351 44.0918 45.0518C44.0911 45.0518 44.0911 45.0524 44.0911 45.0524C44.1099 45.0378 44.1308 45.019 44.1517 45.0023L44.1532 45.0012Z" fill="#364282" fill-opacity="0.15"/>
<path d="M30.1491 24.5572C30.3444 24.5311 30.6198 24.5858 30.6461 24.3917C30.6189 24.586 30.3432 24.5317 30.1489 24.5567L30.1491 24.5572Z" fill="#364282" fill-opacity="0.15"/>
<path d="M30.6463 24.3921C30.1685 24.2152 30.0969 23.8893 30.3152 23.3976C30.0979 23.8885 30.169 24.2143 30.6473 24.3919L30.6463 24.3921Z" fill="#364282" fill-opacity="0.15"/>
<path d="M30.7403 25.1086C30.5707 24.8976 30.1646 24.9231 30.1492 24.5577C30.1638 24.9233 30.5711 24.8982 30.7403 25.1092V25.1086Z" fill="#364282" fill-opacity="0.15"/>
</g>
<defs>
<clipPath id="clip0_2109_1356">
<rect width="56.9051" height="70" fill="white"/>
</clipPath>
</defs>
</svg>
