<svg width="33" height="32" viewBox="0 0 33 32" fill="none" xmlns="http://www.w3.org/2000/svg">
<g clip-path="url(#clip0_2115_877)">
<path d="M25.6698 4.22434L22.5481 5.46978L21.9379 4.07813L20.5529 4.22778C19.1631 4.37738 17.9529 4.8782 16.7956 5.78962C15.6381 4.87596 14.4364 4.37561 13.0657 4.22773L11.6802 4.07813L11.0705 5.46978L7.94808 4.22434L2.09091 17.8547L5.58837 19.1849L5.58837 29.0781L16.7949 23.4899L28.0015 29.0781V19.194L31.5277 17.8551L25.6698 4.22434ZM7.31249 26.296V19.8412L14.6548 22.6347L7.31249 26.296ZM15.933 21.2802L4.38278 16.8858L8.86999 6.44359L10.379 7.04595L6.52465 15.8376L15.9329 19.4463L15.933 21.2802ZM15.933 17.6035L9.43998 15.1132C10.5492 14.5478 11.8664 14.4746 13.0686 14.9625L15.9329 16.213L15.933 17.6035ZM15.933 14.336L13.7307 13.3747C12.3664 12.8176 10.8946 12.7793 9.55905 13.208L12.7531 5.92374C12.9305 5.96881 14.2987 5.92534 15.933 7.30845V14.336ZM17.6569 7.30954C19.2607 5.95918 20.7746 5.94685 20.8655 5.9238L24.0463 13.1798C22.7878 12.7798 21.4194 12.8337 20.0936 13.3747L17.6569 14.3698V7.30954ZM17.6569 16.228L20.7465 14.9663C21.9147 14.489 23.1338 14.5515 24.1918 15.1063L17.6569 17.6053V16.228ZM26.2774 26.296L18.9368 22.6354L26.2774 19.8484V26.296ZM17.6569 21.2814V19.4467L27.0939 15.8382L23.2389 7.04595L24.7481 6.44364L29.2353 16.8854L17.6569 21.2814Z" fill="#8789A3"/>
</g>
<defs>
<clipPath id="clip0_2115_877">
<rect width="28.0749" height="28" fill="white" transform="translate(2.09091 2)"/>
</clipPath>
</defs>
</svg>
