<svg width="70" height="70" viewBox="0 0 70 70" fill="none" xmlns="http://www.w3.org/2000/svg">
<path fill-rule="evenodd" clip-rule="evenodd" d="M65.625 56.875C65.625 59.29 63.665 61.25 61.25 61.25H8.75C6.335 61.25 4.375 59.29 4.375 56.875V26.25C4.375 23.835 6.335 21.875 8.75 21.875H61.25C63.665 21.875 65.625 23.835 65.625 26.25V56.875ZM61.25 17.5H56.6562L33.6131 4.63751C32.5675 4.05563 31.2288 4.40342 30.625 5.40749C30.0212 6.41155 30.38 7.69569 31.4256 8.27538L48.0703 17.5H8.75C3.91781 17.5 0 21.4178 0 26.25V56.875C0 61.7072 3.91781 65.625 8.75 65.625H61.25C66.0822 65.625 70 61.7072 70 56.875V26.25C70 21.4178 66.0822 17.5 61.25 17.5ZM45.9375 50.3125C41.1053 50.3125 37.1875 46.3947 37.1875 41.5625C37.1875 36.7303 41.1053 32.8125 45.9375 32.8125C50.7697 32.8125 54.6875 36.7303 54.6875 41.5625C54.6875 46.3947 50.7697 50.3125 45.9375 50.3125ZM45.9375 28.4375C38.6903 28.4375 32.8125 34.3153 32.8125 41.5625C32.8125 48.8119 38.6903 54.6875 45.9375 54.6875C53.1847 54.6875 59.0625 48.8119 59.0625 41.5625C59.0625 34.3153 53.1847 28.4375 45.9375 28.4375ZM24.0625 39.375H10.9375C9.72781 39.375 8.75 40.3528 8.75 41.5625C8.75 42.7722 9.72781 43.75 10.9375 43.75H24.0625C25.2722 43.75 26.25 42.7722 26.25 41.5625C26.25 40.3528 25.2722 39.375 24.0625 39.375ZM24.0625 48.125H10.9375C9.72781 48.125 8.75 49.105 8.75 50.3125C8.75 51.5222 9.72781 52.5 10.9375 52.5H24.0625C25.2722 52.5 26.25 51.5222 26.25 50.3125C26.25 49.105 25.2722 48.125 24.0625 48.125ZM24.0625 30.625H10.9375C9.72781 30.625 8.75 31.6028 8.75 32.8125C8.75 34.0222 9.72781 35 10.9375 35H24.0625C25.2722 35 26.25 34.0222 26.25 32.8125C26.25 31.6028 25.2722 30.625 24.0625 30.625Z" fill="#364282" fill-opacity="0.15"/>
</svg>
