<svg width="24" height="24" viewBox="0 0 24 24" fill="none" xmlns="http://www.w3.org/2000/svg">
<path fill-rule="evenodd" clip-rule="evenodd" d="M7.19998 8.85002C6.01257 8.85002 5.04998 9.81262 5.04998 11V18C5.04998 19.1875 6.01256 20.15 7.19998 20.15H16.8C17.9874 20.15 18.95 19.1875 18.95 18V11C18.95 9.81263 17.9874 8.85002 16.8 8.85002H7.19998ZM3.34998 11C3.34998 8.87373 5.07368 7.15002 7.19998 7.15002H16.8C18.9263 7.15002 20.65 8.87372 20.65 11V18C20.65 20.1264 18.9262 21.85 16.8 21.85H7.19998C5.07369 21.85 3.34998 20.1264 3.34998 18V11Z" fill="#989899"/>
<path fill-rule="evenodd" clip-rule="evenodd" d="M12 4.15002C12.4695 4.15002 12.85 4.53058 12.85 5.00002V8.00002C12.85 8.46947 12.4695 8.85002 12 8.85002C11.5306 8.85002 11.15 8.46947 11.15 8.00002V5.00002C11.15 4.53058 11.5306 4.15002 12 4.15002Z" fill="#989899"/>
<path fill-rule="evenodd" clip-rule="evenodd" d="M21 12.85H20V11.15H21C22.574 11.15 23.85 12.426 23.85 14V15.4459C23.85 16.6112 23.1405 17.6593 22.0585 18.0921C22.0585 18.0921 22.0585 18.0921 22.0585 18.0921L20.3157 18.7892L19.6843 17.2108L21.4271 16.5137L21.4271 16.5137C21.8637 16.3391 22.15 15.9162 22.15 15.4459V14C22.15 13.3649 21.6352 12.85 21 12.85Z" fill="#989899"/>
<path fill-rule="evenodd" clip-rule="evenodd" d="M0.150024 14C0.150024 12.426 1.42602 11.15 3.00002 11.15H4.00002V12.85H3.00002C2.36489 12.85 1.85002 13.3649 1.85002 14V15.4459C1.85002 15.9162 2.13635 16.3391 2.5729 16.5137L2.57292 16.5137L4.3157 17.2108L3.68435 18.7892L1.94159 18.0921C1.94158 18.0921 1.94157 18.0921 1.94157 18.0921C0.859486 17.6593 0.150024 16.6112 0.150024 15.4459V14Z" fill="#989899"/>
<path fill-rule="evenodd" clip-rule="evenodd" d="M16 11.15C16.4695 11.15 16.85 11.5306 16.85 12V14C16.85 14.4694 16.4695 14.85 16 14.85C15.5306 14.85 15.15 14.4694 15.15 14V12C15.15 11.5306 15.5306 11.15 16 11.15Z" fill="#989899"/>
<path fill-rule="evenodd" clip-rule="evenodd" d="M8.00002 11.15C8.46947 11.15 8.85002 11.5306 8.85002 12V14C8.85002 14.4694 8.46947 14.85 8.00002 14.85C7.53058 14.85 7.15002 14.4694 7.15002 14V12C7.15002 11.5306 7.53058 11.15 8.00002 11.15Z" fill="#989899"/>
<path d="M12 5C13.1046 5 14 4.10457 14 3C14 1.89543 13.1046 1 12 1C10.8954 1 10 1.89543 10 3C10 4.10457 10.8954 5 12 5Z" fill="#989899"/>
<path fill-rule="evenodd" clip-rule="evenodd" d="M9.15002 17C9.15002 16.5306 9.53058 16.15 10 16.15H14C14.4695 16.15 14.85 16.5306 14.85 17C14.85 17.4695 14.4695 17.85 14 17.85H10C9.53058 17.85 9.15002 17.4695 9.15002 17Z" fill="#989899"/>
<path fill-rule="evenodd" clip-rule="evenodd" d="M22 9.15002C22.4695 9.15002 22.85 9.53058 22.85 10V12C22.85 12.4695 22.4695 12.85 22 12.85C21.5306 12.85 21.15 12.4695 21.15 12V10C21.15 9.53058 21.5306 9.15002 22 9.15002Z" fill="#989899"/>
<path fill-rule="evenodd" clip-rule="evenodd" d="M2.00002 9.15002C2.46947 9.15002 2.85002 9.53058 2.85002 10V12C2.85002 12.4695 2.46947 12.85 2.00002 12.85C1.53058 12.85 1.15002 12.4695 1.15002 12V10C1.15002 9.53058 1.53058 9.15002 2.00002 9.15002Z" fill="#989899"/>
</svg>
