<svg width="70" height="70" viewBox="0 0 70 70" fill="none" xmlns="http://www.w3.org/2000/svg">
<path d="M18.2941 50.0052C18.5285 50.1456 18.8083 50.1894 19.0744 50.1273C19.3406 50.0653 19.5722 49.9023 19.7203 49.6727C19.7915 49.5605 19.8392 49.4351 19.8605 49.304C19.8819 49.1729 19.8766 49.0389 19.8448 48.9099C19.813 48.7809 19.7555 48.6598 19.6756 48.5536C19.5958 48.4475 19.4953 48.3586 19.3802 48.2923C19.1455 48.1536 18.8666 48.1104 18.601 48.1714C18.3353 48.2325 18.1033 48.3932 17.9528 48.6205C17.8815 48.733 17.8336 48.8588 17.8122 48.9903C17.7908 49.1218 17.7961 49.2563 17.828 49.3856C17.8599 49.515 17.9176 49.6366 17.9977 49.743C18.0778 49.8495 18.1786 49.9387 18.2941 50.0052Z" fill="#364282" fill-opacity="0.15"/>
<path d="M67.293 22.2152C67.0973 21.9608 66.8558 21.7453 66.5809 21.5797C66.7421 21.5565 66.895 21.4939 67.026 21.3973C67.1571 21.3008 67.2623 21.1734 67.3322 21.0264C67.4022 20.8794 67.4347 20.7174 67.4269 20.5548C67.4191 20.3922 67.3712 20.234 67.2875 20.0944C67.1655 19.905 66.9844 19.7612 66.7724 19.6853C67.0458 19.3856 67.2514 19.0323 67.3553 18.6331C67.5281 17.9769 67.4275 17.2933 67.0753 16.7081C66.6334 15.9775 65.8088 15.5367 64.9578 15.4788C65.3809 14.9042 65.5802 14.1952 65.5184 13.4844C65.4566 12.7736 65.138 12.1096 64.622 11.6167C63.5983 10.6236 62.0473 10.488 60.8563 11.1672C60.9547 10.9944 61.0247 10.8041 61.0247 10.5919C61.0247 9.93125 60.4888 9.39531 59.8281 9.39531C59.7384 9.39531 59.6586 9.42813 59.5744 9.44672C59.6276 9.10436 59.6071 8.75458 59.5142 8.42078C59.4158 8.09252 59.2524 7.78741 59.0337 7.52359C58.815 7.25978 58.5454 7.04266 58.2411 6.88516C57.3694 6.42797 56.2953 6.545 55.5023 7.0711C55.5371 6.96823 55.5545 6.8603 55.5538 6.75172C55.5308 6.19719 55.0473 5.76953 54.4764 5.79141C54.2478 5.80546 54.03 5.89379 53.8563 6.04297C53.6672 5.5497 53.3323 5.12579 52.8961 4.82778C52.4599 4.52977 51.9433 4.37182 51.415 4.375L51.2969 4.37719C50.9504 4.38879 50.6097 4.46901 50.2945 4.6132C49.9793 4.75739 49.6958 4.96268 49.4605 5.21719C49.2335 5.46056 49.0573 5.74681 48.9424 6.05914C48.8274 6.37148 48.776 6.70362 48.7911 7.0361C48.8097 7.42438 48.9223 7.78422 49.0963 8.10688C48.8568 8.07551 48.6138 8.12765 48.4083 8.25453C48.2191 8.37826 48.0788 8.56382 48.0113 8.77953C47.1483 8.13094 45.885 8.01828 44.9455 8.61766C44.6563 8.79962 44.407 9.03819 44.2125 9.319C44.0179 9.59982 43.8822 9.91709 43.8134 10.2517C43.7456 10.5798 43.7467 10.9102 43.8091 11.2295C43.6054 11.18 43.3915 11.1926 43.195 11.2657C42.9985 11.3388 42.8284 11.4691 42.7066 11.6397C42.5826 11.8243 42.5266 12.0462 42.548 12.2675C41.4947 11.9952 40.2872 12.3703 39.6594 13.2694C39.4676 13.5434 39.3331 13.8532 39.264 14.1804C39.1948 14.5076 39.1924 14.8454 39.2569 15.1736C39.2941 15.3661 39.3597 15.5498 39.4384 15.7248C38.9321 15.6156 38.4067 15.6322 37.9083 15.7731C37.4099 15.914 36.9536 16.175 36.5794 16.5331C36.2904 16.8076 36.0603 17.138 35.9031 17.5041C35.7459 17.8703 35.6648 18.2647 35.6648 18.6632C35.6648 19.0617 35.7459 19.4561 35.9031 19.8223C36.0603 20.1885 36.2904 20.5188 36.5794 20.7933C36.5816 20.7966 36.5859 20.7987 36.5903 20.802C36.2965 20.8279 36.0228 20.9623 35.8228 21.1791C35.6228 21.396 35.5107 21.6796 35.5086 21.9745C35.5086 22.0894 35.5436 22.1944 35.5753 22.2994C34.5166 22.0763 33.343 22.4952 32.7578 23.4161C32.5767 23.6971 32.4546 24.0119 32.3987 24.3414C32.3429 24.671 32.3545 25.0085 32.433 25.3334C32.5292 25.7359 32.7283 26.0936 32.9941 26.3988C32.7801 26.4696 32.5957 26.6097 32.4702 26.7969C32.354 26.9862 32.3072 27.2101 32.3378 27.4302C31.2714 27.1983 30.0847 27.6194 29.4952 28.5469C29.3145 28.8283 29.1927 29.1433 29.1371 29.473C29.0814 29.8027 29.0931 30.1402 29.1714 30.4653C29.2677 30.8667 29.4667 31.2244 29.7336 31.5295C29.5187 31.6004 29.3339 31.7414 29.2086 31.9298C29.0921 32.1187 29.0456 32.3424 29.0773 32.562C28.0098 32.3269 26.8199 32.7523 26.2369 33.6788C26.055 33.9602 25.9322 34.2757 25.8759 34.606C25.8197 34.9364 25.8313 35.2747 25.9098 35.6005C26.0061 35.9997 26.2052 36.3563 26.472 36.6625C26.2577 36.7321 26.0731 36.872 25.9481 37.0595C25.8328 37.2496 25.7865 37.4737 25.8169 37.6939C24.7505 37.4588 23.5605 37.8842 22.9753 38.8106C22.794 39.0919 22.6716 39.407 22.6156 39.737C22.5596 40.0669 22.5711 40.4048 22.6494 40.7302C22.7456 41.1316 22.9447 41.4881 23.2105 41.7944C22.9961 41.8651 22.8116 42.0056 22.6866 42.1936C22.6153 42.3056 22.5675 42.4309 22.546 42.5619C22.5244 42.6929 22.5296 42.8269 22.5611 42.9558C22.5927 43.0848 22.65 43.206 22.7297 43.3122C22.8093 43.4184 22.9096 43.5075 23.0245 43.5739C23.2596 43.7139 23.5396 43.7578 23.8062 43.6962C24.0728 43.6347 24.3053 43.4725 24.4552 43.2436C24.5691 43.0566 24.6151 42.836 24.5853 42.6191C24.7859 42.6709 24.9918 42.6988 25.1989 42.7022C25.5686 42.7022 25.9164 42.6103 26.2424 42.4736C26.1691 42.6002 26.1073 42.7331 26.0575 42.8706C25.93 43.2461 25.8951 43.6469 25.9558 44.0387C25.7321 43.9855 25.4971 44.0078 25.2875 44.1022C25.1661 44.1567 25.057 44.2352 24.9666 44.333C24.8763 44.4308 24.8067 44.5458 24.762 44.6711C24.7172 44.7965 24.6983 44.9296 24.7063 45.0624C24.7143 45.1953 24.749 45.3251 24.8084 45.4442C24.9342 45.6864 25.1492 45.8703 25.408 45.9568C25.6668 46.0434 25.9492 46.0258 26.1953 45.908C26.3945 45.8084 26.5555 45.6463 26.6536 45.4464C26.8991 45.6975 27.1925 45.8967 27.5164 46.0324C27.8403 46.168 28.1881 46.2373 28.5392 46.2361C28.9342 46.237 29.3243 46.1496 29.6811 45.9802C29.9927 45.8367 30.2721 45.6318 30.5025 45.3777C30.733 45.1236 30.9097 44.8255 31.022 44.5014C31.1544 44.1186 31.1806 43.7216 31.1249 43.3333C31.3483 43.3874 31.5835 43.3655 31.7931 43.2709C31.9948 43.1726 32.1574 43.0093 32.2547 42.8072C32.5013 43.0567 32.7946 43.2552 33.118 43.3913C33.4414 43.5274 33.7884 43.5983 34.1392 43.6002C34.5363 43.6002 34.9213 43.5148 35.2778 43.3442C35.59 43.2005 35.8699 42.9952 36.1009 42.7407C36.3318 42.4863 36.5091 42.1878 36.622 41.8633C36.7544 41.4816 36.7806 41.0856 36.7248 40.6995C36.9436 40.7444 37.1766 40.7378 37.3953 40.635C37.594 40.5351 37.7545 40.373 37.8525 40.1734C38.24 40.5641 38.7389 40.8253 39.2807 40.9213C39.8226 41.0172 40.3808 40.9432 40.8789 40.7094C41.19 40.5655 41.469 40.3605 41.6994 40.1067C41.9297 39.8528 42.1067 39.5553 42.2199 39.2317C42.3522 38.8489 42.3784 38.4497 42.3227 38.0603C42.4977 38.0964 42.6803 38.1063 42.8641 38.0483C43.0739 37.9769 43.2548 37.839 43.3792 37.6556C43.6262 37.9835 43.9464 38.2492 44.3142 38.4315C44.682 38.6138 45.0873 38.7077 45.4978 38.7056C45.7723 38.7056 46.0469 38.6641 46.3116 38.5798C46.6411 38.4772 46.9466 38.3093 47.21 38.0863C47.4735 37.8633 47.6894 37.5896 47.845 37.2816C48.0167 36.9394 48.1062 36.5619 48.1064 36.1791C49.3292 37.2509 51.2116 37.228 52.3917 36.085C53.037 35.4616 53.328 34.6303 53.2875 33.8111C53.4975 34.0791 53.8092 34.2628 54.1767 34.2628C54.6284 34.2628 55.0102 33.9959 55.1972 33.6153C55.4445 33.8898 55.7468 34.1091 56.0845 34.259C56.4222 34.4088 56.7877 34.4857 57.1572 34.4848C57.4864 34.4848 57.8091 34.4247 58.1186 34.3066C58.4408 34.1845 58.7353 33.9989 58.9844 33.7609C59.2335 33.5228 59.4323 33.2371 59.5689 32.9208C59.7855 32.4166 59.8205 31.8719 59.6925 31.348C59.9471 31.3715 60.2015 31.3011 60.4078 31.15C60.5833 31.0129 60.7074 30.8206 60.76 30.6042C61.2143 30.9143 61.754 31.0749 62.304 31.0638C62.8539 31.0526 63.3866 30.8701 63.828 30.5419C64.3902 30.1241 64.7478 29.517 64.8364 28.8345C64.8867 28.4484 64.8364 28.0667 64.7139 27.7102C65.252 27.743 65.7355 27.3831 65.8088 26.8538C65.8338 26.6408 65.7859 26.4257 65.6731 26.2434C66.7625 26.0455 67.6375 25.1825 67.7928 24.0811C67.8372 23.7525 67.8158 23.4183 67.73 23.098C67.6442 22.7777 67.4957 22.4776 67.293 22.2152ZM26.5103 40.9139C26.0805 41.5855 25.0961 41.8152 24.3906 41.3962C24.2206 41.2974 24.0723 41.1652 23.9548 41.0075C23.8373 40.8497 23.753 40.6698 23.707 40.4786C23.6625 40.2941 23.656 40.1024 23.688 39.9153C23.72 39.7282 23.7897 39.5496 23.893 39.3903C24.0336 39.1715 24.2275 38.9919 24.4565 38.8685C24.6855 38.7451 24.9421 38.6819 25.2022 38.6848C25.4866 38.6848 25.7666 38.7614 26.0083 38.9058C26.3572 39.1136 26.6011 39.4406 26.693 39.8256C26.7838 40.2008 26.717 40.5869 26.5103 40.9139ZM63.3325 17.6455C63.4331 17.2627 63.6836 16.94 64.038 16.7388C64.2742 16.6053 64.5422 16.5353 64.8145 16.5353C65.3614 16.5353 65.8711 16.8164 66.1445 17.267C66.3458 17.5995 66.4016 17.9867 66.3042 18.3586C66.2534 18.5492 66.1647 18.7275 66.0435 18.8831C65.9224 19.0387 65.7711 19.1683 65.5988 19.2642C64.8867 19.6645 63.9023 19.413 63.4922 18.737C63.394 18.575 63.3292 18.3949 63.3018 18.2074C63.2744 18.0199 63.2848 17.8289 63.3325 17.6455ZM55.6489 8.43938C55.7859 8.20205 55.9835 8.00532 56.2213 7.86927C56.4592 7.73323 56.7289 7.66274 57.003 7.665C57.2567 7.665 57.5116 7.72734 57.7347 7.84438C58.0967 8.03578 58.3592 8.35078 58.4719 8.73141C58.5823 9.09891 58.5375 9.48828 58.3483 9.82625C57.9622 10.5153 56.9888 10.7964 56.2647 10.4169C56.0885 10.3269 55.9322 10.2022 55.8053 10.0504C55.6785 9.8985 55.5836 9.72257 55.5264 9.53313C55.4719 9.35199 55.4547 9.1617 55.4758 8.97372C55.4968 8.78574 55.5557 8.60398 55.6489 8.43938ZM50.2611 5.95219C50.5389 5.6525 50.9217 5.4775 51.415 5.45891C52.2353 5.45891 52.9036 6.07469 52.9408 6.86109C52.949 7.04993 52.9194 7.2385 52.8539 7.41578C52.7884 7.59307 52.6881 7.7555 52.5591 7.8936C52.2656 8.19788 51.8649 8.37565 51.4424 8.38906C50.6199 8.38906 49.9144 7.77328 49.8772 6.98797C49.8619 6.60625 49.9975 6.23875 50.2611 5.95219ZM44.8799 10.4694C44.9586 10.0822 45.1916 9.74859 45.5328 9.53094C45.7844 9.37016 46.0775 9.28485 46.3794 9.28485C46.9 9.28485 47.3813 9.53313 47.6656 9.94875C47.8855 10.2703 47.9631 10.6553 47.8855 11.0327C47.8457 11.2247 47.7674 11.4066 47.6554 11.5675C47.5433 11.7284 47.3999 11.865 47.2336 11.9689C46.5434 12.4064 45.5459 12.2084 45.0997 11.5555C44.8799 11.2328 44.8022 10.8467 44.8799 10.4694ZM40.5552 13.8863C40.7 13.6822 40.892 13.5162 41.1148 13.4023C41.3376 13.2884 41.5846 13.2301 41.8349 13.2322C42.14 13.2322 42.4375 13.3186 42.6913 13.4827C43.0325 13.7047 43.2611 14.0383 43.3377 14.4255C43.412 14.8039 43.33 15.1889 43.1069 15.5083C42.6519 16.1602 41.6522 16.3516 40.9708 15.9097C40.8052 15.8034 40.6628 15.6648 40.5519 15.5023C40.441 15.3397 40.364 15.1565 40.3255 14.9636C40.2895 14.7778 40.2913 14.5867 40.3307 14.4016C40.3702 14.2165 40.4465 14.0412 40.5552 13.8863ZM33.6777 23.9969C33.8179 23.7782 34.0114 23.5987 34.2401 23.4753C34.4687 23.3519 34.7249 23.2887 34.9847 23.2914C35.2691 23.2914 35.5491 23.368 35.7941 23.5156C36.1452 23.7223 36.388 24.0494 36.4799 24.4344C36.5684 24.8073 36.5028 25.1913 36.2939 25.5183C35.8652 26.1942 34.883 26.4239 34.1753 26.0017C34.0052 25.9023 33.8569 25.7696 33.7393 25.6115C33.6216 25.4535 33.5371 25.2733 33.4906 25.0819C33.4469 24.8978 33.4409 24.7067 33.473 24.5202C33.5052 24.3337 33.5748 24.1557 33.6777 23.9969ZM30.4139 29.1288C30.5551 28.9097 30.7496 28.7301 30.9792 28.6067C31.2087 28.4833 31.4658 28.4202 31.7264 28.4233C32.0108 28.4233 32.2908 28.4988 32.5314 28.642C32.8803 28.8509 33.1242 29.178 33.2161 29.563C33.3047 29.937 33.2391 30.3242 33.0302 30.6513C32.6025 31.3239 31.617 31.5525 30.9159 31.1347C30.7452 31.0357 30.5962 30.9032 30.4779 30.7451C30.3597 30.587 30.2747 30.4066 30.228 30.2148C30.1845 30.0306 30.1786 29.8395 30.2105 29.6529C30.2425 29.4663 30.3116 29.2881 30.4139 29.1288ZM27.1556 34.2573C27.296 34.0389 27.4896 33.8598 27.7182 33.7368C27.9469 33.6137 28.203 33.5509 28.4627 33.5541C28.7481 33.5541 29.027 33.6306 29.2699 33.7761C29.6199 33.9828 29.8638 34.3098 29.9545 34.6948C29.9988 34.8792 30.0051 35.0706 29.9731 35.2575C29.9412 35.4444 29.8716 35.6229 29.7686 35.782C29.342 36.4547 28.362 36.6855 27.6544 36.2644C27.4836 36.1661 27.3346 36.0343 27.2163 35.8767C27.0981 35.7191 27.013 35.5392 26.9664 35.3478C26.8789 34.9759 26.9445 34.5888 27.1556 34.2573ZM29.9917 44.1459C29.9265 44.3332 29.824 44.5053 29.6903 44.6517C29.5566 44.7982 29.3946 44.916 29.2141 44.998C28.4616 45.3534 27.5177 45.0363 27.1567 44.3188C27.071 44.1509 27.0203 43.9674 27.0077 43.7794C26.9951 43.5914 27.0209 43.4028 27.0834 43.225C27.1491 43.0375 27.2521 42.8652 27.3864 42.7188C27.5206 42.5723 27.6833 42.4546 27.8644 42.373C28.0766 42.2723 28.3041 42.2198 28.5392 42.2198C29.1222 42.2198 29.6647 42.5458 29.9184 43.05C30.0913 43.3945 30.1186 43.7839 29.9917 44.1459ZM35.5917 41.5078C35.5256 41.6957 35.4223 41.8682 35.2879 42.0152C35.1535 42.1622 34.9909 42.2805 34.8097 42.3631C34.0681 42.712 33.1122 42.3916 32.7567 41.685C32.671 41.5166 32.6203 41.3325 32.6077 41.144C32.5951 40.9554 32.6209 40.7663 32.6834 40.588C32.8125 40.2117 33.0881 39.9087 33.46 39.7348C33.6733 39.6342 33.9019 39.5817 34.137 39.5817C34.7309 39.5817 35.2603 39.9011 35.5195 40.4119C35.6913 40.7564 35.7175 41.1447 35.5917 41.5078ZM41.1884 38.8763C41.0572 39.2525 40.7816 39.5533 40.4119 39.7261C39.667 40.0761 38.71 39.7556 38.3556 39.048C38.2694 38.8797 38.2184 38.6956 38.2058 38.507C38.1932 38.3184 38.2193 38.1292 38.2823 37.9509C38.4125 37.5747 38.6881 37.2739 39.0611 37.0989C39.2727 36.9985 39.504 36.9466 39.7381 36.9469C40.3211 36.9469 40.8614 37.2717 41.1163 37.7759C41.2891 38.1216 41.3142 38.512 41.1884 38.8763ZM46.8716 36.7916C46.69 37.1525 46.3717 37.4194 45.9769 37.5452C45.1795 37.7956 44.2925 37.3614 44.0377 36.6078C43.9762 36.4295 43.9515 36.2405 43.9651 36.0523C43.9786 35.8642 44.0301 35.6807 44.1164 35.513C44.298 35.1553 44.6163 34.8906 45.0133 34.7638C45.1693 34.7146 45.332 34.6895 45.4956 34.6894C46.1595 34.6894 46.7458 35.0952 46.9503 35.6989C47.0728 36.0609 47.0455 36.4492 46.8716 36.7916ZM58.5648 32.4931C58.4853 32.6762 58.3697 32.8414 58.225 32.9789C58.0804 33.1165 57.9095 33.2235 57.7227 33.2938C56.9428 33.5913 56.0284 33.2084 55.7233 32.4691C55.651 32.2952 55.6146 32.1085 55.6161 31.9202C55.6176 31.7319 55.657 31.5458 55.732 31.3731C55.8917 31.0056 56.1892 30.7213 56.5753 30.5747C56.7579 30.5045 56.9517 30.4681 57.1474 30.4675C57.7817 30.4675 58.3406 30.8317 58.5725 31.395C58.7202 31.7494 58.7169 32.1409 58.5648 32.4931ZM63.175 29.6745C62.5231 30.1602 61.5169 30.0322 61.017 29.4033C60.8972 29.255 60.8087 29.0839 60.7568 28.9004C60.7049 28.717 60.6907 28.5249 60.7152 28.3358C60.7655 27.9475 60.97 27.6008 61.2927 27.3602C61.5649 27.157 61.8958 27.048 62.2355 27.0495C62.7167 27.0495 63.1608 27.2584 63.4517 27.6259C63.6978 27.9333 63.8039 28.3128 63.7547 28.6956C63.7297 28.8896 63.6654 29.0765 63.5658 29.2448C63.4661 29.4131 63.3331 29.5594 63.175 29.6745ZM63.7853 26.4841C62.8731 25.8475 61.5595 25.8092 60.6408 26.4939C60.3668 26.6956 60.1365 26.9506 59.9638 27.2437C59.791 27.5367 59.6794 27.8617 59.6356 28.1991C59.5842 28.6016 59.6411 28.9964 59.7778 29.3672C59.5481 29.3599 59.3222 29.4279 59.1347 29.5608C58.9897 29.6744 58.8794 29.8263 58.8164 29.9994C58.0989 29.4263 57.0861 29.2163 56.1838 29.5641C55.8616 29.6848 55.5672 29.8695 55.3181 30.1068C55.0691 30.3442 54.8706 30.6295 54.7345 30.9455C54.5874 31.2934 54.5237 31.671 54.5486 32.048C54.4284 32.0016 54.3011 31.9761 54.1723 31.9725C53.6342 31.9725 53.2022 32.3531 53.0808 32.8541C52.9244 32.4671 52.6881 32.1175 52.3873 31.8281C51.7946 31.2611 51.0059 30.9446 50.1856 30.9446C49.3653 30.9446 48.5767 31.2611 47.9839 31.8281C47.3277 32.4625 47.04 33.3091 47.0914 34.1392C46.752 33.8833 46.356 33.7127 45.9368 33.6419C45.5177 33.5711 45.0876 33.6021 44.683 33.7323C44.3532 33.8335 44.0472 34 43.7832 34.2219C43.5192 34.4438 43.3026 34.7166 43.1463 35.0241C42.9625 35.385 42.8838 35.7755 42.8848 36.1659C42.67 36.0834 42.4339 36.0741 42.2133 36.1397C41.9535 36.2222 41.7364 36.4032 41.6084 36.6439C41.3642 36.3964 41.0731 36.2 40.7522 36.0661C40.4313 35.9322 40.087 35.8635 39.7392 35.8641C39.34 35.8641 38.955 35.9516 38.5984 36.1222C38.2864 36.2648 38.0066 36.4692 37.7757 36.723C37.5449 36.9768 37.3679 37.2747 37.2553 37.5988C37.1271 37.9741 37.0914 38.3748 37.1514 38.7669C36.9276 38.7127 36.692 38.7347 36.482 38.8292C36.2785 38.9301 36.1148 39.0965 36.0172 39.3017C35.2505 38.5416 34.02 38.2758 32.9963 38.757C32.6844 38.9009 32.4048 39.1062 32.1742 39.3606C31.9436 39.6151 31.7668 39.9135 31.6542 40.238C31.527 40.6128 31.4925 41.0128 31.5536 41.4039C31.3299 41.3511 31.0951 41.3734 30.8853 41.4673C30.6845 41.5662 30.5221 41.7289 30.4238 41.93C30.1785 41.6788 29.8854 41.4793 29.5617 41.3435C29.238 41.2077 28.8903 41.1382 28.5392 41.1392C28.1761 41.1392 27.8261 41.2202 27.4969 41.3623C27.8032 40.8205 27.8938 40.1831 27.7506 39.5773C27.6523 39.1827 27.4602 38.8177 27.1906 38.5131C27.4042 38.442 27.5881 38.302 27.7134 38.115C27.828 37.9286 27.8744 37.7083 27.8447 37.4916C28.0459 37.5397 28.2505 37.5736 28.4583 37.5736C29.3727 37.5736 30.2072 37.123 30.6873 36.3661C31.0548 35.7897 31.1708 35.1083 31.0133 34.4466C30.9153 34.051 30.7223 33.6854 30.4511 33.3813C30.6652 33.31 30.8495 33.1696 30.975 32.982C31.0902 32.7959 31.1369 32.5755 31.1074 32.3586C31.3086 32.4078 31.512 32.4417 31.7209 32.4417C32.6364 32.4417 33.4688 31.99 33.9489 31.2342C34.3153 30.6578 34.4302 29.9764 34.2738 29.3147C34.176 28.9197 33.9842 28.5543 33.7149 28.2494C33.9287 28.1793 34.1125 28.039 34.2366 27.8513C34.3505 27.6646 34.3972 27.4446 34.3689 27.2278C34.5702 27.2748 34.7747 27.3109 34.9847 27.3109C35.8991 27.3109 36.7325 26.8581 37.2138 26.1013C37.5813 25.527 37.695 24.8467 37.5386 24.1861C37.4405 23.7895 37.2467 23.423 36.9742 23.1186L36.9764 23.1175C37.5025 22.9928 37.9039 22.5411 37.9039 21.9756C37.9039 21.8116 37.87 21.6563 37.8099 21.513C38.8905 21.8564 40.122 21.6267 40.9828 20.7955C41.4581 20.3395 41.7664 19.737 41.858 19.0848C41.9496 18.4326 41.8194 17.7685 41.4881 17.1992C41.6019 17.2145 41.7123 17.2484 41.8305 17.2484C42.7 17.2484 43.5116 16.8295 44.0016 16.1284C44.1944 15.8539 44.3296 15.5432 44.399 15.2149C44.4684 14.8867 44.4705 14.5478 44.4052 14.2188C44.3235 13.8216 44.1463 13.4503 43.8889 13.137C44.1061 13.0758 44.2967 12.9438 44.4303 12.7619C44.4795 12.6908 44.4992 12.6109 44.5277 12.5344C45.0144 13.0134 45.6728 13.3 46.3827 13.3C46.8924 13.3 47.39 13.1567 47.8188 12.8844C48.4094 12.507 48.8108 11.9273 48.9508 11.2514C49.0275 10.8616 49.0091 10.459 48.8972 10.0778C49.1253 10.1025 49.3552 10.0514 49.5513 9.93235C49.6936 9.84006 49.8097 9.71246 49.8881 9.56199C49.9665 9.41153 50.0045 9.24331 49.9986 9.07375C50.4055 9.32641 50.8889 9.47406 51.4095 9.47406L51.5211 9.47188C51.8681 9.45947 52.2091 9.37836 52.5246 9.23323C52.84 9.08811 53.1235 8.88185 53.3586 8.62641C53.6342 8.32891 53.818 7.97453 53.9252 7.59828C54.1098 7.73273 54.3334 7.80303 54.5617 7.79844C54.6569 7.79406 54.74 7.76125 54.8253 7.735C54.7848 7.79516 54.7367 7.84766 54.7006 7.91109C54.5359 8.20175 54.4319 8.52279 54.3949 8.85479C54.3579 9.18679 54.3886 9.52286 54.4852 9.84266C54.682 10.5044 55.1348 11.0502 55.7583 11.3761C56.1389 11.5763 56.5666 11.6823 56.9975 11.6823C57.6483 11.6823 58.2509 11.4352 58.7213 11.0294C58.8963 11.4734 59.3239 11.7895 59.8303 11.7895C59.9364 11.7895 60.0316 11.7556 60.1278 11.7294C59.8614 12.0076 59.6524 12.3356 59.5128 12.6946C59.3733 13.0537 59.3059 13.4367 59.3145 13.8219C59.3231 14.207 59.4076 14.5866 59.5631 14.9391C59.7187 15.2915 59.9421 15.6098 60.2208 15.8758C60.5298 16.1716 60.8958 16.4015 61.2965 16.5514C61.6972 16.7012 62.1242 16.768 62.5516 16.7475C62.4338 16.9428 62.3433 17.1533 62.2825 17.3731C62.197 17.6961 62.1777 18.0331 62.2258 18.3637C62.2739 18.6943 62.3885 19.0118 62.5625 19.297C62.8003 19.6819 63.1328 19.9994 63.5282 20.2192C63.9236 20.439 64.3687 20.5538 64.8211 20.5527C65.0103 20.5527 65.1963 20.5198 65.3789 20.4816C65.3451 20.6985 65.3868 20.9205 65.497 21.1105C65.5244 21.1575 65.5692 21.1859 65.6053 21.2264C65.5834 21.2231 65.5648 21.2144 65.5441 21.2122C64.0948 21.023 62.79 22.0259 62.6008 23.3942C62.5545 23.7213 62.5739 24.0543 62.6578 24.3737C62.7418 24.6932 62.8886 24.9927 63.0897 25.2547C63.3456 25.5927 63.6814 25.8453 64.0588 26.0214C63.9256 26.1466 63.8308 26.3071 63.7853 26.4841ZM64.9884 25.1902C64.786 25.165 64.5905 25.0998 64.4134 24.9984C64.2364 24.897 64.0812 24.7614 63.957 24.5995C63.8421 24.4511 63.7581 24.2811 63.71 24.0996C63.6619 23.9181 63.6507 23.7289 63.677 23.543C63.7777 22.8189 64.4295 22.272 65.1919 22.272C65.2608 22.272 65.333 22.2764 65.403 22.2863C65.8175 22.3409 66.1817 22.5488 66.4289 22.8725C66.6641 23.1788 66.7636 23.5561 66.7111 23.9334C66.6017 24.7231 65.8219 25.3017 64.9884 25.1902Z" fill="#364282" fill-opacity="0.15"/>
<path d="M19.6372 44.2444C19.3484 44.5186 19.1184 44.8488 18.9611 45.2148C18.8039 45.5807 18.7228 45.9748 18.7227 46.3731C18.7226 46.7714 18.8035 47.1656 18.9606 47.5316C19.1176 47.8977 19.3474 48.2279 19.6361 48.5023C20.229 49.0685 21.0172 49.3845 21.837 49.3847C22.6568 49.3849 23.4452 49.0693 24.0384 48.5034C24.3265 48.2286 24.5558 47.8982 24.7125 47.5321C24.8692 47.1661 24.95 46.7721 24.95 46.3739C24.95 45.9757 24.8692 45.5817 24.7125 45.2157C24.5558 44.8497 24.3265 44.5192 24.0384 44.2444C23.4458 43.678 22.6576 43.3619 21.8378 43.3619C21.018 43.3619 20.2298 43.678 19.6372 44.2444Z" fill="#364282" fill-opacity="0.15"/>
<path d="M17.838 50.1145C17.6575 49.9406 18.0764 48.9245 17.4081 48.2792C16.7508 47.6427 15.6067 47.8002 14.9691 48.6697C14.7438 48.9792 14.4277 49.6672 14.3096 50.015C14.1017 50.6384 13.9071 51.8984 13.9453 52.78C13.7856 52.7417 13.6281 52.7002 13.4444 52.7002C12.5246 52.7002 11.421 53.1792 10.9671 53.6244L10.5755 54.0105L10.9878 54.4173C9.15471 55.6423 4.83549 58.6195 2.30674 61.1078C2.26884 61.1446 2.23871 61.1886 2.21813 61.2373C2.19755 61.286 2.18695 61.3383 2.18695 61.3911C2.18695 61.4439 2.19755 61.4962 2.21813 61.5449C2.23871 61.5935 2.26884 61.6376 2.30674 61.6744C2.46534 61.8297 2.72237 61.8297 2.88096 61.6744C4.61456 59.9681 7.27893 57.9797 9.3319 56.5337C6.87862 58.5955 3.62471 61.3452 3.08549 61.8745C3.04786 61.9115 3.01797 61.9556 2.99756 62.0042C2.97715 62.0528 2.96664 62.1051 2.96664 62.1578C2.96664 62.2106 2.97715 62.2628 2.99756 62.3114C3.01797 62.3601 3.04786 62.4041 3.08549 62.4411C3.24409 62.5997 3.50112 62.5997 3.65971 62.4411C4.10924 62.0003 6.62377 59.8664 8.88127 57.9666C6.88627 59.8894 4.64737 62.0167 3.89596 62.6117C3.85444 62.6447 3.81989 62.6856 3.7943 62.732C3.76871 62.7784 3.7526 62.8295 3.7469 62.8822C3.7412 62.9349 3.74603 62.9882 3.7611 63.039C3.77618 63.0899 3.8012 63.1372 3.83471 63.1783C3.84456 63.187 3.85331 63.2002 3.86315 63.2078C4.00862 63.35 4.24268 63.3664 4.40565 63.2373C5.11659 62.6708 7.05143 60.8431 8.90643 59.0614C7.0394 61.0848 5.25002 62.9639 4.68893 63.3686C4.64177 63.4023 4.60259 63.4459 4.57414 63.4964C4.54569 63.5469 4.52868 63.603 4.5243 63.6608C4.51992 63.7186 4.52828 63.7767 4.54879 63.8309C4.5693 63.8851 4.60145 63.9341 4.64299 63.9745C4.71214 64.0422 4.80305 64.0832 4.89957 64.0903C4.9961 64.0973 5.09198 64.0698 5.17018 64.0128C5.80018 63.5567 7.69674 61.5606 9.50252 59.6017C7.79081 61.6952 6.11518 63.6497 5.46112 64.1408C5.41875 64.1721 5.38309 64.2116 5.35627 64.257C5.32944 64.3023 5.312 64.3526 5.30496 64.4048C5.29792 64.457 5.30144 64.5101 5.3153 64.561C5.32916 64.6118 5.35308 64.6594 5.38565 64.7008C5.39549 64.7161 5.40862 64.7281 5.42065 64.7413C5.56284 64.8802 5.79034 64.8998 5.9544 64.7752C6.95518 64.0227 9.86127 60.4691 11.8092 58.0289C10.4311 60.0578 8.29284 62.8819 6.20049 64.9414C6.16262 64.9781 6.13251 65.0221 6.11195 65.0706C6.09138 65.1192 6.08079 65.1714 6.08079 65.2241C6.08079 65.2769 6.09138 65.3291 6.11195 65.3777C6.13251 65.4262 6.16262 65.4702 6.20049 65.5069C6.35909 65.6644 6.61612 65.6644 6.77471 65.5069C9.44893 62.8753 12.308 58.8952 13.5035 56.8969L13.8021 57.1922L14.1849 56.8148C14.6399 56.3653 15.1266 55.2759 15.1266 54.3659C15.1266 54.1866 15.0839 54.0345 15.0467 53.8814C15.9589 53.9241 17.2867 53.7337 17.9375 53.5314C18.2963 53.4166 19.0105 53.1081 19.3266 52.8927C20.2267 52.2747 20.3842 51.1634 19.7291 50.528C19.1527 49.968 18.0053 50.2775 17.838 50.1145ZM13.7999 55.3711C13.7802 55.3645 13.7605 55.3667 13.7397 55.3613C13.7216 55.2636 13.6683 55.176 13.5899 55.1152C13.5406 55.0785 13.4832 55.0545 13.4225 55.0452C13.4099 54.9569 13.3641 54.8767 13.2946 54.8209C13.2391 54.7752 13.1721 54.7457 13.101 54.7356C13.0856 54.6569 13.0561 54.5858 12.9971 54.5267C12.938 54.4677 12.8614 54.437 12.7849 54.4228C12.7749 54.3549 12.7465 54.2909 12.7028 54.238C12.644 54.1698 12.5631 54.1245 12.4742 54.11C12.4677 54.075 12.4491 54.0411 12.4316 54.0083C12.9861 53.8059 13.7135 53.713 13.9158 53.912C13.9967 53.9919 14.0416 54.1527 14.0416 54.3659C14.0405 54.6886 13.9311 55.0517 13.7999 55.3711Z" fill="#364282" fill-opacity="0.15"/>
</svg>
