<svg width="23" height="24" viewBox="0 0 23 24" fill="none" xmlns="http://www.w3.org/2000/svg">
<path d="M20.1486 8H3.04077C2.7887 8 2.54695 7.89464 2.36871 7.70711C2.19047 7.51957 2.09033 7.26522 2.09033 7C2.09033 6.73478 2.19047 6.48043 2.36871 6.29289C2.54695 6.10536 2.7887 6 3.04077 6H20.1486C20.4007 6 20.6425 6.10536 20.8207 6.29289C20.9989 6.48043 21.0991 6.73478 21.0991 7C21.0991 7.26522 20.9989 7.51957 20.8207 7.70711C20.6425 7.89464 20.4007 8 20.1486 8ZM16.3469 13H3.04077C2.7887 13 2.54695 12.8946 2.36871 12.7071C2.19047 12.5196 2.09033 12.2652 2.09033 12C2.09033 11.7348 2.19047 11.4804 2.36871 11.2929C2.54695 11.1054 2.7887 11 3.04077 11H16.3469C16.599 11 16.8407 11.1054 17.019 11.2929C17.1972 11.4804 17.2973 11.7348 17.2973 12C17.2973 12.2652 17.1972 12.5196 17.019 12.7071C16.8407 12.8946 16.599 13 16.3469 13ZM12.5451 18H3.04077C2.7887 18 2.54695 17.8946 2.36871 17.7071C2.19047 17.5196 2.09033 17.2652 2.09033 17C2.09033 16.7348 2.19047 16.4804 2.36871 16.2929C2.54695 16.1054 2.7887 16 3.04077 16H12.5451C12.7972 16 13.039 16.1054 13.2172 16.2929C13.3954 16.4804 13.4956 16.7348 13.4956 17C13.4956 17.2652 13.3954 17.5196 13.2172 17.7071C13.039 17.8946 12.7972 18 12.5451 18Z" fill="#240F4F"/>
</svg>
