<svg width="25" height="26" viewBox="0 0 25 26" fill="none" xmlns="http://www.w3.org/2000/svg">
<path fill-rule="evenodd" clip-rule="evenodd" d="M4.36201 12.3529C4.19793 12.749 4.16666 12.9514 4.16666 13V21.3352C4.16666 21.9093 4.63179 22.375 5.20833 22.375H8.33333V16.125C8.33333 14.9744 9.26607 14.0417 10.4167 14.0417H14.5833C15.734 14.0417 16.6667 14.9744 16.6667 16.125V22.375H19.7917C20.3682 22.375 20.8333 21.9093 20.8333 21.3352V13C20.8333 12.9514 20.8021 12.749 20.638 12.3529C20.4856 11.985 20.2545 11.534 19.9528 11.0235C19.3504 10.004 18.5052 8.81251 17.5592 7.67729C16.6109 6.53948 15.5874 5.48928 14.6356 4.73392C14.1599 4.35631 13.7225 4.06885 13.3391 3.8796C12.9469 3.68608 12.6709 3.62502 12.5 3.62502C12.3291 3.62502 12.0531 3.68608 11.6609 3.8796C11.2775 4.06885 10.8401 4.35631 10.3643 4.73392C9.41259 5.48928 8.38904 6.53948 7.44085 7.67729C6.49484 8.81251 5.64959 10.004 5.04718 11.0235C4.7455 11.534 4.51442 11.985 4.36201 12.3529ZM10.739 2.01138C11.2868 1.74104 11.8897 1.54169 12.5 1.54169C13.1103 1.54169 13.7132 1.74104 14.261 2.01138C14.8175 2.286 15.3811 2.66586 15.9307 3.10206C17.0298 3.9743 18.1547 5.13765 19.1596 6.34358C20.1668 7.55211 21.0793 8.8346 21.7465 9.96358C22.0795 10.5272 22.3611 11.069 22.5627 11.5556C22.7526 12.0141 22.9167 12.5278 22.9167 13V21.3352C22.9167 23.0624 21.5163 24.4584 19.7917 24.4584H16.6667C15.516 24.4584 14.5833 23.5256 14.5833 22.375V16.125H10.4167V22.375C10.4167 23.5256 9.48392 24.4584 8.33333 24.4584H5.20833C3.48368 24.4584 2.08333 23.0624 2.08333 21.3352V13C2.08333 12.5278 2.24737 12.0141 2.43731 11.5556C2.63889 11.069 2.92051 10.5272 3.25359 9.96358C3.92071 8.8346 4.83328 7.55211 5.84039 6.34358C6.84533 5.13765 7.97021 3.9743 9.06923 3.10206C9.61885 2.66586 10.1825 2.286 10.739 2.01138Z" fill="#8789A3"/>
</svg>
