<svg width="13" height="16" viewBox="0 0 13 16" fill="none" xmlns="http://www.w3.org/2000/svg">
<path fill-rule="evenodd" clip-rule="evenodd" d="M0.800903 14.4C0.237589 14.4 -0.139156 13.8383 0.0488485 13.3269L0.0854766 13.2422L1.00966 11.3936C1.35952 10.6937 1.55843 9.92923 1.59472 9.14955L1.60077 8.88916V6.4C1.60077 4.02155 3.3304 2.04714 5.60028 1.66634L5.60013 0.8C5.60013 0.358172 5.95824 0 6.4 0C6.84176 0 7.19987 0.358172 7.19987 0.8L7.20052 1.66648C9.40696 2.03702 11.1027 3.91338 11.1952 6.20278L11.1992 6.4V8.88916C11.1992 9.6716 11.3632 10.4444 11.6793 11.158L11.7903 11.3936L12.7145 13.2422C12.9664 13.7462 12.6326 14.3344 12.0912 14.3949L11.9991 14.4H7.99974C7.99974 15.2837 7.28351 16 6.4 16C5.51649 16 4.80026 15.2837 4.80026 14.4H0.800903ZM6.40004 3.19992C4.68656 3.19992 3.28768 4.5471 3.20447 6.24021L3.20056 6.39992V8.88909C3.20056 9.91371 2.98191 10.9254 2.5605 11.857L2.44055 12.109L2.09516 12.7999H10.7049L10.3595 12.109C9.90138 11.1926 9.64455 10.1899 9.60493 9.16816L9.59952 8.88909V6.39992C9.59952 4.63261 8.16707 3.19992 6.40004 3.19992Z" fill="#8789A3"/>
</svg>
